SplineFontDB: 2.0
FontName: TlwgMono
FullName: Tlwg Mono
FamilyName: TlwgMono
Weight: Medium
Copyright: TlwgMono, Free Thai monospace outline font.\n\nCopyright (C) 2003 Poonlap Veerathanabutr <poonlap@linux.thai.net>
Comments: 2003-11-8: Created. \nPfaEdit 1.0 (http://pfaedit.sf.net).\n\nTLWG is Thai Linux Working Group http://linux.thai.net\n\nImported ISO-8859-1 from FreeMono.sfd.\nhttp://www.nongnu.org/freefont/\n\nImported thai18.bdf as background for reference.\n\n2003-11-15: Used "Copy reference" to variants. But some cannot. I don't know why.\n\n2003-11-17: First release\nSee sample of this font in PDF from http://linux/thai.net/Members/poonlap/font/TlwgMono.pdf\n\n2003-11-18: fixed some characters and make every character monospace.\n\n2003-11-18: fixed font width and name (dottedcircke, uni0E10descless)
Version: 001.008: 2008-01-19
ItalicAngle: 0
UnderlinePosition: -100
UnderlineWidth: 50
Ascent: 800
Descent: 200
NeedsXUIDChange: 1
FSType: 0
OS2Version: 0
OS2_WeightWidthSlopeOnly: 0
OS2_UseTypoMetrics: 0
CreationTime: 1153666223
ModificationTime: 1200713060
PfmFamily: 49
TTFWeight: 500
TTFWidth: 5
LineGap: 90
VLineGap: 0
Panose: 2 0 6 3 0 0 0 0 0 0
OS2TypoAscent: 0
OS2TypoAOffset: 1
OS2TypoDescent: 0
OS2TypoDOffset: 1
OS2TypoLinegap: 0
OS2WinAscent: 0
OS2WinAOffset: 1
OS2WinDescent: 0
OS2WinDOffset: 1
HheadAscent: 0
HheadAOffset: 1
HheadDescent: 0
HheadDOffset: 1
OS2Vendor: 'PfEd'
Lookup: 4 8 1 "'liga' Standard Ligatures lookup 0"  {"'liga' Standard Ligatures lookup 0 subtable"  } ['liga' ('DFLT' <'dflt' > ) ]
Lookup: 4 8 0 "'frac' Diagonal Fractions lookup 1"  {"'frac' Diagonal Fractions lookup 1 subtable"  } ['frac' ('DFLT' <'dflt' > ) ]
DEI: 0
TtfTable: cvt  4
!$MDh
EndTtf

StartChar: mu
Encoding: 116 181 0
Width: 600
Flags: W
HStem: -16 40<250 268> 0 40<479 524> 377 40<59.43 124 362 439>
VStem: 124 41<-183.53 16 103 377> 439 41<39 59 114 377> 439 102<14 26>
Fore
165 16 m 1
 165 -173 l 2
 165 -191 158 -200 144 -200 c 0
 131 -200 124 -191 124 -173 c 2
 124 377 l 1
 70 377 l 2
 52 377 43 384 43 397 c 0
 43 411 52 417 70 417 c 2
 165 417 l 1
 165 115 l 2
 165 61 202 24 256 24 c 0
 324 24 384 54 439 115 c 1
 439 377 l 1
 365 377 l 2
 346 377 337 384 337 397 c 0
 337 411 346 417 365 417 c 2
 480 417 l 1
 480 40 l 1
 514 40 l 2
 532 40 541 34 541 20 c 0
 541 7 532 0 514 0 c 2
 439 0 l 1
 439 59 l 1
 387 10 323 -16 258 -16 c 0
 217 -16 192 -8 165 16 c 1
EndSplineSet
EndChar
StartChar: uni0E31
Encoding: 239 3633 1
Width: 600
Flags: W
HStem: 493 64<311.663 429.548 433 475.644> 635 29<311.955 382.249>
VStem: 265 42<561.674 630.366> 387 46<560.969 597.083>
Fore
347 635 m 0
 325 635 307 617 307 595 c 0
 307 573 325 557 347 557 c 0
 369 557 387 573 387 595 c 0
 387 617 369 635 347 635 c 0
398 493 m 0
 355 493 265 509 265 574 c 24
 265 621 300 664 347 664 c 16
 380 664 391 655 409 635 c 24
 430 611 433 593 433 557 c 1
 490 563 527 631 552 660 c 9
 597 611 l 17
 558 557 534 533 477 510 c 16
 448 498 424 493 398 493 c 0
EndSplineSet
EndChar
StartChar: uni0E34
Encoding: 242 3636 2
Width: 600
Flags: W
HStem: 500 55<210 430> 607 59<250.616 406.444>
VStem: 150 340<500 553.337>
Fore
322 607 m 16
 280 607 218 603 210 555 c 9
 430 555 l 17
 416 593 369 607 322 607 c 16
322 666 m 0
 424 666 490 628 490 500 c 9
 150 500 l 17
 150 614 210 666 322 666 c 0
EndSplineSet
EndChar
StartChar: uni0E35
Encoding: 243 3637 3
Width: 600
Flags: W
HStem: 500 165<133 331 428 485> 500 55<173 333> 612 56<190.553 305.137>
VStem: 428 57<555 665>
Fore
243 612 m 24x70
 208 612 183 598 173 555 c 9
 333 555 l 17
 323 585 284 612 243 612 c 24x70
241 668 m 0
 331 668 380 621 428 555 c 9x70
 428 665 l 25
 485 665 l 25
 485 500 l 25x90
 100 500 l 17
 100 608 133 668 241 668 c 0
EndSplineSet
EndChar
StartChar: uni0E37
Encoding: 245 3639 4
Width: 600
Flags: W
HStem: 500 168<153.111 276 354 404 446 496> 500 60<170 285 404 446>
VStem: 111 59<560 606.195> 354 50<560 665> 446 50<560 665>
Fore
214 614 m 24x78
 187 611 170 596 170 560 c 9
 285 560 l 17
 271 590 249 618 214 614 c 24x78
216 668 m 16xb8
 276 668 320 620 354 560 c 9
 354 665 l 25
 404 665 l 25
 404 560 l 25
 446 560 l 25x78
 446 665 l 25
 496 665 l 25
 496 500 l 25xb8
 111 500 l 17x78
 111 606 139 668 216 668 c 16xb8
EndSplineSet
EndChar
StartChar: uni0E48
Encoding: 262 3656 5
Width: 600
Flags: W
VStem: 431 57<670 834 670 834 670 670>
Fore
431 834 m 1
 488 834 l 1
 488 670 l 1
 431 670 l 1
 431 834 l 1
EndSplineSet
EndChar
StartChar: uni0E49
Encoding: 263 3657 6
Width: 600
Flags: W
HStem: 674 54<321 377> 829 32<338.367 399.506>
VStem: 314 22<765.036 826.941> 402 30<765.028 807.602>
Fore
369 829 m 0
 351 829 336 814 336 796 c 0
 336 778 351 763 369 763 c 0
 387 763 402 778 402 796 c 0
 402 814 387 829 369 829 c 0
372 861 m 24
 405 861 430 837 438 809 c 8
 447 779 432 760 432 729 c 17
 469 723 509 733 540 787 c 9
 600 787 l 17
 579 735 571 729 540 702 c 0
 495 663 402 674 321 674 c 9
 321 728 l 17
 377 728 l 1
 377 728 314 761 314 797 c 8
 314 831 338 861 372 861 c 24
EndSplineSet
EndChar
StartChar: uni0E4A
Encoding: 264 3658 7
Width: 600
VWidth: 965
Flags: W
HStem: 664 18<255.861 299.256> 736 22<261.137 291.095>
VStem: 202 53<686.995 757.039> 309 15<682.773 735.312>
Fore
282 736 m 0
 267 736 255 724 255 709 c 0
 255 694 267 682 282 682 c 0
 297 682 309 694 309 709 c 0
 309 724 297 736 282 736 c 0
202 735 m 0
 202 759 222 833 292 833 c 24
 325 833 364 788 364 788 c 1
 364 788 399 832 430 832 c 16
 462 832 472 817 478 806 c 8
 494 777 486 755 491 723 c 25
 557 794 l 25
 600 748 l 25
 576 723 569 700 539 684 c 24
 502 664 475 673 434 666 c 25
 434 788 l 25
 363 721 l 25
 286 788 l 17
 269 776 261 758 261 758 c 1
 290 757 324 753 324 712 c 0
 324 674 287 664 270 664 c 0
 246 664 202 693 202 735 c 0
EndSplineSet
EndChar
StartChar: uni0E4B
Encoding: 265 3659 8
Width: 600
Flags: W
HStem: 725 53<380 430 490 540>
VStem: 430 60<670 725 778 836>
Fore
430 725 m 1
 380 725 l 1
 380 778 l 1
 430 778 l 1
 430 836 l 1
 490 836 l 1
 490 778 l 1
 540 778 l 1
 540 725 l 1
 490 725 l 1
 490 670 l 1
 430 670 l 1
 430 725 l 1
EndSplineSet
EndChar
StartChar: uni0E4C
Encoding: 266 3660 9
Width: 600
VWidth: 965
Flags: W
HStem: 661 21<413.253 478.708>
VStem: 376 34<685.352 750.787> 482 30<684.851 741.571>
Fore
446 754 m 0
 426 754 410 738 410 718 c 0
 410 698 426 682 446 682 c 0
 466 682 482 698 482 718 c 0
 482 738 466 754 446 754 c 0
449 661 m 0
 411 661 376 687 376 721 c 0
 376 762 411 767 446 785 c 18
 561 841 l 25
 592 780 l 25
 508 736 l 1
 508 736 512 722 512 709 c 0
 512 682 479 661 449 661 c 0
EndSplineSet
EndChar
StartChar: uni0E4D
Encoding: 267 3661 10
Width: 600
Flags: W
HStem: 500 41<367.909 437.917> 621 47<367.909 437.917>
VStem: 318 45<545.766 615.725> 443 43<545.766 615.725>
Fore
403 621 m 0
 381 621 363 603 363 581 c 0
 363 559 381 541 403 541 c 0
 425 541 443 559 443 581 c 0
 443 603 425 621 403 621 c 0
403 668 m 0
 449 668 486 628 486 582 c 0
 486 536 449 500 403 500 c 0
 357 500 318 536 318 582 c 0
 318 628 357 668 403 668 c 0
EndSplineSet
EndChar
StartChar: exclam
Encoding: 1 33 12
Width: 600
Flags: W
HStem: -15 100<287 309>
VStem: 261 77<235 582>
Fore
338 563 m 1
 338 237 l 1
 338 217 313 209 299 209 c 0
 286 209 261 218 261 237 c 1
 261 563 l 1
 260 570 261 575 261 579 c 0
 261 601 277 618 300 618 c 0
 322 618 338 601 338 579 c 0
 338 577 339 571 338 563 c 1
293 85 m 2
 306 85 l 2
 336 85 360 63 360 35 c 128
 360 7 336 -15 306 -15 c 2
 293 -15 l 2
 263 -15 240 7 240 35 c 128
 240 63 263 85 293 85 c 2
EndSplineSet
EndChar
StartChar: quotedbl
Encoding: 2 34 13
Width: 600
Flags: W
HStem: 584 20G<146 274 326 454>
Fore
146 604 m 1
 274 604 l 1
 240 351 l 1
 237 326 228 315 210 315 c 128
 192 315 183 326 180 351 c 1
 146 604 l 1
326 604 m 1
 454 604 l 1
 420 351 l 1
 417 326 408 315 390 315 c 128
 372 315 363 326 360 351 c 1
 326 604 l 1
EndSplineSet
EndChar
StartChar: numbersign
Encoding: 3 35 14
Width: 600
Flags: W
HStem: 189 41<110 205 249 337 381 463> 356 41<128.47 217 261 349 392 490>
Fore
390 356 m 1
 381 230 l 1
 461 230 l 2
 479 230 488 223 488 210 c 0
 488 196 479 189 461 189 c 2
 378 189 l 1
 362 -36 l 1
 361 -54 354 -62 341 -62 c 0
 330 -62 320 -51 321 -41 c 1
 337 189 l 1
 246 189 l 1
 231 -36 l 1
 229 -54 223 -62 210 -62 c 0
 199 -62 190 -53 190 -41 c 2
 190 -33 l 1
 206 189 l 1
 119 189 l 2
 101 189 92 196 92 210 c 0
 92 223 101 230 119 230 c 2
 208 230 l 1
 217 356 l 1
 139 356 l 2
 121 356 112 363 112 377 c 0
 112 390 121 397 139 397 c 2
 220 397 l 1
 236 622 l 1
 237 639 244 647 257 647 c 0
 271 647 278 635 276 619 c 1
 261 397 l 1
 352 397 l 1
 368 622 l 1
 369 639 375 647 388 647 c 0
 402 647 409 636 408 619 c 1
 392 397 l 1
 481 397 l 2
 499 397 508 390 508 377 c 0
 508 363 499 356 481 356 c 2
 390 356 l 1
349 356 m 1
 258 356 l 1
 249 230 l 1
 340 230 l 1
 349 356 l 1
EndSplineSet
EndChar
StartChar: dollar
Encoding: 4 36 15
Width: 600
Flags: W
HStem: -92 185<297 305> 65 133<128 138> 449 114<439 450> 538 117<297 305>
VStem: 113 41<83 108> 136 41<420.392 437> 280 41<-75.5296 55 575 630> 446 41<195 213>
Fore
280 576 m 1
 280 628 l 2
 280 646 287 655 301 655 c 0
 314 655 321 646 321 628 c 2
 321 576 l 1
 366 572 389 562 425 534 c 1
 426 553 433 563 446 563 c 0
 460 563 466 554 466 536 c 2
 466 476 l 2
 466 458 459 449 446 449 c 128
 433 449 427 455 425 471 c 0
 420 507 363 538 302 538 c 0
 233 538 177 491 177 434 c 0
 177 370 237 356 312 342 c 0
 384 328 410 320 438 301 c 0
 469 280 487 244 487 201 c 0
 487 122 423 65 321 54 c 1
 321 -65 l 2
 321 -83 314 -92 301 -92 c 0
 287 -92 280 -83 280 -65 c 2
 280 54 l 1
 234 56 180 79 154 108 c 1
 154 92 l 2
 154 74 147 65 134 65 c 0
 120 65 113 74 113 92 c 2
 113 171 l 2
 113 189 120 198 134 198 c 0
 147 198 152 191 154 173 c 0
 158 130 225 93 299 93 c 0
 384 93 446 138 446 201 c 0
 446 272 386 287 302 303 c 0
 238 315 209 325 183 341 c 1
 154 361 136 397 136 435 c 0
 136 507 196 566 280 576 c 1
EndSplineSet
EndChar
StartChar: percent
Encoding: 5 37 16
Width: 600
Flags: W
HStem: -12 38<358 364> 198 38<348.02 364> 363 38<230 248> 573 38<230 248>
VStem: 115 38<483 501> 239 38<99 117> 322 38<473.186 489> 446 38<99 117>
Fore
361 236 m 0
 430 236 484 181 484 110 c 0
 484 44 428 -12 362 -12 c 0
 294 -12 239 44 239 112 c 128
 239 180 294 236 361 236 c 0
361 198 m 0
 315 198 277 160 277 112 c 0
 277 65 315 26 362 26 c 0
 408 26 446 65 446 111 c 0
 446 160 409 198 361 198 c 0
237 611 m 0
 306 611 360 556 360 486 c 0
 360 419 304 363 238 363 c 0
 170 363 115 419 115 487 c 128
 115 555 170 611 237 611 c 0
237 573 m 0
 191 573 153 534 153 487 c 128
 153 440 191 401 238 401 c 0
 283 401 322 440 322 486 c 0
 322 535 285 573 237 573 c 0
495 344 m 2
 116 222 l 2
 111 220 106 219 104 219 c 0
 96 219 87 228 87 238 c 128
 87 248 92 254 105 258 c 2
 484 380 l 2
 488 381 492 382 496 382 c 0
 505 382 513 373 513 363 c 0
 513 354 508 348 495 344 c 2
EndSplineSet
EndChar
StartChar: ampersand
Encoding: 6 38 17
Width: 600
Flags: W
HStem: -16 41<236.06 254> 0 41<412 458> 478 41<280 298>
VStem: 105 41<127 144> 166 41<385.981 403>
Fore
393 0 m 1
 362 48 l 1
 332 5 296 -16 250 -16 c 0
 172 -16 105 57 105 142 c 0
 105 211 147 266 216 287 c 1
 171 360 166 371 166 400 c 0
 166 465 222 519 289 519 c 0
 312 519 332 513 355 499 c 1
 362 503 373 510 381 510 c 0
 391 510 400 500 400 489 c 0
 400 480 396 475 384 468 c 2
 352 452 l 1
 331 470 312 478 289 478 c 0
 246 478 207 440 207 398 c 0
 207 375 218 350 251 298 c 2
 362 121 l 1
 382 158 398 201 408 249 c 1
 451 249 l 2
 469 249 478 242 478 229 c 0
 478 215 469 208 451 208 c 2
 439 208 l 1
 425 156 406 110 386 82 c 1
 413 41 l 1
 451 41 l 2
 469 41 478 34 478 21 c 0
 478 7 469 0 451 0 c 2
 393 0 l 1
338 86 m 1
 233 251 l 1
 180 239 146 197 146 142 c 0
 146 79 194 25 249 25 c 0
 284 25 316 47 338 86 c 1
EndSplineSet
EndChar
StartChar: quotesingle
Encoding: 7 39 18
Width: 600
Flags: W
HStem: 584 20G<236 364>
Fore
236 604 m 1
 364 604 l 1
 330 351 l 1
 327 326 318 315 300 315 c 128
 282 315 273 326 270 351 c 1
 236 604 l 1
EndSplineSet
EndChar
StartChar: parenleft
Encoding: 8 40 19
Width: 600
Flags: W
VStem: 294 61<211 261>
Fore
438 604 m 0
 449 604 458 595 458 584 c 0
 458 580 457 578 455 573 c 0
 386 451 355 347 355 240 c 0
 355 133 386 31 455 -93 c 0
 457 -98 458 -100 458 -104 c 0
 458 -115 448 -124 437 -124 c 0
 427 -124 418 -114 395 -77 c 0
 327 36 294 140 294 243 c 0
 294 343 333 460 404 570 c 0
 421 597 428 604 438 604 c 0
EndSplineSet
EndChar
StartChar: parenright
Encoding: 9 41 20
Width: 600
Flags: W
VStem: 250 61<211 261>
Fore
168 604 m 0
 178 604 187 595 210 557 c 0
 278 445 311 340 311 237 c 0
 311 137 272 20 201 -90 c 0
 184 -117 177 -124 167 -124 c 0
 156 -124 147 -115 147 -104 c 0
 147 -100 148 -98 150 -93 c 0
 219 29 250 133 250 240 c 0
 250 348 220 448 150 573 c 0
 148 578 147 580 147 584 c 0
 147 595 157 604 168 604 c 0
EndSplineSet
EndChar
StartChar: asterisk
Encoding: 10 42 21
Width: 600
Flags: W
VStem: 279 41<438 587>
Fore
279 438 m 1
 279 577 l 2
 279 595 286 604 300 604 c 0
 313 604 320 595 320 577 c 2
 320 438 l 1
 453 481 l 2
 458 483 465 484 468 484 c 0
 478 484 487 474 487 464 c 0
 487 453 481 447 466 442 c 2
 333 400 l 1
 414 288 l 1
 418 281 421 275 421 270 c 0
 421 259 412 250 401 250 c 0
 393 250 389 253 381 264 c 2
 299 376 l 1
 218 264 l 2
 210 254 205 250 197 250 c 0
 186 250 177 259 177 271 c 0
 177 276 178 278 185 288 c 2
 266 400 l 1
 133 442 l 1
 122 445 113 450 113 463 c 0
 113 474 122 483 133 483 c 0
 137 483 139 482 146 480 c 2
 279 438 l 1
EndSplineSet
EndChar
StartChar: plus
Encoding: 11 43 22
Width: 600
Flags: W
HStem: 261 41<88.4704 279 319 505>
VStem: 279 41<48.4704 261 301 513>
Fore
320 261 m 1
 320 59 l 2
 320 41 313 32 300 32 c 0
 286 32 279 41 279 59 c 2
 279 261 l 1
 99 261 l 2
 81 261 72 268 72 282 c 0
 72 295 81 302 99 302 c 2
 279 302 l 1
 279 503 l 2
 279 521 286 530 300 530 c 0
 313 530 320 521 320 503 c 2
 320 302 l 1
 500 302 l 2
 519 302 528 295 528 282 c 0
 528 268 519 261 500 261 c 2
 320 261 l 1
EndSplineSet
EndChar
StartChar: comma
Encoding: 12 44 23
Width: 600
Flags: W
Fore
207 145 m 1
 340 145 l 1
 195 -120 l 2
 185 -139 177 -145 164 -145 c 0
 148 -145 135 -132 135 -116 c 0
 135 -112 136 -109 137 -105 c 2
 207 145 l 1
EndSplineSet
EndChar
StartChar: hyphen
Encoding: 13 45 24
Width: 600
Flags: W
HStem: 258 41<88.4704 505>
Fore
501 258 m 2
 99 258 l 2
 81 258 72 265 72 279 c 0
 72 292 81 299 99 299 c 2
 501 299 l 2
 519 299 528 292 528 279 c 0
 528 265 519 258 501 258 c 2
EndSplineSet
EndChar
StartChar: period
Encoding: 14 46 25
Width: 600
Flags: W
HStem: -15 21G<295 305>
Fore
295 116 m 2
 305 116 l 2
 344 116 374 88 374 51 c 0
 374 13 344 -15 305 -15 c 2
 295 -15 l 2
 256 -15 226 14 226 51 c 128
 226 88 256 116 295 116 c 2
EndSplineSet
EndChar
StartChar: slash
Encoding: 15 47 26
Width: 600
Flags: W
Fore
482 633 m 2
 155 -63 l 2
 148 -77 143 -81 133 -81 c 128
 123 -81 113 -72 113 -62 c 0
 113 -58 114 -53 118 -46 c 1
 445 650 l 2
 452 664 457 668 467 668 c 128
 477 668 487 659 487 649 c 0
 487 645 486 641 482 633 c 2
EndSplineSet
EndChar
StartChar: zero
Encoding: 16 48 27
Width: 600
Flags: W
HStem: -15 41<288 306> 577 41<288 306>
VStem: 113 41<240 370> 446 41<240 370>
Fore
487 351 m 2
 487 251 l 2
 487 93 411 -15 300 -15 c 128
 189 -15 113 93 113 251 c 2
 113 351 l 2
 113 510 189 618 300 618 c 128
 411 618 487 510 487 351 c 2
154 346 m 2
 154 257 l 2
 154 193 172 125 202 79 c 0
 224 45 258 26 300 26 c 128
 342 26 376 45 398 79 c 0
 428 125 446 193 446 257 c 2
 446 346 l 2
 446 410 428 478 398 524 c 0
 376 558 342 577 300 577 c 128
 258 577 224 558 202 524 c 0
 172 478 154 410 154 346 c 2
EndSplineSet
EndChar
StartChar: one
Encoding: 17 49 28
Width: 600
Flags: W
HStem: 0 41<132 280 320 466>
VStem: 280 41<40 556>
Fore
321 612 m 1
 321 41 l 1
 460 41 l 2
 478 41 487 34 487 21 c 0
 487 7 478 0 460 0 c 2
 141 0 l 2
 123 0 113 7 113 21 c 0
 113 34 122 41 141 41 c 2
 280 41 l 1
 280 557 l 1
 148 515 l 2
 144 514 136 512 134 512 c 0
 125 512 115 522 115 532 c 0
 115 543 120 549 136 554 c 2
 321 612 l 1
EndSplineSet
EndChar
StartChar: two
Encoding: 18 50 29
Width: 600
Flags: W
HStem: 0 41<123 437> 0 104<451 460> 577 41<275 292>
VStem: 433 41<431 454>
Fore
123 41 m 1
 437 41 l 1
 437 77 l 2
 437 95 444 104 458 104 c 0
 471 104 478 95 478 77 c 2
 478 0 l 1
 84 0 l 1
 84 60 l 1
 320 282 l 2
 414 374 433 402 433 447 c 0
 433 516 366 577 290 577 c 0
 222 577 160 532 144 472 c 0
 140 458 134 452 123 452 c 0
 113 452 104 461 104 470 c 0
 104 488 117 518 136 542 c 0
 173 590 229 618 290 618 c 0
 388 618 474 537 474 446 c 0
 474 387 454 358 330 237 c 0
 243 151 180 92 123 44 c 1
 123 41 l 1
EndSplineSet
EndChar
StartChar: three
Encoding: 19 51 30
Width: 600
Flags: W
HStem: -15 41<271 304> 312 41<271 300> 577 41<278 304>
VStem: 436 41<449.255 466> 458 41<160 178>
Fore
374 328 m 1
 452 296 499 236 499 168 c 0
 499 67 405 -15 290 -15 c 0
 241 -15 194 -2 142 26 c 0
 109 43 96 56 96 69 c 0
 96 79 105 88 115 88 c 0
 121 88 125 86 132 81 c 0
 179 45 235 26 291 26 c 0
 382 26 458 91 458 168 c 0
 458 246 376 312 279 312 c 0
 261 312 252 319 252 333 c 0
 252 346 262 353 279 353 c 0
 329 353 345 354 366 364 c 0
 408 382 436 421 436 463 c 0
 436 528 377 577 300 577 c 0
 244 577 195 557 166 523 c 0
 156 511 153 509 145 509 c 0
 134 509 125 518 125 528 c 128
 125 538 139 556 160 572 c 0
 199 602 249 618 301 618 c 0
 401 618 477 551 477 464 c 0
 477 407 439 355 379 330 c 0
 378 330 376 329 374 328 c 1
EndSplineSet
EndChar
StartChar: four
Encoding: 20 52 31
Width: 600
Flags: W
HStem: 0 41<296 376 417 458> 169 41<144 376 417 458> 543 20G<352 376> 584 20G<333 417>
VStem: 376 41<40 169 210 563>
Fore
376 169 m 1
 105 169 l 1
 105 216 l 1
 333 604 l 1
 417 604 l 1
 417 210 l 1
 451 210 l 2
 469 210 478 203 478 189 c 0
 478 176 469 169 451 169 c 2
 417 169 l 1
 417 41 l 1
 451 41 l 2
 469 41 478 34 478 21 c 0
 478 7 469 0 451 0 c 2
 300 0 l 2
 282 0 273 7 273 21 c 0
 273 34 282 41 300 41 c 2
 376 41 l 1
 376 169 l 1
376 210 m 1
 376 563 l 1
 352 563 l 1
 144 210 l 1
 376 210 l 1
EndSplineSet
EndChar
StartChar: five
Encoding: 21 53 32
Width: 600
Flags: W
HStem: -15 41<287 305> 354 41<303 325> 563 41<190 433>
VStem: 149 41<365 564> 458 41<192 210>
Fore
190 563 m 1
 190 365 l 1
 241 386 278 395 322 395 c 0
 424 395 499 313 499 201 c 0
 499 75 414 -15 295 -15 c 0
 242 -15 192 1 142 34 c 0
 110 55 96 70 96 82 c 0
 96 93 105 102 116 102 c 0
 122 102 126 100 133 93 c 0
 181 49 235 26 293 26 c 0
 391 26 458 98 458 203 c 0
 458 292 400 354 316 354 c 0
 276 354 232 343 190 321 c 0
 178 315 173 313 168 313 c 0
 157 313 149 322 149 335 c 2
 149 604 l 1
 431 604 l 2
 450 604 459 597 459 584 c 0
 459 570 450 563 431 563 c 2
 190 563 l 1
EndSplineSet
EndChar
StartChar: six
Encoding: 22 54 33
Width: 600
Flags: W
HStem: -15 41<327 345> 323 41<327 345> 577 41<407 441>
VStem: 136 39<264 306> 469 41<160 194>
Fore
177 242 m 1
 218 324 272 364 343 364 c 0
 434 364 510 280 510 178 c 0
 510 70 434 -15 337 -15 c 0
 219 -15 136 107 136 282 c 0
 136 398 171 484 245 547 c 0
 298 593 363 618 428 618 c 0
 471 618 507 602 507 583 c 0
 507 572 499 563 488 563 c 0
 483 563 479 564 471 569 c 0
 461 574 443 577 424 577 c 0
 348 577 269 530 220 455 c 0
 192 411 175 349 175 285 c 0
 175 276 176 261 177 242 c 1
183 188 m 1
 210 84 256 26 338 26 c 0
 412 26 469 92 469 178 c 0
 469 257 412 323 342 323 c 0
 305 323 265 302 233 266 c 0
 218 250 207 232 183 188 c 1
EndSplineSet
EndChar
StartChar: seven
Encoding: 23 55 34
Width: 600
Flags: W
HStem: 563 41<145 437>
VStem: 105 41<516.96 563>
Fore
437 545 m 1
 437 563 l 1
 146 563 l 1
 146 528 l 2
 146 509 139 500 126 500 c 0
 112 500 105 509 105 528 c 2
 105 604 l 1
 478 604 l 1
 478 539 l 1
 315 20 l 2
 310 4 305 -1 295 -1 c 0
 284 -1 275 8 275 19 c 0
 275 22 276 28 277 32 c 2
 437 545 l 1
EndSplineSet
EndChar
StartChar: eight
Encoding: 24 56 35
Width: 600
Flags: W
HStem: -15 41<288 306> 293 40<288 306> 577 41<288 306>
VStem: 113 41<144 164> 123 41<436.238 466> 436 41<435.686 466> 446 41<144 164>
Fore
375 313 m 1
 448 280 487 227 487 161 c 0
 487 64 403 -15 300 -15 c 128
 197 -15 113 64 113 161 c 0
 113 227 152 279 225 313 c 1
 155 349 123 392 123 453 c 0
 123 543 204 618 300 618 c 128
 396 618 477 543 477 453 c 0
 477 392 446 349 375 313 c 1
300 577 m 0
 224 577 164 521 164 451 c 0
 164 385 224 333 300 333 c 0
 375 333 436 385 436 450 c 0
 436 521 376 577 300 577 c 0
300 293 m 0
 218 293 154 235 154 161 c 0
 154 86 219 26 300 26 c 0
 380 26 446 86 446 160 c 0
 446 236 383 293 300 293 c 0
EndSplineSet
EndChar
StartChar: nine
Encoding: 25 57 36
Width: 600
Flags: W
HStem: -15 41<215 233> 239 41<295 313> 577 41<295 313>
VStem: 136 41<413 434> 471 39<304 339>
Fore
469 361 m 1
 428 279 374 239 303 239 c 0
 212 239 136 323 136 425 c 0
 136 533 212 618 309 618 c 0
 427 618 510 496 510 321 c 0
 510 205 475 119 401 56 c 0
 348 10 283 -15 218 -15 c 0
 175 -15 139 1 139 20 c 0
 139 31 147 40 158 40 c 0
 163 40 167 39 175 34 c 0
 185 29 203 26 222 26 c 0
 298 26 377 73 426 148 c 0
 454 192 471 254 471 318 c 0
 471 327 470 342 469 361 c 1
463 415 m 1
 436 519 390 577 308 577 c 0
 234 577 177 511 177 425 c 0
 177 346 234 280 304 280 c 0
 341 280 381 301 413 337 c 0
 428 353 439 371 463 415 c 1
EndSplineSet
EndChar
StartChar: colon
Encoding: 26 58 37
Width: 600
Flags: W
HStem: -15 131<289 307> 285 132<289 307>
Fore
295 116 m 2
 305 116 l 2
 344 116 374 88 374 51 c 0
 374 13 344 -15 305 -15 c 2
 295 -15 l 2
 256 -15 226 14 226 51 c 128
 226 88 256 116 295 116 c 2
295 417 m 2
 305 417 l 2
 344 417 374 388 374 351 c 128
 374 314 344 285 305 285 c 2
 295 285 l 2
 256 285 226 314 226 351 c 128
 226 388 256 417 295 417 c 2
EndSplineSet
EndChar
StartChar: semicolon
Encoding: 27 59 38
Width: 600
Flags: W
HStem: 285 132<266 283>
Fore
211 145 m 1
 344 145 l 1
 199 -120 l 2
 189 -139 181 -145 168 -145 c 0
 152 -145 139 -132 139 -116 c 0
 139 -112 140 -109 141 -105 c 2
 211 145 l 1
271 417 m 2
 281 417 l 2
 320 417 350 388 350 351 c 128
 350 314 320 285 281 285 c 2
 271 285 l 2
 232 285 202 314 202 351 c 128
 202 388 232 417 271 417 c 2
EndSplineSet
EndChar
StartChar: less
Encoding: 28 60 39
Width: 600
Flags: W
Fore
72 281 m 1
 490 513 l 2
 495 516 499 518 502 518 c 0
 512 518 522 506 522 496 c 0
 522 488 518 483 509 478 c 2
 154 281 l 1
 509 84 l 2
 518 79 522 73 522 67 c 0
 522 64 521 60 519 57 c 2
 517 54 l 2
 514 48 508 44 502 44 c 0
 499 44 494 46 489 49 c 2
 72 281 l 1
EndSplineSet
EndChar
StartChar: equal
Encoding: 29 61 40
Width: 600
Flags: W
HStem: 190 41<67.4704 532> 334 41<67.4704 532>
Fore
522 334 m 2
 78 334 l 2
 60 334 51 341 51 355 c 0
 51 368 60 375 78 375 c 2
 522 375 l 2
 540 375 549 368 549 355 c 0
 549 341 540 334 522 334 c 2
522 190 m 2
 78 190 l 2
 60 190 51 197 51 211 c 0
 51 224 60 231 78 231 c 2
 522 231 l 2
 540 231 549 224 549 211 c 0
 549 197 540 190 522 190 c 2
EndSplineSet
EndChar
StartChar: greater
Encoding: 30 62 41
Width: 600
Flags: W
Fore
528 281 m 1
 110 49 l 2
 105 46 101 44 98 44 c 0
 87 44 78 56 78 67 c 0
 78 74 82 79 91 84 c 2
 446 281 l 1
 91 478 l 2
 82 483 78 489 78 496 c 0
 78 499 79 502 81 505 c 2
 83 508 l 2
 86 514 92 518 98 518 c 0
 101 518 106 516 111 513 c 2
 528 281 l 1
EndSplineSet
EndChar
StartChar: question
Encoding: 31 63 42
Width: 600
Flags: W
HStem: -15 100<277 327> 536 41<280 324>
VStem: 134 41<450.47 502> 281 41<195.47 247> 446 41<416 436>
Fore
322 247 m 1
 322 206 l 2
 322 188 315 179 302 179 c 0
 288 179 281 188 281 206 c 2
 281 274 l 1
 397 323 446 366 446 423 c 0
 446 489 387 536 304 536 c 0
 259 536 227 528 175 502 c 1
 175 461 l 2
 175 443 168 434 155 434 c 0
 141 434 134 443 134 461 c 2
 134 529 l 1
 143 532 155 538 163 541 c 0
 226 569 258 577 309 577 c 0
 415 577 487 515 487 423 c 0
 487 349 447 306 322 247 c 1
287 85 m 2
 314 85 l 2
 348 85 371 65 371 35 c 0
 371 6 348 -15 314 -15 c 2
 287 -15 l 2
 253 -15 230 5 230 35 c 128
 230 65 253 85 287 85 c 2
EndSplineSet
EndChar
StartChar: at
Encoding: 32 64 43
Width: 600
Flags: W
HStem: -62 41<296 314> 147 41<376 394> 376 40<408 418> 583 41<296 314>
VStem: 105 41<177 387> 242 41<259.474 275> 418 41<191 376 415 467>
Fore
418 145 m 1
 418 150 l 1
 398 148 388 147 378 147 c 0
 300 147 242 201 242 272 c 0
 242 356 316 417 418 416 c 1
 418 463 l 2
 418 533 369 583 301 583 c 0
 210 583 146 490 146 358 c 2
 146 198 l 2
 146 138 163 81 193 36 c 0
 220 -3 255 -21 305 -21 c 0
 348 -21 389 -9 410 9 c 0
 421 19 422 20 429 20 c 0
 440 20 449 11 449 1 c 0
 449 -30 373 -62 299 -62 c 0
 239 -62 195 -38 159 13 c 0
 123 65 105 127 105 198 c 2
 105 361 l 2
 105 513 187 624 300 624 c 0
 391 624 459 555 459 463 c 2
 459 186 l 1
 471 184 478 177 478 166 c 0
 478 152 469 145 451 145 c 2
 418 145 l 1
418 192 m 1
 418 376 l 1
 340 376 283 333 283 273 c 0
 283 223 323 188 381 188 c 0
 392 188 406 189 418 192 c 1
EndSplineSet
EndChar
StartChar: A
Encoding: 33 65 44
Width: 600
Flags: W
HStem: 0 41<25.4704 67 108 190 397.47 484 526 570> 188 41<178 413> 522 41<120 246 285 301>
VStem: 9 205<15 23> 381 210<15 23>
Fore
428 188 m 1
 162 188 l 1
 108 41 l 1
 187 41 l 2
 205 41 214 34 214 21 c 0
 214 7 205 0 187 0 c 2
 36 0 l 2
 18 0 9 7 9 21 c 0
 9 34 18 41 36 41 c 2
 67 41 l 1
 246 522 l 1
 126 522 l 2
 108 522 99 529 99 543 c 0
 99 556 108 563 126 563 c 2
 330 563 l 1
 527 41 l 1
 564 41 l 2
 582 41 591 34 591 21 c 0
 591 7 582 0 564 0 c 2
 408 0 l 2
 390 0 381 7 381 21 c 0
 381 34 390 41 408 41 c 2
 484 41 l 1
 428 188 l 1
413 229 m 1
 301 522 l 1
 286 522 l 1
 178 229 l 1
 413 229 l 1
EndSplineSet
EndChar
StartChar: B
Encoding: 34 66 45
Width: 600
Flags: W
HStem: 0 41<59.4704 124 165 379> 272 41<165 332> 522 41<59.4704 124 165 348>
VStem: 124 41<41 272 313 522> 458 41<415 433> 500 41<143 161>
Fore
124 41 m 1
 124 522 l 1
 70 522 l 2
 52 522 43 529 43 543 c 0
 43 556 52 563 70 563 c 2
 328 563 l 2
 425 563 499 500 499 418 c 0
 499 367 473 330 414 298 c 1
 498 268 541 220 541 153 c 0
 541 69 467 0 376 0 c 2
 70 0 l 2
 52 0 43 7 43 21 c 0
 43 34 52 41 70 41 c 2
 124 41 l 1
165 313 m 1
 312 313 l 2
 397 313 458 357 458 419 c 0
 458 477 402 522 329 522 c 2
 165 522 l 1
 165 313 l 1
165 41 m 1
 373 41 l 2
 444 41 500 91 500 153 c 0
 500 189 478 224 441 246 c 0
 409 265 375 272 314 272 c 2
 165 272 l 1
 165 41 l 1
EndSplineSet
EndChar
StartChar: C
Encoding: 35 67 46
Width: 600
Flags: W
HStem: -16 41<302 336> 535 41<286 324>
VStem: 63 41<239 337>
Fore
478 507 m 1
 478 536 l 2
 478 554 485 563 499 563 c 0
 512 563 519 554 519 536 c 2
 519 424 l 2
 519 406 512 397 498 397 c 0
 486 397 479 405 478 421 c 0
 474 482 394 535 305 535 c 0
 194 535 104 438 104 319 c 2
 104 248 l 2
 104 128 204 25 322 25 c 0
 391 25 442 51 496 115 c 0
 503 123 507 125 514 125 c 0
 526 125 534 117 534 106 c 0
 534 96 522 79 496 55 c 0
 447 9 386 -16 322 -16 c 0
 186 -16 63 107 63 242 c 2
 63 325 l 2
 63 386 91 456 134 502 c 0
 179 550 238 576 305 576 c 0
 371 576 431 552 478 507 c 1
EndSplineSet
EndChar
StartChar: D
Encoding: 36 68 47
Width: 600
Flags: W
HStem: 0 41<59.4704 104 145 300> 522 41<59.4704 104 145 300>
VStem: 104 41<41 522> 479 41<239 320>
Fore
104 41 m 1
 104 522 l 1
 70 522 l 2
 52 522 43 529 43 543 c 0
 43 556 52 563 70 563 c 2
 290 563 l 2
 419 563 520 451 520 310 c 2
 520 254 l 2
 520 112 419 0 290 0 c 2
 70 0 l 2
 52 0 43 7 43 21 c 0
 43 34 52 41 70 41 c 2
 104 41 l 1
145 41 m 1
 295 41 l 2
 391 41 479 139 479 245 c 2
 479 318 l 2
 479 371 454 431 414 472 c 0
 379 507 342 522 288 522 c 2
 145 522 l 1
 145 41 l 1
EndSplineSet
EndChar
StartChar: E
Encoding: 37 69 48
Width: 600
Flags: W
HStem: 0 41<59.4704 124 165 480> 0 187<497 503> 272 41<165 310> 522 41<59.4704 124 165 458>
VStem: 124 41<41 272 313 522> 310 41<223 272 313 369> 458 41<415 522> 479 41<41 162>
Fore
165 272 m 1
 165 41 l 1
 479 41 l 1
 479 160 l 2
 479 178 486 187 500 187 c 0
 513 187 520 178 520 160 c 2
 520 0 l 1
 70 0 l 2
 52 0 43 7 43 21 c 0
 43 34 52 41 70 41 c 2
 124 41 l 1
 124 522 l 1
 70 522 l 2
 52 522 43 529 43 543 c 0
 43 556 52 563 70 563 c 2
 499 563 l 1
 499 424 l 2
 499 406 492 397 478 397 c 0
 465 397 458 406 458 424 c 2
 458 522 l 1
 165 522 l 1
 165 313 l 1
 310 313 l 1
 310 358 l 2
 310 376 317 385 331 385 c 0
 344 385 351 376 351 358 c 2
 351 227 l 2
 351 209 344 200 331 200 c 0
 317 200 310 209 310 227 c 2
 310 272 l 1
 165 272 l 1
EndSplineSet
EndChar
StartChar: F
Encoding: 38 70 49
Width: 600
Flags: W
HStem: 0 41<59.4704 124 165 312> 272 41<165 310> 522 41<59.4704 124 165 479>
VStem: 124 41<40 272 313 522> 310 41<223 272 313 369> 479 41<415 522>
Fore
165 272 m 1
 165 41 l 1
 303 41 l 2
 322 41 331 34 331 21 c 0
 331 7 321 0 303 0 c 2
 70 0 l 2
 52 0 43 7 43 21 c 0
 43 34 52 41 70 41 c 2
 124 41 l 1
 124 522 l 1
 70 522 l 2
 52 522 43 529 43 543 c 0
 43 556 52 563 70 563 c 2
 520 563 l 1
 520 424 l 2
 520 406 513 397 499 397 c 0
 486 397 479 406 479 424 c 2
 479 522 l 1
 165 522 l 1
 165 313 l 1
 310 313 l 1
 310 358 l 2
 310 376 317 385 330 385 c 0
 344 385 351 376 351 358 c 2
 351 227 l 2
 351 209 344 200 330 200 c 0
 317 200 310 209 310 227 c 2
 310 272 l 1
 165 272 l 1
EndSplineSet
EndChar
StartChar: G
Encoding: 39 71 50
Width: 600
Flags: W
HStem: -16 41<311 352> 209 41<331 479 519 544> 418 145<494 502> 535 41<302 339>
VStem: 63 41<223 337> 479 41<58 209 522 545>
Fore
520 209 m 1
 520 36 l 1
 461 2 395 -16 333 -16 c 0
 169 -16 63 86 63 244 c 2
 63 318 l 2
 63 389 94 463 144 511 c 0
 189 553 247 576 313 576 c 128
 379 576 434 558 479 522 c 1
 479 536 l 2
 479 554 486 563 500 563 c 128
 514 563 520 555 520 536 c 2
 520 445 l 2
 520 427 513 418 500 418 c 128
 487 418 481 426 480 443 c 0
 476 494 404 535 315 535 c 0
 259 535 214 518 176 481 c 0
 132 440 104 376 104 317 c 2
 104 244 l 2
 104 108 192 25 336 25 c 0
 388 25 423 33 479 59 c 1
 479 209 l 1
 340 209 l 2
 322 209 313 216 313 230 c 0
 313 243 322 250 340 250 c 2
 534 250 l 2
 553 250 562 243 562 230 c 0
 562 216 553 209 534 209 c 2
 520 209 l 1
EndSplineSet
EndChar
StartChar: H
Encoding: 40 72 51
Width: 600
Flags: W
HStem: 0 41<72 126 167 230 372 437 478 534> 272 41<167 437> 522 41<90.4704 126 167 230 372 437 478 506>
VStem: 126 41<40 272 313 522> 437 41<40 272 313 522>
Fore
437 272 m 1
 167 272 l 1
 167 41 l 1
 221 41 l 2
 239 41 248 34 248 21 c 0
 248 7 239 0 221 0 c 2
 81 0 l 2
 63 0 53 7 53 21 c 0
 53 34 62 41 81 41 c 2
 126 41 l 1
 126 522 l 1
 101 522 l 2
 83 522 74 529 74 543 c 0
 74 556 83 563 101 563 c 2
 221 563 l 2
 239 563 248 556 248 543 c 0
 248 529 239 522 221 522 c 2
 167 522 l 1
 167 313 l 1
 437 313 l 1
 437 522 l 1
 383 522 l 2
 365 522 356 529 356 543 c 0
 356 556 365 563 383 563 c 2
 503 563 l 2
 521 563 530 556 530 543 c 0
 530 529 521 522 503 522 c 2
 478 522 l 1
 478 41 l 1
 524 41 l 2
 542 41 551 34 551 21 c 0
 551 7 541 0 524 0 c 2
 383 0 l 2
 365 0 356 7 356 21 c 0
 356 34 365 41 383 41 c 2
 437 41 l 1
 437 272 l 1
EndSplineSet
EndChar
StartChar: I
Encoding: 41 73 52
Width: 600
Flags: W
HStem: 0 41<129.47 279 320 466> 522 41<129.47 279 320 466>
VStem: 279 41<40 522>
Fore
320 522 m 1
 320 41 l 1
 459 41 l 2
 478 41 487 34 487 21 c 0
 487 7 477 0 459 0 c 2
 140 0 l 2
 122 0 113 7 113 21 c 0
 113 34 122 41 140 41 c 2
 279 41 l 1
 279 522 l 1
 140 522 l 2
 122 522 113 529 113 543 c 0
 113 556 122 563 140 563 c 2
 459 563 l 2
 478 563 487 556 487 543 c 0
 487 529 478 522 459 522 c 2
 320 522 l 1
EndSplineSet
EndChar
StartChar: J
Encoding: 42 74 53
Width: 600
Flags: W
HStem: -16 41<258 276> 522 41<249.47 419 459 565>
VStem: 84 41<92 225> 419 41<159 522>
Fore
460 522 m 1
 460 165 l 2
 460 66 375 -16 272 -16 c 0
 208 -16 156 9 84 74 c 1
 84 223 l 2
 84 241 91 250 105 250 c 0
 118 250 125 241 125 223 c 2
 125 93 l 1
 176 47 223 25 273 25 c 0
 354 25 419 87 419 165 c 2
 419 522 l 1
 260 522 l 2
 242 522 233 529 233 543 c 0
 233 556 242 563 260 563 c 2
 556 563 l 2
 574 563 583 556 583 543 c 0
 583 529 574 522 556 522 c 2
 460 522 l 1
EndSplineSet
EndChar
StartChar: K
Encoding: 43 75 54
Width: 600
Flags: W
HStem: 0 41<59.4704 124 165 248 488 556> 522 41<59.4704 124 165 248 394 444 501 524>
VStem: 124 41<40 221 273 522> 372 174<541 545>
Fore
165 221 m 1
 165 41 l 1
 240 41 l 2
 258 41 267 34 267 21 c 0
 267 7 258 0 240 0 c 2
 70 0 l 2
 52 0 43 7 43 21 c 0
 43 34 52 41 70 41 c 2
 124 41 l 1
 124 522 l 1
 70 522 l 2
 52 522 43 529 43 543 c 0
 43 556 52 563 70 563 c 2
 240 563 l 2
 258 563 267 556 267 543 c 0
 267 529 258 522 240 522 c 2
 165 522 l 1
 165 273 l 1
 445 522 l 1
 400 522 l 2
 381 522 372 529 372 543 c 0
 372 556 381 563 400 563 c 2
 518 563 l 2
 537 563 546 556 546 543 c 0
 546 529 537 522 518 522 c 2
 502 522 l 1
 280 324 l 1
 377 284 414 233 489 41 c 1
 545 41 l 2
 563 41 572 34 572 21 c 0
 572 7 563 0 545 0 c 2
 458 0 l 1
 385 203 341 263 246 294 c 1
 165 221 l 1
EndSplineSet
EndChar
StartChar: L
Encoding: 44 76 55
Width: 600
Flags: W
HStem: 0 41<79.4704 186 227 500> 522 41<79.4704 186 227 325>
VStem: 186 41<41 522> 500 41<41 209>
Fore
227 522 m 1
 227 41 l 1
 500 41 l 1
 500 201 l 2
 500 219 507 228 521 228 c 0
 534 228 541 219 541 201 c 2
 541 0 l 1
 90 0 l 2
 72 0 63 7 63 21 c 0
 63 34 72 41 90 41 c 2
 186 41 l 1
 186 522 l 1
 90 522 l 2
 72 522 63 529 63 543 c 0
 63 556 72 563 90 563 c 2
 323 563 l 2
 341 563 350 556 350 543 c 0
 350 529 341 522 323 522 c 2
 227 522 l 1
EndSplineSet
EndChar
StartChar: M
Encoding: 45 77 56
Width: 600
Flags: W
HStem: 0 41<27.4704 72 113 189 410 491 532 572> 522 41<36 72 113 121 482 491 532 568>
VStem: 72 41<40 522> 491 41<40 522>
Fore
326 169 m 1
 280 169 l 1
 121 522 l 1
 113 522 l 1
 113 41 l 1
 187 41 l 2
 206 41 215 34 215 21 c 0
 215 7 205 0 187 0 c 2
 38 0 l 2
 20 0 11 7 11 21 c 0
 11 34 20 41 38 41 c 2
 72 41 l 1
 72 522 l 1
 47 522 l 2
 29 522 20 529 20 543 c 0
 20 556 29 563 47 563 c 2
 146 563 l 1
 303 215 l 1
 457 563 l 1
 557 563 l 2
 575 563 584 556 584 543 c 0
 584 529 575 522 557 522 c 2
 532 522 l 1
 532 41 l 1
 566 41 l 2
 584 41 593 34 593 21 c 0
 593 7 584 0 566 0 c 2
 417 0 l 2
 399 0 390 7 390 21 c 0
 390 34 399 41 417 41 c 2
 491 41 l 1
 491 522 l 1
 483 522 l 1
 326 169 l 1
EndSplineSet
EndChar
StartChar: N
Encoding: 46 78 57
Width: 600
Flags: W
HStem: 0 41<58.4704 103 144 221> 522 41<40 103 374.96 460 501 537>
VStem: 103 41<40 504> 460 41<59 522>
Fore
501 0 m 1
 449 0 l 1
 144 504 l 1
 144 41 l 1
 219 41 l 2
 237 41 246 34 246 21 c 0
 246 7 236 0 219 0 c 2
 69 0 l 2
 51 0 42 7 42 21 c 0
 42 34 51 41 69 41 c 2
 103 41 l 1
 103 522 l 1
 49 522 l 2
 31 522 22 529 22 543 c 0
 22 556 31 563 49 563 c 2
 155 563 l 1
 460 59 l 1
 460 522 l 1
 386 522 l 2
 367 522 358 529 358 543 c 0
 358 556 367 563 386 563 c 2
 535 563 l 2
 553 563 562 556 562 543 c 0
 562 529 553 522 535 522 c 2
 501 522 l 1
 501 0 l 1
EndSplineSet
EndChar
StartChar: O
Encoding: 47 79 58
Width: 600
Flags: W
HStem: -16 41<290 308> 535 41<290 308>
VStem: 51 41<255 305> 508 41<255 289>
Fore
300 576 m 0
 441 576 549 446 549 276 c 0
 549 115 437 -16 300 -16 c 0
 161 -16 51 115 51 280 c 128
 51 445 161 576 300 576 c 0
300 535 m 0
 185 535 92 420 92 280 c 128
 92 140 186 25 300 25 c 0
 413 25 508 140 508 277 c 0
 508 421 416 535 300 535 c 0
EndSplineSet
EndChar
StartChar: P
Encoding: 48 80 59
Width: 600
Flags: W
HStem: 0 41<59.4704 124 165 314> 231 41<165 316> 522 41<59.4704 124 165 331>
VStem: 124 41<40 231 272 522> 458 41<383 400>
Fore
165 231 m 1
 165 41 l 1
 303 41 l 2
 322 41 331 34 331 21 c 0
 331 7 321 0 303 0 c 2
 70 0 l 2
 52 0 43 7 43 21 c 0
 43 34 52 41 70 41 c 2
 124 41 l 1
 124 522 l 1
 70 522 l 2
 52 522 43 529 43 543 c 0
 43 556 52 563 70 563 c 2
 310 563 l 2
 416 563 499 491 499 398 c 0
 499 305 410 231 296 231 c 2
 165 231 l 1
165 272 m 1
 299 272 l 2
 386 272 458 329 458 398 c 0
 458 466 393 522 314 522 c 2
 165 522 l 1
 165 272 l 1
EndSplineSet
EndChar
StartChar: Q
Encoding: 49 81 60
Width: 600
Flags: W
HStem: -115 41<434 452> -89 41<298 340> 535 41<290 318>
VStem: 51 41<268 302> 508 41<252 302>
Fore
305 -16 m 1
 251 -56 l 1
 281 -50 297 -48 318 -48 c 0
 347 -48 370 -52 400 -63 c 0
 424 -72 432 -74 445 -74 c 0
 466 -74 483 -67 514 -47 c 0
 518 -44 522 -43 526 -43 c 0
 537 -43 546 -52 546 -64 c 0
 546 -84 484 -115 442 -115 c 0
 426 -115 415 -112 386 -102 c 0
 359 -92 343 -89 318 -89 c 0
 288 -89 221 -100 178 -112 c 0
 174 -113 171 -114 168 -114 c 0
 157 -114 148 -105 148 -93 c 0
 148 -86 152 -80 159 -75 c 2
 249 -10 l 1
 135 15 51 139 51 280 c 0
 51 445 161 576 300 576 c 128
 439 576 549 445 549 280 c 0
 549 116 443 -12 305 -16 c 1
300 535 m 0
 185 535 92 420 92 280 c 128
 92 140 186 25 300 25 c 0
 413 25 508 140 508 277 c 0
 508 421 416 535 300 535 c 0
EndSplineSet
EndChar
StartChar: R
Encoding: 50 82 61
Width: 600
Flags: W
HStem: 0 41<59.4704 124 165 242 530 572> 251 41<165 297> 522 41<59.4704 124 165 332>
VStem: 124 41<40 251 292 522> 457 41<399 417>
Fore
165 251 m 1
 165 41 l 1
 240 41 l 2
 258 41 267 34 267 21 c 0
 267 7 258 0 240 0 c 2
 70 0 l 2
 52 0 43 7 43 21 c 0
 43 34 52 41 70 41 c 2
 124 41 l 1
 124 522 l 1
 70 522 l 2
 52 522 43 529 43 543 c 0
 43 556 52 563 70 563 c 2
 318 563 l 2
 415 563 498 491 498 407 c 0
 498 342 452 294 359 262 c 1
 422 219 450 182 531 41 c 1
 562 41 l 2
 580 41 589 34 589 21 c 0
 589 7 580 0 562 0 c 2
 505 0 l 1
 417 162 373 216 297 251 c 1
 165 251 l 1
165 292 m 1
 279 292 l 2
 377 292 457 344 457 408 c 0
 457 468 390 522 318 522 c 2
 165 522 l 1
 165 292 l 1
EndSplineSet
EndChar
StartChar: S
Encoding: 51 83 62
Width: 600
Flags: W
HStem: -16 41<283 317> 0 166<107 118> 406 157<459 468> 535 41<283 317>
VStem: 92 41<23 56> 115 44<404 434> 464 44<137 168>
Fore
445 517 m 1
 445 536 l 2
 445 554 452 563 466 563 c 0
 479 563 486 554 486 536 c 2
 486 433 l 2
 486 415 479 406 466 406 c 128
 453 406 446 414 445 430 c 0
 441 490 380 535 302 535 c 0
 220 535 159 486 159 420 c 0
 159 344 225 323 311 309 c 0
 388 296 416 288 446 269 c 0
 485 245 508 202 508 151 c 0
 508 54 422 -16 302 -16 c 0
 233 -16 174 9 133 56 c 1
 133 27 l 2
 133 9 126 0 112 0 c 0
 99 0 92 9 92 27 c 2
 92 139 l 2
 92 157 99 166 113 166 c 0
 126 166 132 158 133 142 c 0
 136 76 210 25 301 25 c 0
 394 25 464 79 464 153 c 0
 464 188 447 220 419 237 c 0
 395 253 374 259 303 271 c 0
 233 283 197 295 167 317 c 0
 134 340 115 379 115 421 c 0
 115 509 194 576 299 576 c 0
 358 576 403 558 445 517 c 1
EndSplineSet
EndChar
StartChar: T
Encoding: 52 84 63
Width: 600
Flags: W
HStem: 0 41<167 280 321 429> 522 41<112 280 321 487>
VStem: 72 41<438.47 522> 280 41<40 522> 487 41<440.137 522>
Fore
321 41 m 1
 426 41 l 2
 444 41 453 34 453 21 c 0
 453 7 444 0 426 0 c 2
 175 0 l 2
 157 0 148 7 148 21 c 0
 148 34 157 41 175 41 c 2
 280 41 l 1
 280 522 l 1
 113 522 l 1
 113 449 l 2
 113 431 106 422 92 422 c 0
 79 422 72 431 72 449 c 2
 72 563 l 1
 528 563 l 1
 528 449 l 2
 528 430 522 422 508 422 c 0
 496 422 487 433 487 449 c 2
 487 522 l 1
 321 522 l 1
 321 41 l 1
EndSplineSet
EndChar
StartChar: U
Encoding: 53 85 64
Width: 600
Flags: W
HStem: -16 41<281.41 313> 522 41<56.4704 101 142 218 375 457 498 537>
VStem: 101 41<175 522> 458 41<175 522>
Fore
499 522 m 1
 499 185 l 2
 499 71 412 -16 300 -16 c 0
 187 -16 101 71 101 185 c 2
 101 522 l 1
 67 522 l 2
 49 522 40 529 40 543 c 128
 40 557 49 563 67 563 c 2
 216 563 l 2
 234 563 243 556 243 543 c 0
 243 529 234 522 216 522 c 2
 142 522 l 1
 142 185 l 2
 142 95 211 25 300 25 c 0
 388 25 458 95 458 185 c 2
 458 522 l 1
 384 522 l 2
 366 522 357 529 357 543 c 128
 357 557 365 563 384 563 c 2
 533 563 l 2
 552 563 560 557 560 543 c 128
 560 529 551 522 533 522 c 2
 499 522 l 1
EndSplineSet
EndChar
StartChar: V
Encoding: 54 86 65
Width: 600
Flags: W
HStem: 0 21G<267 324> 522 41<25.4704 67 110 190 408 492 532 570>
VStem: 9 205<541 545> 387 204<541 545>
Fore
267 0 m 1
 67 522 l 1
 36 522 l 2
 18 522 9 529 9 543 c 128
 9 557 18 563 36 563 c 2
 187 563 l 2
 205 563 214 557 214 543 c 128
 214 529 205 522 187 522 c 2
 110 522 l 1
 296 41 l 1
 299 41 l 1
 492 522 l 1
 414 522 l 2
 396 522 387 529 387 543 c 0
 387 556 395 563 414 563 c 2
 564 563 l 2
 582 563 591 557 591 543 c 0
 591 529 582 522 564 522 c 2
 533 522 l 1
 324 0 l 1
 267 0 l 1
EndSplineSet
EndChar
StartChar: W
Encoding: 55 87 66
Width: 600
Flags: W
HStem: 0 21G<122 185 412 476> 522 41<36.4704 62 103 198 392.47 499 537 555>
VStem: 20 204<541 545> 376 204<541 545>
Fore
122 0 m 1
 62 522 l 1
 47 522 l 2
 29 522 20 529 20 543 c 0
 20 556 29 563 47 563 c 2
 196 563 l 2
 215 563 224 556 224 543 c 0
 224 529 215 522 196 522 c 2
 103 522 l 1
 159 46 l 1
 271 438 l 1
 333 438 l 1
 442 46 l 1
 499 522 l 1
 403 522 l 2
 385 522 376 529 376 543 c 0
 376 556 385 563 403 563 c 2
 553 563 l 2
 571 563 580 556 580 543 c 0
 580 529 571 522 553 522 c 2
 538 522 l 1
 476 0 l 1
 412 0 l 1
 300 400 l 1
 185 0 l 1
 122 0 l 1
EndSplineSet
EndChar
StartChar: X
Encoding: 56 88 67
Width: 600
Flags: W
HStem: 0 41<56.4704 84 134 200 391 463 515 537> 522 41<67 93 145 198 399 453 503 522>
VStem: 40 185<15 23> 51 164<541 545> 374 186<15 23> 381 165<541 545>
Fore
325 288 m 1
 516 41 l 1
 533 41 l 2
 551 41 560 34 560 21 c 0
 560 7 551 0 533 0 c 2
 401 0 l 2
 383 0 374 7 374 21 c 0
 374 34 383 41 401 41 c 2
 463 41 l 1
 298 255 l 1
 134 41 l 1
 198 41 l 2
 216 41 225 34 225 21 c 0
 225 7 216 0 198 0 c 2
 67 0 l 2
 49 0 40 7 40 21 c 0
 40 34 49 41 67 41 c 2
 84 41 l 1
 272 288 l 1
 93 522 l 1
 78 522 l 2
 60 522 51 529 51 543 c 0
 51 556 60 563 78 563 c 2
 188 563 l 2
 206 563 215 556 215 543 c 0
 215 529 206 522 188 522 c 2
 145 522 l 1
 300 321 l 1
 453 522 l 1
 408 522 l 2
 390 522 381 529 381 543 c 0
 381 556 390 563 408 563 c 2
 519 563 l 2
 537 563 546 557 546 543 c 0
 546 529 537 522 519 522 c 2
 504 522 l 1
 325 288 l 1
EndSplineSet
EndChar
StartChar: Y
Encoding: 57 89 68
Width: 600
Flags: W
HStem: 0 41<165.47 281 322 436> 522 41<67.4704 102 151 196 402 452 497 532>
VStem: 51 165<541 545> 281 41<40 254> 384 165<541 545>
Fore
322 254 m 1
 322 41 l 1
 427 41 l 2
 445 41 454 34 454 21 c 0
 454 7 445 0 427 0 c 2
 176 0 l 2
 158 0 149 7 149 21 c 0
 149 34 158 41 176 41 c 2
 281 41 l 1
 281 254 l 1
 102 522 l 1
 78 522 l 2
 60 522 51 529 51 543 c 0
 51 556 60 563 78 563 c 2
 189 563 l 2
 207 563 216 556 216 543 c 0
 216 529 207 522 189 522 c 2
 151 522 l 1
 303 295 l 1
 452 522 l 1
 412 522 l 2
 393 522 384 529 384 543 c 0
 384 556 393 563 412 563 c 2
 522 563 l 2
 539 563 549 555 549 543 c 0
 549 530 538 522 522 522 c 2
 498 522 l 1
 322 254 l 1
EndSplineSet
EndChar
StartChar: Z
Encoding: 58 90 69
Width: 600
Flags: W
HStem: 0 41<142 456> 0 209<468 478> 522 41<161 431>
VStem: 121 41<399 521> 456 41<41 193>
Fore
497 0 m 1
 103 0 l 1
 103 59 l 1
 431 519 l 1
 431 522 l 1
 162 522 l 1
 162 404 l 2
 162 385 155 376 142 376 c 0
 128 376 121 385 121 404 c 2
 121 563 l 1
 470 563 l 1
 470 505 l 1
 142 45 l 1
 142 41 l 1
 456 41 l 1
 456 182 l 2
 456 200 462 209 476 209 c 128
 490 209 497 200 497 182 c 2
 497 0 l 1
EndSplineSet
EndChar
StartChar: bracketleft
Encoding: 59 91 70
Width: 600
Flags: W
HStem: -124 41<321 425> 563 41<321 425>
VStem: 280 41<-84 563>
Fore
321 563 m 1
 321 -83 l 1
 418 -83 l 2
 436 -83 445 -90 445 -103 c 0
 445 -117 436 -124 418 -124 c 2
 280 -124 l 1
 280 604 l 1
 418 604 l 2
 436 604 445 597 445 584 c 0
 445 570 436 563 418 563 c 2
 321 563 l 1
EndSplineSet
EndChar
StartChar: backslash
Encoding: 60 92 71
Width: 600
Flags: W
Fore
155 650 m 2
 482 -46 l 1
 486 -53 487 -58 487 -62 c 0
 487 -72 477 -81 467 -81 c 128
 457 -81 452 -77 445 -63 c 2
 118 633 l 2
 114 641 113 645 113 649 c 0
 113 659 123 668 134 668 c 0
 143 668 148 664 155 650 c 2
EndSplineSet
EndChar
StartChar: bracketright
Encoding: 61 93 72
Width: 600
Flags: W
HStem: -124 41<171.47 279> 563 41<171.47 279>
VStem: 279 41<-84 563>
Fore
279 -83 m 1
 279 563 l 1
 182 563 l 2
 164 563 155 570 155 583 c 0
 155 597 164 604 182 604 c 2
 320 604 l 1
 320 -124 l 1
 182 -124 l 2
 164 -124 155 -117 155 -104 c 0
 155 -90 164 -83 182 -83 c 2
 279 -83 l 1
EndSplineSet
EndChar
StartChar: asciicircum
Encoding: 62 94 73
Width: 600
Flags: W
Fore
300 615 m 1
 478 392 l 2
 484 385 487 379 487 374 c 0
 487 363 478 354 467 354 c 0
 459 354 454 357 447 367 c 1
 300 552 l 1
 153 367 l 1
 146 357 141 354 133 354 c 0
 122 354 113 363 113 374 c 0
 113 380 115 384 122 392 c 2
 300 615 l 1
EndSplineSet
EndChar
StartChar: underscore
Encoding: 63 95 74
Width: 600
Flags: W
HStem: -125 50<-12 612>
Fore
612 -75 m 1
 612 -125 l 1
 -12 -125 l 1
 -12 -75 l 1
 612 -75 l 1
EndSplineSet
EndChar
StartChar: grave
Encoding: 64 96 75
Width: 600
Flags: W
Fore
194 630 m 2
 308 530 l 1
 315 522 l 2
 320 517 320 517 320 511 c 0
 320 499 311 490 299 490 c 0
 294 490 288 493 281 499 c 2
 167 599 l 2
 158 607 155 611 155 619 c 0
 155 630 164 639 175 639 c 0
 181 639 186 636 194 630 c 2
EndSplineSet
EndChar
StartChar: a
Encoding: 65 97 76
Width: 600
Flags: W
HStem: -16 41<215 249> 0 41<459 521> 217 41<263 313> 390 41<279 313>
VStem: 72 41<97.9244 114> 419 41<40 67 111 202 237 310> 419 122<15 27>
Fore
419 0 m 1
 419 67 l 1
 358 10 298 -16 228 -16 c 0
 135 -16 72 36 72 112 c 0
 72 199 158 258 283 258 c 0
 329 258 360 253 419 237 c 1
 419 308 l 2
 419 357 369 390 296 390 c 0
 260 390 232 384 154 360 c 0
 150 359 146 358 144 358 c 0
 134 358 125 367 125 378 c 0
 125 388 131 395 142 399 c 0
 197 418 262 431 299 431 c 0
 392 431 460 379 460 308 c 2
 460 41 l 1
 514 41 l 2
 532 41 541 34 541 21 c 0
 541 7 532 0 514 0 c 2
 419 0 l 1
419 112 m 1
 419 202 l 1
 383 211 335 217 291 217 c 0
 185 217 113 174 113 111 c 0
 113 59 158 25 227 25 c 0
 298 25 352 49 419 112 c 1
EndSplineSet
EndChar
StartChar: b
Encoding: 66 98 77
Width: 600
Flags: W
HStem: -16 41<309 326> 0 41<38.4704 103> 390 41<309 326> 563 41<38.4704 103>
VStem: 103 41<40 88 191 225 328 563> 500 41<191 225>
Fore
144 604 m 1
 144 328 l 1
 194 399 250 431 324 431 c 0
 446 431 541 334 541 210 c 0
 541 85 444 -16 324 -16 c 0
 251 -16 191 18 144 88 c 1
 144 0 l 1
 49 0 l 2
 31 0 22 7 22 21 c 0
 22 34 31 41 49 41 c 2
 103 41 l 1
 103 563 l 1
 49 563 l 2
 31 563 22 570 22 584 c 0
 22 597 31 604 49 604 c 2
 144 604 l 1
322 390 m 0
 223 390 144 309 144 208 c 128
 144 107 223 25 322 25 c 0
 419 25 500 107 500 205 c 0
 500 309 422 390 322 390 c 0
EndSplineSet
EndChar
StartChar: c
Encoding: 67 99 78
Width: 600
Flags: W
HStem: -16 41<291 325> 271 146<483 498> 390 41<291 325>
VStem: 84 41<191 225>
Fore
470 376 m 1
 470 389 l 2
 470 408 477 417 491 417 c 0
 504 417 511 408 511 389 c 2
 511 298 l 2
 511 280 504 271 491 271 c 128
 478 271 472 278 470 295 c 0
 466 348 395 390 311 390 c 0
 201 390 125 315 125 205 c 0
 125 100 202 25 311 25 c 0
 384 25 446 49 498 97 c 0
 506 105 509 107 516 107 c 0
 526 107 535 98 535 88 c 0
 535 76 520 58 492 39 c 0
 441 4 375 -16 309 -16 c 0
 178 -16 84 76 84 204 c 0
 84 336 180 431 314 431 c 0
 375 431 429 412 470 376 c 1
EndSplineSet
EndChar
StartChar: d
Encoding: 68 100 79
Width: 600
Flags: W
HStem: -16 41<270 288> 0 41<501 560> 390 41<270 288> 563 41<398 461>
VStem: 63 41<191 225> 461 41<40 89 191 225 327 563> 461 122<15 27>
Fore
502 604 m 1
 502 41 l 1
 556 41 l 2
 574 41 583 34 583 21 c 0
 583 7 574 0 556 0 c 2
 461 0 l 1
 461 89 l 1
 414 19 354 -16 279 -16 c 0
 160 -16 63 85 63 208 c 128
 63 331 160 431 279 431 c 0
 354 431 412 398 461 327 c 1
 461 563 l 1
 407 563 l 2
 389 563 380 570 380 584 c 0
 380 597 389 604 407 604 c 2
 502 604 l 1
282 390 m 0
 183 390 104 309 104 208 c 0
 104 106 183 25 283 25 c 0
 381 25 461 106 461 206 c 0
 461 310 383 390 282 390 c 0
EndSplineSet
EndChar
StartChar: e
Encoding: 69 101 80
Width: 600
Flags: W
HStem: -16 41<286 320> 199 41<104 478> 390 41<270 308>
Fore
520 199 m 1
 104 199 l 1
 118 94 198 25 306 25 c 0
 368 25 441 47 481 79 c 0
 488 84 492 86 497 86 c 0
 507 86 516 77 516 66 c 0
 516 31 396 -16 305 -16 c 0
 170 -16 63 87 63 217 c 0
 63 338 163 431 291 431 c 0
 387 431 467 380 503 297 c 0
 517 264 520 245 520 199 c 1
104 240 m 1
 478 240 l 1
 462 331 388 390 291 390 c 128
 194 390 122 332 104 240 c 1
EndSplineSet
EndChar
StartChar: f
Encoding: 70 102 81
Width: 600
Flags: W
HStem: 0 41<121.47 230 271 460> 376 41<131 230 271 470> 563 41<376 410>
VStem: 230 41<40 376 416 480>
Fore
271 376 m 1
 271 41 l 1
 449 41 l 2
 467 41 476 34 476 21 c 0
 476 7 466 0 449 0 c 2
 132 0 l 2
 114 0 105 7 105 21 c 0
 105 34 114 41 132 41 c 2
 230 41 l 1
 230 376 l 1
 142 376 l 2
 124 376 115 383 115 397 c 0
 115 410 124 417 142 417 c 2
 230 417 l 1
 230 478 l 2
 230 551 294 604 384 604 c 0
 422 604 491 597 523 591 c 0
 535 588 541 581 541 571 c 0
 541 559 532 551 520 551 c 0
 518 551 518 551 470 557 c 0
 443 560 404 563 382 563 c 0
 316 563 271 528 271 478 c 2
 271 417 l 1
 460 417 l 2
 478 417 487 410 487 397 c 0
 487 383 478 376 460 376 c 2
 271 376 l 1
EndSplineSet
EndChar
StartChar: g
Encoding: 71 103 82
Width: 600
Flags: W
HStem: -186 41<191.47 320> 10 41<254 288> 376 41<480 544> 390 41<254 288>
VStem: 63 41<213 231> 440 41<-30 107 213 231 334 377> 440 122<389 399>
Fore
440 334 m 1
 440 417 l 1
 535 417 l 2
 553 417 562 410 562 397 c 0
 562 383 553 376 535 376 c 2
 481 376 l 1
 481 -28 l 2
 481 -69 468 -100 438 -132 c 0
 403 -169 366 -186 316 -186 c 2
 202 -186 l 2
 184 -186 175 -179 175 -165 c 0
 175 -152 184 -145 202 -145 c 2
 318 -145 l 2
 386 -145 440 -90 440 -22 c 2
 440 107 l 1
 395 41 341 10 269 10 c 0
 156 10 63 105 63 221 c 128
 63 337 156 431 269 431 c 0
 342 431 395 401 440 334 c 1
272 390 m 0
 178 390 104 315 104 221 c 0
 104 126 179 51 272 51 c 128
 365 51 440 126 440 219 c 0
 440 316 367 390 272 390 c 0
EndSplineSet
EndChar
StartChar: h
Encoding: 72 104 83
Width: 600
Flags: W
HStem: 0 41<68 124 165 220 381.47 437 477 525> 390 41<298 332> 563 41<59.4704 124>
VStem: 124 41<40 296 347 563> 437 41<40 298>
Fore
165 604 m 1
 165 347 l 1
 216 408 258 431 319 431 c 0
 412 431 478 372 478 291 c 2
 478 41 l 1
 523 41 l 2
 542 41 551 34 551 21 c 0
 551 7 542 0 523 0 c 2
 392 0 l 2
 374 0 365 7 365 21 c 0
 365 34 374 41 392 41 c 2
 437 41 l 1
 437 288 l 2
 437 318 424 344 399 364 c 0
 376 383 354 390 314 390 c 0
 258 390 230 373 176 309 c 2
 165 296 l 1
 165 41 l 1
 210 41 l 2
 229 41 238 34 238 21 c 0
 238 7 228 0 210 0 c 2
 78 0 l 2
 61 0 51 7 51 21 c 0
 51 34 60 41 78 41 c 2
 124 41 l 1
 124 563 l 1
 70 563 l 2
 52 563 43 570 43 584 c 0
 43 597 52 604 70 604 c 2
 165 604 l 1
EndSplineSet
EndChar
StartChar: i
Encoding: 73 105 84
Width: 600
Flags: W
HStem: 0 41<108.47 279 319 482> 376 41<155 279>
VStem: 259 59<520 624> 279 41<40 376>
Fore
320 417 m 1
 320 41 l 1
 480 41 l 2
 499 41 508 34 508 21 c 0
 508 7 498 0 480 0 c 2
 119 0 l 2
 101 0 92 7 92 21 c 0
 92 34 101 41 119 41 c 2
 279 41 l 1
 279 376 l 1
 161 376 l 2
 143 376 134 383 134 397 c 0
 134 410 143 417 161 417 c 2
 320 417 l 1
318 624 m 1
 318 520 l 1
 259 520 l 1
 259 624 l 1
 318 624 l 1
EndSplineSet
EndChar
StartChar: j
Encoding: 74 106 85
Width: 600
Flags: W
HStem: -186 41<163.47 308> 376 41<172 416>
VStem: 355 59<520 624> 417 41<-43 377>
Fore
417 376 m 1
 176 376 l 2
 158 376 149 383 149 397 c 0
 149 410 158 417 176 417 c 2
 458 417 l 1
 458 -28 l 2
 458 -121 394 -186 303 -186 c 2
 174 -186 l 2
 156 -186 147 -179 147 -165 c 0
 147 -152 156 -145 174 -145 c 2
 302 -145 l 2
 368 -145 417 -96 417 -28 c 2
 417 376 l 1
414 624 m 1
 414 520 l 1
 355 520 l 1
 355 624 l 1
 414 624 l 1
EndSplineSet
EndChar
StartChar: k
Encoding: 75 107 86
Width: 600
Flags: W
HStem: 0 41<79.4704 144 372.47 411 468 516> 376 41<325.47 358 418 472> 563 41<79.4704 144>
VStem: 144 41<40 180 229 563> 309 184<395 401> 356 185<15 23>
Fore
185 180 m 1
 185 0 l 1
 90 0 l 2
 72 0 63 7 63 21 c 0
 63 34 72 41 90 41 c 2
 144 41 l 1
 144 563 l 1
 90 563 l 2
 72 563 63 570 63 584 c 0
 63 597 72 604 90 604 c 2
 185 604 l 1
 185 229 l 1
 358 376 l 1
 336 376 l 2
 318 376 309 383 309 397 c 0
 309 410 318 417 336 417 c 2
 466 417 l 2
 484 417 493 410 493 397 c 0
 493 383 484 376 466 376 c 2
 419 376 l 1
 262 245 l 1
 469 41 l 1
 514 41 l 2
 532 41 541 34 541 21 c 0
 541 7 532 0 514 0 c 2
 383 0 l 2
 365 0 356 7 356 21 c 0
 356 34 365 41 383 41 c 2
 411 41 l 1
 231 219 l 1
 185 180 l 1
EndSplineSet
EndChar
StartChar: l
Encoding: 76 108 87
Width: 600
Flags: W
HStem: 0 41<108.47 279 319 482> 563 41<155 279>
VStem: 279 41<40 563>
Fore
320 604 m 1
 320 41 l 1
 480 41 l 2
 499 41 508 34 508 21 c 0
 508 7 498 0 480 0 c 2
 119 0 l 2
 101 0 92 7 92 21 c 0
 92 34 101 41 119 41 c 2
 279 41 l 1
 279 563 l 1
 162 563 l 2
 144 563 135 570 135 584 c 0
 135 597 144 604 162 604 c 2
 320 604 l 1
EndSplineSet
EndChar
StartChar: m
Encoding: 77 109 88
Width: 600
Flags: W
HStem: 0 41<35 72 112 156 322 364 531 572> 376 41<35 72> 390 41<205.034 220 413.572 429>
VStem: 72 40<40 308 365 376> 282 40<40 308> 282 101<15 23> 492 40<40 326> 492 101<15 23>
Fore
112 417 m 1
 112 365 l 1
 146 413 175 431 217 431 c 0
 260 431 292 408 314 360 c 1
 353 410 386 431 427 431 c 0
 485 431 532 382 532 323 c 2
 532 41 l 1
 566 41 l 2
 584 41 593 34 593 21 c 0
 593 7 584 0 566 0 c 2
 492 0 l 1
 492 319 l 2
 492 357 461 390 426 390 c 0
 390 390 360 366 322 308 c 1
 322 41 l 1
 356 41 l 2
 374 41 383 34 383 21 c 0
 383 7 374 0 356 0 c 2
 282 0 l 1
 282 316 l 2
 282 355 251 390 217 390 c 0
 182 390 150 365 112 308 c 1
 112 41 l 1
 146 41 l 2
 164 41 173 34 173 21 c 0
 173 7 163 0 146 0 c 2
 37 0 l 2
 20 0 11 7 11 21 c 0
 11 34 20 41 38 41 c 2
 72 41 l 1
 72 376 l 1
 38 376 l 2
 20 376 11 383 11 397 c 0
 11 410 20 417 38 417 c 2
 112 417 l 1
EndSplineSet
EndChar
StartChar: n
Encoding: 78 110 89
Width: 600
Flags: W
HStem: 0 41<69.9599 126 167 214 399 438 479 518> 376 41<81 126> 390 41<308 342>
VStem: 126 41<40 294 348 376> 439 41<40 298>
Fore
167 417 m 1
 167 348 l 1
 225 412 261 431 323 431 c 0
 412 431 480 372 480 295 c 2
 480 41 l 1
 514 41 l 2
 532 41 541 34 541 21 c 0
 541 7 532 0 514 0 c 2
 405 0 l 2
 387 0 378 7 378 21 c 0
 378 34 387 41 405 41 c 2
 439 41 l 1
 439 288 l 2
 439 318 426 343 401 364 c 0
 377 384 358 390 319 390 c 0
 281 390 252 380 224 357 c 0
 209 346 199 335 167 294 c 1
 167 41 l 1
 212 41 l 2
 230 41 239 34 239 21 c 0
 239 7 230 0 212 0 c 2
 81 0 l 2
 62 0 53 7 53 21 c 0
 53 34 62 41 81 41 c 2
 126 41 l 1
 126 376 l 1
 92 376 l 2
 74 376 65 383 65 397 c 0
 65 410 74 417 92 417 c 2
 167 417 l 1
EndSplineSet
EndChar
StartChar: o
Encoding: 79 111 90
Width: 600
Flags: W
HStem: -16 41<279.738 313> 390 41<279.738 313>
VStem: 72 41<191 225> 487 41<191 225>
Fore
300 431 m 0
 428 431 528 332 528 205 c 0
 528 83 426 -16 300 -16 c 0
 173 -16 72 83 72 208 c 0
 72 331 173 431 300 431 c 0
300 390 m 0
 196 390 113 309 113 208 c 0
 113 106 196 25 300 25 c 0
 403 25 487 106 487 205 c 0
 487 310 405 390 300 390 c 0
EndSplineSet
EndChar
StartChar: p
Encoding: 80 112 91
Width: 600
Flags: W
HStem: -186 41<38.4704 103 144 247> 10 41<309 326> 376 41<38.4704 103> 390 41<309 343>
VStem: 103 41<-146 106 213 231 335 377> 500 41<213 231>
Fore
144 417 m 1
 144 335 l 1
 197 404 247 431 323 431 c 0
 447 431 541 340 541 221 c 0
 541 102 446 10 323 10 c 0
 246 10 190 40 144 106 c 1
 144 -145 l 1
 242 -145 l 2
 260 -145 269 -152 269 -165 c 0
 269 -179 260 -186 242 -186 c 2
 49 -186 l 2
 31 -186 22 -179 22 -165 c 0
 22 -152 31 -145 49 -145 c 2
 103 -145 l 1
 103 376 l 1
 49 376 l 2
 31 376 22 383 22 397 c 0
 22 410 31 417 49 417 c 2
 144 417 l 1
322 390 m 0
 223 390 144 315 144 221 c 0
 144 126 223 51 322 51 c 0
 420 51 500 126 500 219 c 0
 500 316 423 390 322 390 c 0
EndSplineSet
EndChar
StartChar: q
Encoding: 81 113 92
Width: 600
Flags: W
HStem: -186 41<352.47 461 502 560> 10 41<270 288> 376 41<502 560> 390 41<270 288>
VStem: 63 41<213 231> 461 41<-146 106 213 231 335 377> 461 122<389 399>
Fore
461 335 m 1
 461 417 l 1
 556 417 l 2
 574 417 583 410 583 397 c 0
 583 383 574 376 556 376 c 2
 502 376 l 1
 502 -145 l 1
 556 -145 l 2
 574 -145 583 -152 583 -165 c 0
 583 -179 574 -186 556 -186 c 2
 363 -186 l 2
 345 -186 336 -179 336 -165 c 0
 336 -152 345 -145 363 -145 c 2
 461 -145 l 1
 461 106 l 1
 415 40 359 10 281 10 c 0
 158 10 63 102 63 221 c 128
 63 340 158 431 282 431 c 0
 359 431 414 401 461 335 c 1
282 390 m 0
 182 390 104 316 104 221 c 128
 104 126 182 51 282 51 c 0
 381 51 461 126 461 219 c 0
 461 316 383 390 282 390 c 0
EndSplineSet
EndChar
StartChar: r
Encoding: 82 114 93
Width: 600
Flags: W
HStem: 0 41<103 207 248 437> 376 41<122.353 207> 386 41<425 443>
VStem: 207 41<40 262 315 376>
Fore
248 417 m 1
 248 315 l 1
 341 399 390 427 441 427 c 0
 470 427 492 418 518 396 c 0
 535 382 541 374 541 365 c 0
 541 353 532 344 520 344 c 0
 513 344 511 345 504 352 c 0
 480 375 460 386 438 386 c 0
 393 386 358 363 248 262 c 1
 248 41 l 1
 427 41 l 2
 444 41 454 33 454 20 c 0
 454 8 444 0 427 0 c 2
 111 0 l 2
 94 0 84 8 84 21 c 0
 84 33 94 41 111 41 c 2
 207 41 l 1
 207 376 l 1
 132 376 l 2
 115 376 105 384 105 397 c 0
 105 409 115 417 132 417 c 2
 248 417 l 1
EndSplineSet
EndChar
StartChar: s
Encoding: 83 115 94
Width: 600
Flags: W
HStem: -16 41<278 319> 0 137<118 126> 293 124<446 456> 390 41<278 319>
VStem: 103 41<23 38 98.4446 119> 124 45<313 323> 452 45<106 119>
Fore
432 385 m 1
 432 389 l 2
 432 406 440 417 453 417 c 128
 466 417 473 408 473 389 c 2
 473 320 l 2
 473 302 466 293 453 293 c 0
 441 293 434 300 432 316 c 0
 427 361 375 390 299 390 c 0
 225 390 169 358 169 315 c 0
 169 299 180 282 201 270 c 0
 223 256 229 254 317 245 c 0
 378 238 415 227 447 206 c 0
 478 185 497 151 497 116 c 0
 497 40 414 -16 301 -16 c 0
 236 -16 186 1 144 38 c 1
 144 27 l 2
 144 9 137 0 124 0 c 0
 110 0 103 9 103 27 c 2
 103 110 l 2
 103 128 110 137 124 137 c 0
 136 137 144 128 144 115 c 2
 144 108 l 2
 144 62 213 25 298 25 c 0
 386 25 452 64 452 117 c 0
 452 140 435 165 408 180 c 0
 382 194 355 201 300 207 c 0
 226 215 198 222 170 239 c 0
 142 257 124 287 124 318 c 0
 124 383 197 431 295 431 c 0
 352 431 397 416 432 385 c 1
EndSplineSet
EndChar
StartChar: t
Encoding: 84 116 95
Width: 600
Flags: W
HStem: -16 41<282 316> 376 41<59.9599 145 186 412>
VStem: 145 41<95 376 416 545>
Fore
186 417 m 1
 406 417 l 2
 424 417 433 410 433 397 c 0
 433 383 424 376 406 376 c 2
 186 376 l 1
 186 109 l 2
 186 58 229 25 298 25 c 0
 354 25 425 42 464 65 c 0
 472 70 475 71 480 71 c 0
 490 71 499 61 499 51 c 0
 499 22 385 -16 300 -16 c 0
 206 -16 145 32 145 107 c 2
 145 376 l 1
 71 376 l 2
 52 376 43 383 43 397 c 0
 43 410 52 417 71 417 c 2
 145 417 l 1
 145 536 l 2
 145 554 152 563 166 563 c 128
 180 563 186 555 186 536 c 2
 186 417 l 1
EndSplineSet
EndChar
StartChar: u
Encoding: 85 117 96
Width: 600
Flags: W
HStem: -16 41<250 268> 0 41<479 524> 376 41<59.4704 124 362 439>
VStem: 124 41<111 376> 439 41<40 65 114 376> 439 102<15 27>
Fore
439 0 m 1
 439 66 l 1
 384 12 323 -16 257 -16 c 0
 177 -16 124 36 124 115 c 2
 124 376 l 1
 70 376 l 2
 52 376 43 383 43 397 c 0
 43 410 52 417 70 417 c 2
 165 417 l 1
 165 115 l 2
 165 65 205 25 256 25 c 0
 323 25 384 55 439 115 c 1
 439 376 l 1
 365 376 l 2
 346 376 337 383 337 397 c 0
 337 410 346 417 365 417 c 2
 480 417 l 1
 480 41 l 1
 514 41 l 2
 532 41 541 34 541 21 c 0
 541 7 532 0 514 0 c 2
 439 0 l 1
EndSplineSet
EndChar
StartChar: v
Encoding: 86 118 97
Width: 600
Flags: W
HStem: 0 21G<266 336> 376 41<46.4704 98 143 211 381 459 501 545>
VStem: 30 206<395 401> 364 206<395 401>
Fore
336 0 m 1
 266 0 l 1
 98 376 l 1
 57 376 l 2
 39 376 30 383 30 397 c 0
 30 410 39 417 57 417 c 2
 208 417 l 2
 227 417 236 410 236 397 c 0
 236 383 227 376 208 376 c 2
 143 376 l 1
 293 41 l 1
 312 41 l 1
 459 376 l 1
 391 376 l 2
 373 376 364 383 364 397 c 0
 364 410 373 417 391 417 c 2
 543 417 l 2
 561 417 570 410 570 397 c 0
 570 383 561 376 543 376 c 2
 502 376 l 1
 336 0 l 1
EndSplineSet
EndChar
StartChar: w
Encoding: 87 119 98
Width: 600
Flags: W
HStem: 0 21G<160 211 391 441> 376 41<46.4704 76 115 175 429 482 523 545>
VStem: 30 165<395 401> 405 165<395 401>
Fore
441 0 m 1
 391 0 l 1
 300 259 l 1
 211 0 l 1
 160 0 l 1
 76 376 l 1
 57 376 l 2
 39 376 30 383 30 397 c 0
 30 410 39 417 57 417 c 2
 168 417 l 2
 186 417 195 410 195 397 c 0
 195 383 186 376 168 376 c 2
 115 376 l 1
 187 56 l 1
 273 311 l 1
 324 311 l 1
 413 56 l 1
 482 376 l 1
 432 376 l 2
 414 376 405 383 405 397 c 0
 405 410 414 417 432 417 c 2
 543 417 l 2
 561 417 570 410 570 397 c 0
 570 383 561 376 543 376 c 2
 524 376 l 1
 441 0 l 1
EndSplineSet
EndChar
StartChar: x
Encoding: 88 120 99
Width: 600
Flags: W
HStem: 0 41<72 87 143 215 386 455 512 532> 376 41<98 108 166 215 386 436 491 501>
VStem: 51 187<15 23> 74 165<395 401> 362 164<395 401> 363 186<15 23>
Fore
329 219 m 1
 513 41 l 1
 522 41 l 2
 540 41 549 34 549 21 c 0
 549 7 540 0 522 0 c 2
 390 0 l 2
 372 0 363 7 363 21 c 0
 363 34 372 41 390 41 c 2
 455 41 l 1
 300 190 l 1
 143 41 l 1
 211 41 l 2
 229 41 238 34 238 21 c 0
 238 7 229 0 211 0 c 2
 78 0 l 2
 60 0 51 7 51 21 c 0
 51 34 60 41 78 41 c 2
 87 41 l 1
 271 219 l 1
 108 376 l 1
 101 376 l 2
 83 376 74 383 74 397 c 0
 74 410 83 417 101 417 c 2
 212 417 l 2
 230 417 239 411 239 397 c 128
 239 383 230 376 212 376 c 2
 166 376 l 1
 300 246 l 1
 437 376 l 1
 389 376 l 2
 371 376 362 383 362 397 c 0
 362 410 371 417 389 417 c 2
 499 417 l 2
 517 417 526 410 526 397 c 0
 526 383 517 376 499 376 c 2
 492 376 l 1
 329 219 l 1
EndSplineSet
EndChar
StartChar: y
Encoding: 89 121 100
Width: 600
Flags: W
HStem: -186 41<76 211 252 324> 376 41<67.4704 94 141 195 402 466 507 532>
VStem: 51 169<389 399> 385 164<389 399>
Fore
282 0 m 1
 94 376 l 1
 78 376 l 2
 60 376 51 383 51 397 c 0
 51 410 60 417 78 417 c 2
 193 417 l 2
 211 417 220 410 220 397 c 0
 220 383 211 376 193 376 c 2
 141 376 l 1
 305 45 l 1
 466 376 l 1
 412 376 l 2
 394 376 385 383 385 397 c 0
 385 410 394 417 412 417 c 2
 522 417 l 2
 540 417 549 410 549 397 c 0
 549 383 540 376 522 376 c 2
 508 376 l 1
 252 -145 l 1
 317 -145 l 2
 335 -145 344 -152 344 -165 c 0
 344 -179 335 -186 317 -186 c 2
 84 -186 l 2
 66 -186 57 -179 57 -165 c 0
 57 -152 66 -145 84 -145 c 2
 211 -145 l 1
 282 0 l 1
EndSplineSet
EndChar
StartChar: z
Encoding: 90 122 101
Width: 600
Flags: W
HStem: 0 41<171 448> 0 124<466 476> 376 41<164 416>
VStem: 124 41<310.47 376> 448 41<41 99>
Fore
474 417 m 1
 474 381 l 1
 171 41 l 1
 448 41 l 1
 448 97 l 2
 448 115 455 124 469 124 c 0
 482 124 489 115 489 97 c 2
 489 0 l 1
 115 0 l 1
 115 36 l 1
 416 376 l 1
 165 376 l 1
 165 321 l 2
 165 303 158 294 145 294 c 0
 131 294 124 303 124 321 c 2
 124 417 l 1
 474 417 l 1
EndSplineSet
EndChar
StartChar: braceleft
Encoding: 91 123 102
Width: 600
Flags: W
VStem: 281 41<-29 165 313.191 501>
Fore
322 499 m 2
 322 326 l 2
 322 285 311 264 278 240 c 1
 311 216 322 195 322 154 c 2
 322 -19 l 2
 322 -53 345 -80 377 -83 c 0
 396 -85 403 -90 403 -104 c 0
 403 -116 394 -124 379 -124 c 0
 324 -124 281 -78 281 -19 c 2
 281 154 l 2
 281 190 257 216 221 219 c 0
 205 220 197 226 197 240 c 0
 197 253 205 260 221 261 c 0
 257 264 281 289 281 326 c 2
 281 499 l 2
 281 558 324 604 379 604 c 0
 394 604 403 596 403 584 c 0
 403 570 396 565 377 563 c 0
 345 560 322 533 322 499 c 2
EndSplineSet
EndChar
StartChar: bar
Encoding: 92 124 103
Width: 600
Flags: W
VStem: 280 40<-107.57 581>
Fore
320 577 m 2
 320 -97 l 2
 320 -115 313 -124 300 -124 c 128
 287 -124 280 -115 280 -97 c 2
 280 577 l 2
 280 595 287 604 300 604 c 128
 313 604 320 595 320 577 c 2
EndSplineSet
EndChar
StartChar: braceright
Encoding: 93 125 104
Width: 600
Flags: W
VStem: 278 41<-29 165 313.474 501>
Fore
278 -19 m 2
 278 154 l 2
 278 195 289 216 322 240 c 1
 289 264 278 285 278 326 c 2
 278 499 l 2
 278 533 255 560 223 563 c 0
 204 565 197 570 197 584 c 0
 197 596 206 604 221 604 c 0
 276 604 319 558 319 499 c 2
 319 326 l 2
 319 290 343 264 379 261 c 0
 395 260 403 254 403 240 c 0
 403 227 395 220 379 219 c 0
 343 216 319 191 319 154 c 2
 319 -19 l 2
 319 -78 276 -124 221 -124 c 0
 206 -124 197 -116 197 -104 c 0
 197 -90 204 -85 223 -83 c 0
 255 -80 278 -53 278 -19 c 2
EndSplineSet
EndChar
StartChar: asciitilde
Encoding: 94 126 105
Width: 600
Flags: W
HStem: 212 41<379 397> 307 41<203 221>
Fore
488 330 m 0
 499 330 508 321 508 311 c 0
 508 303 500 291 483 271 c 0
 449 230 420 212 389 212 c 0
 357 212 336 224 273 277 c 0
 248 297 229 307 212 307 c 0
 186 307 175 298 131 242 c 0
 124 233 119 230 111 230 c 0
 101 230 92 239 92 249 c 0
 92 257 100 271 120 294 c 0
 154 333 179 348 212 348 c 0
 244 348 259 340 313 297 c 0
 357 261 370 253 386 253 c 0
 410 253 434 270 459 305 c 0
 474 327 478 330 488 330 c 0
EndSplineSet
EndChar
StartChar: exclamdown
Encoding: 96 161 107
Width: 600
Flags: W
HStem: 317 100<287 309>
Fore
262 -161 m 1
 280 165 l 1
 281 185 287 193 301 193 c 0
 314 193 320 184 321 165 c 2
 339 -161 l 1
 340 -168 340 -173 340 -177 c 0
 340 -199 323 -216 300 -216 c 0
 278 -216 261 -199 261 -177 c 0
 261 -175 261 -169 262 -161 c 1
307 317 m 2
 294 317 l 2
 264 317 240 339 240 367 c 128
 240 395 264 417 294 417 c 2
 307 417 l 2
 337 417 360 395 360 367 c 128
 360 339 337 317 307 317 c 2
EndSplineSet
EndChar
StartChar: cent
Encoding: 97 162 108
Width: 600
Flags: W
HStem: -13 178<299 308> 364 114<443 451>
VStem: 113 41<292.827 324> 280 41<3.47037 127 496 612>
Fore
280 496 m 1
 280 603 l 2
 280 621 287 630 301 630 c 0
 314 630 321 621 321 603 c 2
 321 497 l 1
 359 497 400 483 425 461 c 1
 428 472 435 478 445 478 c 0
 458 478 466 469 466 453 c 2
 466 392 l 2
 466 373 459 364 446 364 c 0
 434 364 428 371 426 387 c 0
 420 430 375 458 311 458 c 0
 220 458 154 397 154 311 c 0
 154 227 219 165 307 165 c 0
 353 165 399 180 432 207 c 0
 441 214 444 215 450 215 c 0
 461 215 469 207 469 195 c 0
 469 168 388 130 321 127 c 1
 321 14 l 2
 321 -4 314 -13 301 -13 c 0
 287 -13 280 -4 280 14 c 2
 280 127 l 1
 183 138 113 216 113 311 c 0
 113 373 143 429 194 463 c 0
 217 478 238 487 280 496 c 1
EndSplineSet
EndChar
StartChar: sterling
Encoding: 98 163 109
Width: 600
Flags: W
HStem: 0 40<106 108 182 438> 273 41<84 184 234 326> 537 41<286 304>
VStem: 157 41<416.51 449> 198 41<207 225>
Fore
182 41 m 1
 434 41 l 2
 459 41 477 60 479 92 c 0
 481 108 487 115 500 115 c 0
 512 115 520 106 520 93 c 0
 520 42 482 0 436 0 c 2
 113 0 l 2
 95 0 86 7 86 21 c 0
 86 32 94 40 108 40 c 0
 155 42 198 128 198 220 c 0
 198 237 196 260 194 273 c 1
 90 273 l 2
 72 273 63 280 63 294 c 0
 63 307 72 314 90 314 c 2
 184 314 l 1
 163 380 157 409 157 435 c 0
 157 514 220 578 298 578 c 0
 334 578 367 565 396 539 c 0
 415 522 427 505 427 495 c 0
 427 486 416 476 407 476 c 0
 401 476 396 479 389 488 c 0
 361 522 334 537 299 537 c 0
 245 537 198 490 198 435 c 0
 198 412 201 397 221 328 c 0
 222 327 223 321 225 314 c 1
 324 314 l 2
 342 314 351 307 351 293 c 0
 351 280 342 273 324 273 c 2
 234 273 l 1
 237 252 239 234 239 216 c 0
 239 148 219 87 182 41 c 1
EndSplineSet
EndChar
StartChar: currency
Encoding: 99 164 110
Width: 600
Flags: W
HStem: 127 41<294 312> 417 41<294 312>
VStem: 135 41<286 304> 424 42<286 304>
Fore
199 162 m 1
 142 106 l 1
 134 97 130 95 124 95 c 0
 112 95 103 104 103 115 c 0
 103 122 106 127 114 135 c 2
 170 191 l 1
 146 223 135 256 135 292 c 0
 135 329 147 366 169 394 c 1
 114 450 l 1
 105 458 103 462 103 469 c 0
 103 480 112 489 123 489 c 0
 130 489 134 486 142 478 c 2
 198 423 l 1
 227 446 263 458 300 458 c 128
 337 458 374 445 402 423 c 1
 457 478 l 2
 466 487 470 489 477 489 c 0
 488 489 497 480 497 468 c 0
 497 461 496 459 487 450 c 2
 432 394 l 1
 455 362 466 329 466 293 c 0
 466 256 454 220 431 191 c 1
 486 135 l 2
 492 129 496 121 496 115 c 0
 496 104 487 95 476 95 c 0
 470 95 464 98 457 106 c 2
 401 162 l 1
 369 138 337 127 300 127 c 128
 263 127 229 139 199 162 c 1
300 417 m 0
 232 417 176 361 176 293 c 0
 176 224 232 168 300 168 c 0
 367 168 424 224 424 291 c 0
 424 361 369 417 300 417 c 0
EndSplineSet
EndChar
StartChar: yen
Encoding: 100 165 111
Width: 600
Flags: W
HStem: 0 41<186 280 321 414> 141 37<146 280 321 455> 238 37<146 266 334 455> 522 41<67.4704 102 149 196 402 451 497 532>
VStem: 51 164<541 545> 280 41<40 141 177 238> 385 164<541 545>
Fore
321 238 m 1
 321 178 l 1
 452 178 l 2
 467 178 473 173 473 160 c 0
 473 146 467 141 452 141 c 2
 321 141 l 1
 321 41 l 1
 407 41 l 2
 425 41 434 34 434 21 c 0
 434 7 425 0 407 0 c 2
 194 0 l 2
 176 0 167 7 167 21 c 0
 167 34 176 41 194 41 c 2
 280 41 l 1
 280 141 l 1
 150 141 l 2
 134 141 128 146 128 160 c 0
 128 173 134 178 150 178 c 2
 280 178 l 1
 280 238 l 1
 150 238 l 2
 134 238 128 243 128 257 c 0
 128 270 133 275 150 275 c 2
 266 275 l 1
 102 522 l 1
 78 522 l 2
 60 522 51 529 51 543 c 0
 51 556 60 563 78 563 c 2
 188 563 l 2
 206 563 215 556 215 543 c 0
 215 529 206 522 188 522 c 2
 149 522 l 1
 300 295 l 1
 451 522 l 1
 412 522 l 2
 394 522 385 529 385 543 c 0
 385 556 394 563 412 563 c 2
 522 563 l 2
 540 563 549 556 549 543 c 0
 549 529 540 522 522 522 c 2
 498 522 l 1
 334 275 l 1
 452 275 l 2
 468 275 473 270 473 257 c 0
 473 243 468 238 452 238 c 2
 321 238 l 1
EndSplineSet
EndChar
StartChar: brokenbar
Encoding: 101 166 112
Width: 600
Flags: W
VStem: 280 40<-107.57 181 307 581>
Fore
320 577 m 2
 320 310 l 2
 320 292 313 283 300 283 c 128
 287 283 280 292 280 310 c 2
 280 577 l 2
 280 595 287 604 300 604 c 128
 313 604 320 595 320 577 c 2
320 170 m 2
 320 -97 l 2
 320 -115 313 -124 300 -124 c 128
 287 -124 280 -115 280 -97 c 2
 280 170 l 2
 280 188 287 197 300 197 c 128
 313 197 320 188 320 170 c 2
EndSplineSet
EndChar
StartChar: section
Encoding: 102 167 113
Width: 600
Flags: W
HStem: -62 40<145 322> -62 135<124 131> 563 40<272 455>
VStem: 66 43<353 361> 105 41<-22 55> 156 40<481 496> 404 41<47 55> 455 41<485 563> 491 43<176 188>
Fore
496 603 m 1
 496 494 l 2
 496 479 489 470 476 470 c 128
 463 470 455 479 455 494 c 2
 455 563 l 1
 287 563 l 2
 238 563 196 528 196 487 c 0
 196 450 226 424 345 358 c 2
 401 327 l 2
 495 276 534 234 534 185 c 0
 534 159 521 137 498 121 c 0
 481 110 466 105 432 101 c 1
 441 86 445 71 445 52 c 0
 445 -13 388 -62 312 -62 c 2
 105 -62 l 1
 105 49 l 2
 105 64 112 73 126 73 c 0
 139 73 146 64 146 49 c 2
 146 -22 l 1
 311 -22 l 2
 364 -22 404 11 404 53 c 0
 404 88 369 121 273 175 c 2
 208 211 l 2
 110 266 66 312 66 358 c 0
 66 403 107 436 169 441 c 1
 160 456 156 469 156 487 c 0
 156 550 215 603 284 603 c 2
 496 603 l 1
384 290 m 2
 320 326 l 2
 256 361 228 379 201 403 c 1
 195 402 195 402 183 402 c 0
 141 402 109 383 109 357 c 0
 109 328 151 290 234 243 c 2
 296 208 l 2
 351 177 382 157 400 139 c 1
 404 141 404 141 418 142 c 0
 463 143 491 159 491 184 c 0
 491 213 449 255 384 290 c 2
EndSplineSet
EndChar
StartChar: dieresis
Encoding: 103 168 114
Width: 600
Flags: W
VStem: 140 100<558 564> 361 100<558 564>
Fore
190 611 m 0
 218 611 240 588 240 560 c 0
 240 534 217 511 190 511 c 128
 163 511 140 534 140 561 c 128
 140 588 163 611 190 611 c 0
411 611 m 0
 439 611 461 588 461 560 c 0
 461 534 438 511 411 511 c 128
 384 511 361 534 361 561 c 128
 361 588 384 611 411 611 c 0
EndSplineSet
EndChar
StartChar: copyright
Encoding: 104 169 115
Width: 600
Flags: W
HStem: -15 41<274 308> 111 36<290 308> 338 105<392 405> 414 36<278.833 308> 537 41<290 308>
VStem: 3 41<259 304> 153 36<256 308> 381 36<421.016 425> 555 41<258 304>
Fore
153 260 m 2
 153 305 l 2
 153 385 216 450 292 450 c 0
 324 450 346 443 381 421 c 1
 381 435 388 443 399 443 c 128
 410 443 417 435 417 423 c 2
 417 358 l 2
 417 346 410 338 399 338 c 0
 389 338 383 345 381 357 c 0
 378 388 338 414 293 414 c 0
 235 414 189 364 189 302 c 2
 189 263 l 2
 189 200 240 147 302 147 c 0
 338 147 363 160 392 194 c 0
 397 200 401 202 408 202 c 0
 417 202 425 194 425 185 c 0
 425 177 418 166 402 152 c 0
 373 125 338 111 302 111 c 0
 223 111 153 181 153 260 c 2
300 578 m 0
 463 578 596 445 596 282 c 0
 596 116 464 -15 296 -15 c 0
 136 -15 3 120 3 282 c 0
 3 445 136 578 300 578 c 0
300 537 m 0
 159 537 44 423 44 282 c 0
 44 142 159 26 296 26 c 0
 441 26 555 139 555 282 c 0
 555 422 440 537 300 537 c 0
EndSplineSet
EndChar
StartChar: ordfeminine
Encoding: 105 170 116
Width: 600
Flags: W
HStem: 279 37<238.364 268> 420 35<282 300> 537 37<282 300>
VStem: 155 37<348 360> 361 37<349 410 446 492> 361 86<294 302>
Fore
361 282 m 1
 361 308 l 1
 320 286 293 279 254 279 c 0
 195 279 155 311 155 358 c 0
 155 415 211 455 288 455 c 0
 311 455 331 452 361 446 c 1
 361 490 l 2
 361 518 335 537 296 537 c 0
 278 537 250 530 220 518 c 0
 212 514 210 514 206 514 c 0
 197 514 189 523 189 533 c 0
 189 542 193 547 203 552 c 0
 233 564 274 574 298 574 c 0
 356 574 398 539 398 490 c 2
 398 319 l 1
 424 319 l 2
 439 319 447 312 447 300 c 0
 447 289 438 282 424 282 c 2
 361 282 l 1
361 350 m 1
 361 409 l 1
 345 415 313 420 290 420 c 0
 233 420 192 393 192 356 c 0
 192 332 217 316 254 316 c 0
 292 316 326 327 361 350 c 1
EndSplineSet
EndChar
StartChar: guillemotleft
Encoding: 106 171 117
Width: 600
Flags: W
Fore
63 209 m 1
 271 406 l 2
 279 414 285 417 292 417 c 0
 303 417 312 408 312 397 c 0
 312 390 311 388 301 377 c 2
 158 209 l 1
 301 40 l 2
 311 29 312 27 312 20 c 0
 312 9 303 0 292 0 c 0
 286 0 279 4 271 11 c 2
 63 209 l 1
292 209 m 1
 500 406 l 2
 508 414 514 417 521 417 c 0
 532 417 541 408 541 397 c 0
 541 390 540 388 530 377 c 2
 387 209 l 1
 530 40 l 2
 540 29 541 27 541 20 c 0
 541 9 532 0 521 0 c 0
 515 0 508 4 500 11 c 2
 292 209 l 1
EndSplineSet
EndChar
StartChar: logicalnot
Encoding: 107 172 118
Width: 600
Flags: W
HStem: 397 41<88.4704 487>
VStem: 487 41<184.47 397>
Fore
487 397 m 1
 99 397 l 2
 81 397 72 404 72 418 c 0
 72 431 81 438 99 438 c 2
 528 438 l 1
 528 195 l 2
 528 177 521 168 507 168 c 0
 494 168 487 177 487 195 c 2
 487 397 l 1
EndSplineSet
EndChar
StartChar: registered
Encoding: 109 174 120
Width: 600
Flags: W
HStem: -15 41<274 314> 120 36<171 196 233 276 430 452> 258 36<233 296> 407 36<171 196 233 324> 537 41<287 314>
VStem: 3 41<259 296> 197 36<155 258 294 407> 380 36<348 354> 555 41<258 296>
Fore
233 258 m 1
 233 156 l 1
 269 156 l 2
 281 156 289 149 289 138 c 128
 289 127 281 120 269 120 c 2
 173 120 l 2
 160 120 152 127 152 138 c 128
 152 149 160 156 173 156 c 2
 197 156 l 1
 197 407 l 1
 173 407 l 2
 160 407 152 414 152 425 c 128
 152 436 160 443 173 443 c 2
 311 443 l 2
 372 443 416 404 416 350 c 0
 416 312 389 281 346 269 c 1
 379 243 390 228 431 156 c 1
 446 156 l 2
 458 156 466 149 466 138 c 128
 466 127 458 120 446 120 c 2
 407 120 l 1
 370 198 331 246 296 258 c 1
 233 258 l 1
233 294 m 1
 289 294 l 2
 345 294 380 316 380 352 c 0
 380 384 351 407 310 407 c 2
 233 407 l 1
 233 294 l 1
300 578 m 0
 463 578 596 445 596 282 c 0
 596 116 464 -15 296 -15 c 0
 136 -15 3 120 3 282 c 0
 3 445 136 578 300 578 c 0
300 537 m 0
 159 537 44 423 44 282 c 0
 44 142 159 26 296 26 c 0
 441 26 555 139 555 282 c 0
 555 422 440 537 300 537 c 0
EndSplineSet
EndChar
StartChar: macron
Encoding: 110 175 121
Width: 600
Flags: W
HStem: 536 40<171.43 428>
Fore
418 536 m 2
 182 536 l 2
 164 536 155 543 155 556 c 128
 155 569 164 576 182 576 c 2
 418 576 l 2
 436 576 445 569 445 556 c 128
 445 543 436 536 418 536 c 2
EndSplineSet
EndChar
StartChar: degree
Encoding: 111 176 122
Width: 600
Flags: W
HStem: 346 41<285.51 303> 595 41<285.707 303>
VStem: 155 41<477.167 507> 404 41<476.707 496>
Fore
300 636 m 0
 380 636 445 571 445 491 c 0
 445 411 380 346 300 346 c 0
 219 346 155 411 155 493 c 0
 155 571 221 636 300 636 c 0
300 595 m 0
 243 595 196 548 196 492 c 0
 196 434 242 387 300 387 c 0
 357 387 404 434 404 491 c 128
 404 548 357 595 300 595 c 0
EndSplineSet
EndChar
StartChar: plusminus
Encoding: 112 177 123
Width: 600
Flags: W
HStem: 0 40<88.43 504> 301 40<88.43 279 319 504>
VStem: 279 41<128.47 301 340 513>
Fore
320 301 m 1
 320 139 l 2
 320 121 313 112 300 112 c 0
 286 112 279 121 279 139 c 2
 279 301 l 1
 99 301 l 2
 81 301 72 308 72 321 c 128
 72 334 81 341 99 341 c 2
 279 341 l 1
 279 502 l 2
 279 520 286 529 300 529 c 0
 313 529 320 520 320 502 c 2
 320 341 l 1
 500 341 l 2
 519 341 528 335 528 321 c 0
 528 308 519 301 500 301 c 2
 320 301 l 1
99 40 m 2
 501 40 l 2
 519 40 528 33 528 20 c 128
 528 7 519 0 501 0 c 2
 99 0 l 2
 81 0 72 7 72 20 c 128
 72 33 81 40 99 40 c 2
EndSplineSet
EndChar
StartChar: twosuperior
Encoding: 113 178 124
Width: 600
Flags: W
HStem: 259 36<219 369> 259 59<382 389> 576 36<286 307>
Fore
219 295 m 1
 369 295 l 1
 369 298 l 2
 369 310 376 318 387 318 c 128
 398 318 405 310 405 298 c 2
 405 259 l 1
 175 259 l 1
 175 302 l 1
 307 425 l 1
 357 475 367 489 367 511 c 0
 367 546 333 576 295 576 c 0
 261 576 230 555 221 524 c 0
 218 513 212 508 203 508 c 128
 194 508 186 516 186 525 c 0
 186 536 194 554 205 568 c 0
 227 596 260 612 295 612 c 0
 353 612 403 565 403 511 c 0
 403 468 386 448 219 295 c 1
EndSplineSet
EndChar
StartChar: threesuperior
Encoding: 114 179 125
Width: 600
Flags: W
HStem: 251 36<286 306> 576 36<286 310>
VStem: 368 36<510.161 523> 380 36<347.443 364>
Fore
358 446 m 1
 397 422 416 394 416 358 c 0
 416 299 361 251 295 251 c 0
 245 251 181 281 181 304 c 0
 181 313 189 321 198 321 c 0
 203 321 206 320 211 316 c 0
 241 295 265 287 295 287 c 0
 341 287 380 320 380 358 c 0
 380 398 341 430 288 431 c 0
 275 432 267 438 267 449 c 0
 267 455 270 461 276 465 c 0
 279 467 279 467 304 467 c 0
 341 467 368 490 368 520 c 0
 368 552 339 576 300 576 c 0
 271 576 246 566 231 549 c 0
 225 541 221 539 215 539 c 0
 205 539 197 547 197 556 c 0
 197 581 254 612 300 612 c 0
 359 612 404 572 404 520 c 0
 404 490 391 468 358 446 c 1
EndSplineSet
EndChar
StartChar: acute
Encoding: 115 180 126
Width: 600
Flags: W
Fore
433 599 m 2
 319 499 l 2
 310 492 306 490 300 490 c 0
 289 490 280 499 280 511 c 0
 280 518 282 521 292 530 c 2
 406 630 l 2
 415 637 419 639 425 639 c 0
 436 639 445 630 445 618 c 0
 445 611 442 607 433 599 c 2
EndSplineSet
EndChar
StartChar: paragraph
Encoding: 117 182 127
Width: 600
Flags: W
HStem: -62 41<177.835 284 437 502> 563 41<325 397 437 502>
VStem: 79 70<401 455> 284 41<-22 261 307 558> 376 149<-47 -39> 397 40<-22 563>
Fore
437 563 m 1
 437 -21 l 1
 499 -21 l 2
 516 -21 525 -28 525 -41 c 0
 525 -55 516 -62 499 -62 c 2
 401 -62 l 2
 386 -62 376 -54 376 -41 c 0
 376 -30 384 -22 397 -21 c 1
 397 563 l 1
 325 563 l 1
 325 -21 l 1
 338 -22 346 -30 346 -41 c 0
 346 -55 337 -62 321 -62 c 2
 187 -62 l 2
 171 -62 161 -54 161 -41 c 128
 161 -28 170 -21 187 -21 c 2
 284 -21 l 1
 284 260 l 1
 237 263 203 271 173 284 c 0
 115 310 79 357 79 406 c 2
 79 453 l 2
 79 543 168 604 298 604 c 2
 498 604 l 2
 514 604 523 596 523 584 c 0
 523 571 514 563 498 563 c 2
 437 563 l 1
284 307 m 1
 284 558 l 1
 207 550 149 504 149 451 c 2
 149 414 l 2
 149 361 207 315 284 307 c 1
EndSplineSet
EndChar
StartChar: periodcentered
Encoding: 118 183 128
Width: 600
Flags: W
Fore
295 348 m 2
 305 348 l 2
 344 348 374 320 374 283 c 0
 374 245 344 217 305 217 c 2
 295 217 l 2
 256 217 226 246 226 283 c 128
 226 320 256 348 295 348 c 2
EndSplineSet
EndChar
StartChar: cedilla
Encoding: 119 184 129
Width: 600
Flags: W
HStem: -173 38<289 307> -20 20G<274 312>
VStem: 274 38<-48 0> 340 37<-113 -104>
Fore
274 0 m 1
 312 0 l 1
 312 -47 l 1
 353 -48 377 -70 377 -108 c 0
 377 -147 345 -173 298 -173 c 0
 278 -173 247 -165 228 -155 c 0
 214 -148 210 -143 210 -133 c 0
 210 -122 219 -114 230 -114 c 0
 234 -114 237 -115 245 -119 c 0
 267 -131 281 -135 296 -135 c 0
 322 -135 340 -123 340 -106 c 128
 340 -89 325 -81 294 -81 c 2
 274 -81 l 1
 274 0 l 1
EndSplineSet
EndChar
StartChar: onesuperior
Encoding: 120 185 130
Width: 600
Flags: W
HStem: 259 37<209 283 318 392>
VStem: 283 36<295 563>
Fore
319 612 m 1
 319 295 l 1
 390 295 l 2
 402 295 410 288 410 277 c 128
 410 266 402 259 390 259 c 2
 212 259 l 2
 199 259 191 266 191 277 c 0
 191 290 201 296 222 296 c 0
 230 296 261 296 283 295 c 1
 283 563 l 1
 218 542 l 2
 214 541 211 540 209 540 c 0
 201 540 192 549 192 558 c 0
 192 573 192 573 319 612 c 1
EndSplineSet
EndChar
StartChar: ordmasculine
Encoding: 121 186 131
Width: 600
Flags: W
HStem: 284 37<297 315> 540 37<297 315>
VStem: 154 37<427 445> 411 37<414.647 445>
Fore
301 577 m 0
 383 577 448 512 448 429 c 0
 448 350 381 284 301 284 c 0
 220 284 154 350 154 431 c 0
 154 511 220 577 301 577 c 0
301 540 m 0
 240 540 191 491 191 431 c 0
 191 370 241 321 301 321 c 128
 361 321 411 370 411 429 c 0
 411 491 363 540 301 540 c 0
EndSplineSet
EndChar
StartChar: guillemotright
Encoding: 122 187 132
Width: 600
Flags: W
Fore
311 208 m 1
 104 11 l 2
 96 3 90 0 83 0 c 0
 72 0 63 9 63 20 c 0
 63 27 64 29 74 40 c 2
 216 208 l 1
 74 377 l 2
 64 388 63 390 63 397 c 0
 63 408 72 417 83 417 c 0
 89 417 96 413 104 406 c 2
 311 208 l 1
541 208 m 1
 334 11 l 2
 326 3 320 0 313 0 c 0
 302 0 293 9 293 20 c 0
 293 27 294 29 304 40 c 2
 446 208 l 1
 304 377 l 2
 294 388 293 390 293 397 c 0
 293 408 302 417 313 417 c 0
 319 417 326 413 334 406 c 2
 541 208 l 1
EndSplineSet
EndChar
StartChar: onequarter
Encoding: 123 188 133
Width: 600
Flags: W
HStem: 0 35<463 510 546 561> 93 36<401 510 546 561> 259 37<34 108 143 217>
VStem: 108 36<295 563> 453 127<15 21> 510 36<35 93 129 309>
Fore
144 612 m 1
 144 295 l 1
 215 295 l 2
 228 295 236 288 236 277 c 128
 236 266 227 259 215 259 c 2
 37 259 l 2
 24 259 16 266 16 277 c 0
 16 290 26 296 47 296 c 0
 55 296 86 296 108 295 c 1
 108 563 l 1
 43 542 l 2
 39 541 36 540 34 540 c 0
 26 540 17 549 17 558 c 0
 17 573 17 573 144 612 c 1
492 477 m 1
 141 63 l 2
 133 53 129 51 123 51 c 0
 112 51 103 60 103 71 c 0
 103 75 106 81 112 88 c 2
 462 502 l 2
 471 512 474 514 480 514 c 0
 491 514 500 505 500 494 c 0
 500 490 496 483 492 477 c 1
510 93 m 1
 361 93 l 1
 361 127 l 1
 489 345 l 1
 546 345 l 1
 546 129 l 1
 559 129 l 2
 572 129 580 122 580 111 c 0
 580 99 571 93 555 93 c 2
 546 93 l 1
 546 36 l 1
 559 36 l 2
 572 36 580 29 580 18 c 128
 580 7 572 0 559 0 c 2
 474 0 l 2
 461 0 453 7 453 18 c 0
 453 25 458 32 464 35 c 0
 469 36 469 36 510 36 c 1
 510 93 l 1
510 129 m 1
 510 309 l 1
 508 309 l 1
 401 129 l 1
 510 129 l 1
EndSplineSet
Ligature2: "'frac' Diagonal Fractions lookup 1 subtable" one slash four
Ligature2: "'frac' Diagonal Fractions lookup 1 subtable" one fraction four
EndChar
StartChar: onehalf
Encoding: 124 189 134
Width: 600
Flags: W
HStem: 0 36<387 537> 0 59<550 557> 259 37<41 115 150 224> 317 36<453 476>
VStem: 115 36<295 563>
Fore
485 477 m 1
 134 63 l 2
 126 53 122 51 116 51 c 0
 105 51 96 60 96 71 c 0
 96 75 99 81 105 88 c 2
 455 502 l 2
 464 512 467 514 473 514 c 0
 484 514 493 505 493 494 c 0
 493 490 489 483 485 477 c 1
151 612 m 1
 151 295 l 1
 222 295 l 2
 234 295 242 288 242 277 c 128
 242 266 234 259 222 259 c 2
 44 259 l 2
 31 259 23 266 23 277 c 0
 23 290 33 296 54 296 c 0
 62 296 93 296 115 295 c 1
 115 563 l 1
 50 542 l 2
 46 541 43 540 41 540 c 0
 33 540 24 549 24 558 c 0
 24 573 24 573 151 612 c 1
387 36 m 1
 537 36 l 1
 537 39 l 2
 537 51 544 59 555 59 c 128
 566 59 573 51 573 39 c 2
 573 0 l 1
 343 0 l 1
 343 43 l 1
 475 166 l 1
 525 216 535 230 535 252 c 0
 535 287 501 317 463 317 c 0
 429 317 398 296 389 265 c 0
 386 254 380 249 371 249 c 128
 362 249 354 257 354 266 c 0
 354 277 362 295 373 309 c 0
 395 337 428 353 463 353 c 0
 521 353 571 306 571 252 c 0
 571 209 554 189 387 36 c 1
EndSplineSet
Ligature2: "'frac' Diagonal Fractions lookup 1 subtable" one slash two
Ligature2: "'frac' Diagonal Fractions lookup 1 subtable" one fraction two
EndChar
StartChar: threequarters
Encoding: 125 190 135
Width: 600
Flags: W
HStem: 0 35<463 510 546 567> 93 36<401 510 546 561> 251 36<103 131> 576 36<110 135>
VStem: 193 36<511 529> 205 36<351 369> 453 127<15 21> 510 36<35 93 129 309>
Fore
183 446 m 1
 222 422 241 394 241 358 c 0
 241 299 186 251 120 251 c 0
 70 251 6 281 6 304 c 0
 6 313 14 321 23 321 c 0
 28 321 31 320 36 316 c 0
 66 295 90 287 120 287 c 0
 166 287 205 320 205 358 c 0
 205 398 166 430 113 431 c 0
 100 432 92 438 92 449 c 0
 92 455 95 461 101 465 c 0
 104 467 104 467 129 467 c 0
 166 467 193 490 193 520 c 0
 193 552 164 576 125 576 c 0
 96 576 71 566 56 549 c 0
 50 541 46 539 40 539 c 0
 30 539 22 547 22 556 c 0
 22 581 79 612 125 612 c 0
 184 612 229 572 229 520 c 0
 229 490 216 468 183 446 c 1
491 477 m 1
 140 63 l 2
 132 53 128 51 122 51 c 0
 111 51 102 60 102 71 c 0
 102 76 104 80 111 88 c 2
 461 502 l 2
 470 512 473 514 479 514 c 0
 490 514 499 505 499 494 c 0
 499 490 495 483 491 477 c 1
510 93 m 1
 361 93 l 1
 361 127 l 1
 489 345 l 1
 546 345 l 1
 546 129 l 1
 559 129 l 2
 572 129 580 122 580 111 c 0
 580 99 571 93 555 93 c 2
 546 93 l 1
 546 36 l 1
 559 36 l 2
 572 36 580 29 580 18 c 128
 580 7 572 0 559 0 c 2
 474 0 l 2
 461 0 453 7 453 18 c 0
 453 25 458 32 464 35 c 0
 469 36 469 36 510 36 c 1
 510 93 l 1
510 129 m 1
 510 309 l 1
 508 309 l 1
 401 129 l 1
 510 129 l 1
EndSplineSet
Ligature2: "'frac' Diagonal Fractions lookup 1 subtable" three slash four
Ligature2: "'frac' Diagonal Fractions lookup 1 subtable" three fraction four
EndChar
StartChar: questiondown
Encoding: 126 191 136
Width: 600
Flags: W
HStem: -175 41<276 319> 317 100<276 321>
VStem: 113 41<-34 -14> 278 41<154 198> 425 41<-101 -57>
Fore
278 155 m 1
 278 196 l 2
 278 214 285 223 298 223 c 0
 312 223 319 214 319 196 c 2
 319 128 l 1
 203 80 154 36 154 -21 c 0
 154 -87 213 -134 296 -134 c 0
 341 -134 372 -126 425 -100 c 1
 425 -59 l 2
 425 -41 432 -32 445 -32 c 0
 459 -32 466 -41 466 -59 c 2
 466 -126 l 1
 456 -131 448 -134 437 -139 c 0
 374 -167 342 -175 291 -175 c 0
 185 -175 113 -113 113 -21 c 0
 113 53 153 96 278 155 c 1
313 317 m 2
 286 317 l 2
 252 317 229 338 229 367 c 128
 229 396 252 417 286 417 c 2
 313 417 l 2
 347 417 370 397 370 367 c 128
 370 337 347 317 313 317 c 2
EndSplineSet
EndChar
StartChar: Agrave
Encoding: 127 192 137
Width: 600
Flags: W
HStem: 0 41<25.4704 67 108 189 397.47 484 526 570> 188 41<178 413> 522 41<120 246 285 301>
VStem: 9 205<15 23> 381 210<15 23>
Fore
428 188 m 1
 162 188 l 1
 108 41 l 1
 187 41 l 2
 205 41 214 34 214 21 c 0
 214 7 205 0 187 0 c 2
 36 0 l 2
 18 0 9 7 9 21 c 0
 9 34 18 41 36 41 c 2
 67 41 l 1
 246 522 l 1
 126 522 l 2
 108 522 99 529 99 543 c 0
 99 556 108 563 126 563 c 2
 330 563 l 1
 527 41 l 1
 564 41 l 2
 582 41 591 34 591 21 c 0
 591 7 582 0 564 0 c 2
 408 0 l 2
 390 0 381 7 381 21 c 0
 381 34 390 41 408 41 c 2
 484 41 l 1
 428 188 l 1
413 229 m 1
 301 522 l 1
 286 522 l 1
 178 229 l 1
 413 229 l 1
204 780 m 2
 318 680 l 1
 325 672 l 2
 330 667 330 667 330 661 c 0
 330 649 321 640 309 640 c 0
 304 640 298 643 291 649 c 2
 177 749 l 2
 168 757 165 761 165 769 c 0
 165 780 174 789 185 789 c 0
 191 789 196 786 204 780 c 2
EndSplineSet
EndChar
StartChar: Aacute
Encoding: 128 193 138
Width: 600
Flags: W
HStem: 0 41<25.4704 67 108 190 397.47 484 526 570> 188 41<178 413> 522 41<120 246 285 301>
VStem: 9 205<15 23> 381 210<15 23>
Fore
428 188 m 1
 162 188 l 1
 108 41 l 1
 187 41 l 2
 205 41 214 34 214 21 c 0
 214 7 205 0 187 0 c 2
 36 0 l 2
 18 0 9 7 9 21 c 0
 9 34 18 41 36 41 c 2
 67 41 l 1
 246 522 l 1
 126 522 l 2
 108 522 99 529 99 543 c 0
 99 556 108 563 126 563 c 2
 330 563 l 1
 527 41 l 1
 564 41 l 2
 582 41 591 34 591 21 c 0
 591 7 582 0 564 0 c 2
 408 0 l 2
 390 0 381 7 381 21 c 0
 381 34 390 41 408 41 c 2
 484 41 l 1
 428 188 l 1
413 229 m 1
 301 522 l 1
 286 522 l 1
 178 229 l 1
 413 229 l 1
371 749 m 2
 257 649 l 2
 248 642 244 640 238 640 c 0
 227 640 218 649 218 661 c 0
 218 668 220 671 230 680 c 2
 344 780 l 2
 353 787 357 789 363 789 c 0
 374 789 383 780 383 768 c 0
 383 761 380 757 371 749 c 2
EndSplineSet
EndChar
StartChar: Acircumflex
Encoding: 129 194 139
Width: 600
Flags: W
HStem: 0 41<25.4704 67 108 190 397 484 526 570> 188 41<178 413> 522 41<120 246 285 301>
VStem: 9 205<15 23> 381 210<15 23>
Fore
428 188 m 1
 162 188 l 1
 108 41 l 1
 187 41 l 2
 205 41 214 34 214 21 c 0
 214 7 205 0 187 0 c 2
 36 0 l 2
 18 0 9 7 9 21 c 0
 9 34 18 41 36 41 c 2
 67 41 l 1
 246 522 l 1
 126 522 l 2
 108 522 99 529 99 543 c 0
 99 556 108 563 126 563 c 2
 330 563 l 1
 527 41 l 1
 564 41 l 2
 582 41 591 34 591 21 c 0
 591 7 582 0 564 0 c 2
 408 0 l 2
 390 0 381 7 381 21 c 0
 381 34 390 41 408 41 c 2
 484 41 l 1
 428 188 l 1
413 229 m 1
 301 522 l 1
 286 522 l 1
 178 229 l 1
 413 229 l 1
273 789 m 1
 405 681 l 2
 416 672 418 668 418 660 c 0
 418 649 409 640 398 640 c 0
 393 640 387 643 380 648 c 2
 273 736 l 1
 166 648 l 2
 159 643 153 640 148 640 c 0
 137 640 128 649 128 660 c 0
 128 668 131 673 141 680 c 1
 273 789 l 1
EndSplineSet
EndChar
StartChar: Atilde
Encoding: 130 195 140
Width: 600
Flags: W
HStem: 0 41<25.4704 67 108 190 404 484 526 570> 188 41<178 413> 522 41<116 246 285 301> 666 41<328 339> 714 41<201.337 217>
VStem: 9 205<15 23> 381 210<15 23>
Fore
428 188 m 1
 162 188 l 1
 108 41 l 1
 187 41 l 2
 205 41 214 34 214 21 c 0
 214 7 205 0 187 0 c 2
 36 0 l 2
 18 0 9 7 9 21 c 0
 9 34 18 41 36 41 c 2
 67 41 l 1
 246 522 l 1
 126 522 l 2
 108 522 99 529 99 543 c 0
 99 556 108 563 126 563 c 2
 330 563 l 1
 527 41 l 1
 564 41 l 2
 582 41 591 34 591 21 c 0
 591 7 582 0 564 0 c 2
 408 0 l 2
 390 0 381 7 381 21 c 0
 381 34 390 41 408 41 c 2
 484 41 l 1
 428 188 l 1
413 229 m 1
 301 522 l 1
 286 522 l 1
 178 229 l 1
 413 229 l 1
408 753 m 0
 418 753 428 744 428 733 c 0
 428 725 424 719 406 702 c 0
 380 676 360 666 337 666 c 0
 315 666 296 673 256 697 c 0
 236 710 225 714 213 714 c 0
 193 714 184 708 155 677 c 0
 151 672 144 669 138 669 c 0
 127 669 118 677 118 688 c 0
 118 696 124 705 137 718 c 0
 166 745 187 755 212 755 c 0
 232 755 244 751 276 732 c 0
 314 711 322 707 335 707 c 0
 352 707 362 714 392 745 c 0
 398 751 402 753 408 753 c 0
EndSplineSet
EndChar
StartChar: Adieresis
Encoding: 131 196 141
Width: 600
Flags: W
HStem: 0 41<25.4704 67 108 190 397.47 484 526 570> 188 41<178 413> 522 41<120 246 285 301> 661 100<152 170 376 385>
VStem: 9 205<15 23> 112 100<703 721> 333 100<703 721> 381 210<15 23>
Fore
428 188 m 1
 162 188 l 1
 108 41 l 1
 187 41 l 2
 205 41 214 34 214 21 c 0
 214 7 205 0 187 0 c 2
 36 0 l 2
 18 0 9 7 9 21 c 0
 9 34 18 41 36 41 c 2
 67 41 l 1
 246 522 l 1
 126 522 l 2
 108 522 99 529 99 543 c 0
 99 556 108 563 126 563 c 2
 330 563 l 1
 527 41 l 1
 564 41 l 2
 582 41 591 34 591 21 c 0
 591 7 582 0 564 0 c 2
 408 0 l 2
 390 0 381 7 381 21 c 0
 381 34 390 41 408 41 c 2
 484 41 l 1
 428 188 l 1
413 229 m 1
 301 522 l 1
 286 522 l 1
 178 229 l 1
 413 229 l 1
162 761 m 0
 190 761 212 738 212 710 c 0
 212 684 189 661 162 661 c 128
 135 661 112 684 112 711 c 128
 112 738 135 761 162 761 c 0
383 761 m 0
 411 761 433 738 433 710 c 0
 433 684 410 661 383 661 c 128
 356 661 333 684 333 711 c 128
 333 738 356 761 383 761 c 0
EndSplineSet
EndChar
StartChar: Aring
Encoding: 132 197 142
Width: 600
Flags: W
HStem: 0 41<25.4704 67 108 190 397.47 484 526 570> 188 41<178 413> 522 41<120 246 285 301> 630 33<265.885 288> 778 33<265.839 288>
VStem: 9 205<15 23> 184 33<717 723> 337 33<717 723> 381 210<15 23>
Fore
428 188 m 1
 162 188 l 1
 108 41 l 1
 187 41 l 2
 205 41 214 34 214 21 c 0
 214 7 205 0 187 0 c 2
 36 0 l 2
 18 0 9 7 9 21 c 0
 9 34 18 41 36 41 c 2
 67 41 l 1
 246 522 l 1
 126 522 l 2
 108 522 99 529 99 543 c 0
 99 556 108 563 126 563 c 2
 330 563 l 1
 527 41 l 1
 564 41 l 2
 582 41 591 34 591 21 c 0
 591 7 582 0 564 0 c 2
 408 0 l 2
 390 0 381 7 381 21 c 0
 381 34 390 41 408 41 c 2
 484 41 l 1
 428 188 l 1
413 229 m 1
 301 522 l 1
 286 522 l 1
 178 229 l 1
 413 229 l 1
277 811 m 0
 329 811 370 771 370 719 c 0
 370 671 328 630 277 630 c 128
 226 630 184 671 184 721 c 0
 184 770 226 811 277 811 c 0
277 778 m 0
 244 778 217 752 217 721 c 0
 217 689 244 663 277 663 c 128
 310 663 337 689 337 720 c 0
 337 752 310 778 277 778 c 0
EndSplineSet
EndChar
StartChar: AE
Encoding: 133 198 143
Width: 600
Flags: W
HStem: 0 41<26.4704 74 115 147 234.47 297 338 549> 0 160<567 573> 189 41<167 297> 273 41<338 416> 522 41<137 207 246 297 338 529>
VStem: 10 158<15 23> 297 41<41 189 230 273 314 522> 416 40<239 273 314 353> 529 41<400.47 522> 549 41<41 136>
Fore
297 189 m 1
 156 189 l 1
 115 41 l 1
 141 41 l 2
 159 41 168 34 168 21 c 0
 168 7 159 0 141 0 c 2
 37 0 l 2
 19 0 10 7 10 21 c 0
 10 34 19 41 37 41 c 2
 74 41 l 1
 207 522 l 1
 144 522 l 2
 126 522 117 529 117 543 c 0
 117 556 126 563 144 563 c 2
 570 563 l 1
 570 411 l 2
 570 393 563 384 549 384 c 0
 536 384 529 393 529 411 c 2
 529 522 l 1
 338 522 l 1
 338 314 l 1
 416 314 l 1
 416 342 l 2
 416 360 423 369 436 369 c 0
 450 369 456 360 456 342 c 2
 456 246 l 2
 456 228 449 219 436 219 c 128
 423 219 416 229 416 246 c 2
 416 273 l 1
 338 273 l 1
 338 41 l 1
 549 41 l 1
 549 134 l 2
 549 153 555 160 569 160 c 0
 582 160 590 149 590 134 c 2
 590 0 l 1
 245 0 l 2
 227 0 218 7 218 21 c 0
 218 34 227 41 245 41 c 2
 297 41 l 1
 297 189 l 1
297 230 m 1
 297 522 l 1
 247 522 l 1
 167 230 l 1
 297 230 l 1
EndSplineSet
EndChar
StartChar: Ccedilla
Encoding: 134 199 144
Width: 600
Flags: W
HStem: -173 38<297 307> -47 31<317 358> -16 41<317 345> 535 41<286 324>
VStem: 63 41<240 340> 345 37<-113 -104>
Fore
317 -16 m 1
 317 -47 l 1
 358 -48 382 -70 382 -108 c 0
 382 -147 350 -173 303 -173 c 0
 283 -173 252 -165 233 -155 c 0
 219 -148 215 -143 215 -133 c 0
 215 -122 224 -114 235 -114 c 0
 238 -114 242 -115 250 -119 c 0
 273 -131 286 -135 301 -135 c 0
 327 -135 345 -123 345 -106 c 128
 345 -89 330 -81 299 -81 c 2
 279 -81 l 1
 279 -12 l 1
 235 -1 211 8 183 28 c 0
 110 78 63 161 63 242 c 2
 63 325 l 2
 63 386 91 456 134 502 c 0
 179 550 238 576 305 576 c 0
 371 576 431 552 478 507 c 1
 478 536 l 2
 478 554 485 563 499 563 c 0
 512 563 519 554 519 536 c 2
 519 424 l 2
 519 406 512 397 498 397 c 0
 486 397 479 405 478 421 c 0
 474 482 394 535 305 535 c 0
 194 535 104 438 104 319 c 2
 104 248 l 2
 104 128 204 25 322 25 c 0
 391 25 442 51 496 115 c 0
 503 123 507 125 514 125 c 0
 526 125 534 117 534 106 c 0
 534 96 522 79 496 55 c 0
 450 12 385 -16 330 -16 c 2
 317 -16 l 1
EndSplineSet
EndChar
StartChar: Egrave
Encoding: 135 200 145
Width: 600
Flags: W
HStem: 0 41<59.4704 124 165 480> 0 187<497 503> 272 41<165 310> 522 41<59.4704 124 165 458>
VStem: 124 41<41 272 313 522> 310 41<223 272 313 369> 458 41<415 522> 479 41<41 162>
Fore
165 272 m 1
 165 41 l 1
 479 41 l 1
 479 160 l 2
 479 178 486 187 500 187 c 0
 513 187 520 178 520 160 c 2
 520 0 l 1
 70 0 l 2
 52 0 43 7 43 21 c 0
 43 34 52 41 70 41 c 2
 124 41 l 1
 124 522 l 1
 70 522 l 2
 52 522 43 529 43 543 c 0
 43 556 52 563 70 563 c 2
 499 563 l 1
 499 424 l 2
 499 406 492 397 478 397 c 0
 465 397 458 406 458 424 c 2
 458 522 l 1
 165 522 l 1
 165 313 l 1
 310 313 l 1
 310 358 l 2
 310 376 317 385 331 385 c 0
 344 385 351 376 351 358 c 2
 351 227 l 2
 351 209 344 200 331 200 c 0
 317 200 310 209 310 227 c 2
 310 272 l 1
 165 272 l 1
215 780 m 2
 329 680 l 1
 336 672 l 2
 341 667 341 667 341 661 c 0
 341 649 332 640 320 640 c 0
 315 640 309 643 302 649 c 2
 188 749 l 2
 179 757 176 761 176 769 c 0
 176 780 185 789 196 789 c 0
 202 789 207 786 215 780 c 2
EndSplineSet
EndChar
StartChar: Eacute
Encoding: 136 201 146
Width: 600
Flags: W
HStem: 0 41<59.4704 124 165 480> 0 187<497 503> 272 41<165 310> 522 41<59.4704 124 165 458>
VStem: 124 41<41 272 313 522> 310 41<223 272 313 369> 458 41<415 522> 479 41<41 162>
Fore
165 272 m 1
 165 41 l 1
 479 41 l 1
 479 160 l 2
 479 178 486 187 500 187 c 0
 513 187 520 178 520 160 c 2
 520 0 l 1
 70 0 l 2
 52 0 43 7 43 21 c 0
 43 34 52 41 70 41 c 2
 124 41 l 1
 124 522 l 1
 70 522 l 2
 52 522 43 529 43 543 c 0
 43 556 52 563 70 563 c 2
 499 563 l 1
 499 424 l 2
 499 406 492 397 478 397 c 0
 465 397 458 406 458 424 c 2
 458 522 l 1
 165 522 l 1
 165 313 l 1
 310 313 l 1
 310 358 l 2
 310 376 317 385 331 385 c 0
 344 385 351 376 351 358 c 2
 351 227 l 2
 351 209 344 200 331 200 c 0
 317 200 310 209 310 227 c 2
 310 272 l 1
 165 272 l 1
389 749 m 2
 275 649 l 2
 266 642 262 640 256 640 c 0
 245 640 236 649 236 661 c 0
 236 668 238 671 248 680 c 2
 362 780 l 2
 371 787 375 789 381 789 c 0
 392 789 401 780 401 768 c 0
 401 761 398 757 389 749 c 2
EndSplineSet
EndChar
StartChar: Ecircumflex
Encoding: 137 202 147
Width: 600
Flags: W
HStem: 0 41<59.4704 124 165 480> 0 187<497 503> 272 41<165 310> 522 41<59.4704 124 165 458>
VStem: 124 41<41 272 313 522> 310 41<223 272 313 369> 458 41<415 522> 479 41<41 162>
Fore
165 272 m 1
 165 41 l 1
 479 41 l 1
 479 160 l 2
 479 178 486 187 500 187 c 0
 513 187 520 178 520 160 c 2
 520 0 l 1
 70 0 l 2
 52 0 43 7 43 21 c 0
 43 34 52 41 70 41 c 2
 124 41 l 1
 124 522 l 1
 70 522 l 2
 52 522 43 529 43 543 c 0
 43 556 52 563 70 563 c 2
 499 563 l 1
 499 424 l 2
 499 406 492 397 478 397 c 0
 465 397 458 406 458 424 c 2
 458 522 l 1
 165 522 l 1
 165 313 l 1
 310 313 l 1
 310 358 l 2
 310 376 317 385 331 385 c 0
 344 385 351 376 351 358 c 2
 351 227 l 2
 351 209 344 200 331 200 c 0
 317 200 310 209 310 227 c 2
 310 272 l 1
 165 272 l 1
291 789 m 1
 423 681 l 2
 434 672 436 668 436 660 c 0
 436 649 427 640 416 640 c 0
 411 640 405 643 398 648 c 2
 291 736 l 1
 184 648 l 2
 177 643 171 640 166 640 c 0
 155 640 146 649 146 660 c 0
 146 668 149 673 159 680 c 1
 291 789 l 1
EndSplineSet
EndChar
StartChar: Edieresis
Encoding: 138 203 148
Width: 600
Flags: W
HStem: 0 41<59.4704 124 165 480> 0 187<497 503> 272 41<165 310> 522 41<59.4704 124 165 458> 661 100<171.27 188 394 412>
VStem: 124 41<41 272 313 522> 131 100<703 721> 310 41<223 272 313 369> 352 100<703 721> 458 41<415 522> 479 41<41 162>
Fore
165 272 m 1
 165 41 l 1
 479 41 l 1
 479 160 l 2
 479 178 486 187 500 187 c 0
 513 187 520 178 520 160 c 2
 520 0 l 1
 70 0 l 2
 52 0 43 7 43 21 c 0
 43 34 52 41 70 41 c 2
 124 41 l 1
 124 522 l 1
 70 522 l 2
 52 522 43 529 43 543 c 0
 43 556 52 563 70 563 c 2
 499 563 l 1
 499 424 l 2
 499 406 492 397 478 397 c 0
 465 397 458 406 458 424 c 2
 458 522 l 1
 165 522 l 1
 165 313 l 1
 310 313 l 1
 310 358 l 2
 310 376 317 385 331 385 c 0
 344 385 351 376 351 358 c 2
 351 227 l 2
 351 209 344 200 331 200 c 0
 317 200 310 209 310 227 c 2
 310 272 l 1
 165 272 l 1
181 761 m 0
 209 761 231 738 231 710 c 0
 231 684 208 661 181 661 c 128
 154 661 131 684 131 711 c 128
 131 738 154 761 181 761 c 0
402 761 m 0
 430 761 452 738 452 710 c 0
 452 684 429 661 402 661 c 128
 375 661 352 684 352 711 c 128
 352 738 375 761 402 761 c 0
EndSplineSet
EndChar
StartChar: Igrave
Encoding: 139 204 149
Width: 600
Flags: W
HStem: 0 41<129.47 279 320 466> 522 41<129.47 279 320 466>
VStem: 279 41<40 522>
Fore
320 522 m 1
 320 41 l 1
 459 41 l 2
 478 41 487 34 487 21 c 0
 487 7 477 0 459 0 c 2
 140 0 l 2
 122 0 113 7 113 21 c 0
 113 34 122 41 140 41 c 2
 279 41 l 1
 279 522 l 1
 140 522 l 2
 122 522 113 529 113 543 c 0
 113 556 122 563 140 563 c 2
 459 563 l 2
 478 563 487 556 487 543 c 0
 487 529 478 522 459 522 c 2
 320 522 l 1
230 780 m 2
 344 680 l 1
 351 672 l 2
 356 667 356 667 356 661 c 0
 356 649 347 640 335 640 c 0
 330 640 324 643 317 649 c 2
 203 749 l 2
 194 757 191 761 191 769 c 0
 191 780 200 789 211 789 c 0
 217 789 222 786 230 780 c 2
EndSplineSet
EndChar
StartChar: Iacute
Encoding: 140 205 150
Width: 600
Flags: W
HStem: 0 41<129.47 279 320 466> 522 41<129.47 279 320 466>
VStem: 279 41<40 522>
Fore
320 522 m 1
 320 41 l 1
 459 41 l 2
 478 41 487 34 487 21 c 0
 487 7 477 0 459 0 c 2
 140 0 l 2
 122 0 113 7 113 21 c 0
 113 34 122 41 140 41 c 2
 279 41 l 1
 279 522 l 1
 140 522 l 2
 122 522 113 529 113 543 c 0
 113 556 122 563 140 563 c 2
 459 563 l 2
 478 563 487 556 487 543 c 0
 487 529 478 522 459 522 c 2
 320 522 l 1
433 749 m 2
 319 649 l 2
 310 642 306 640 300 640 c 0
 289 640 280 649 280 661 c 0
 280 668 282 671 292 680 c 2
 406 780 l 2
 415 787 419 789 425 789 c 0
 436 789 445 780 445 768 c 0
 445 761 442 757 433 749 c 2
EndSplineSet
EndChar
StartChar: Icircumflex
Encoding: 141 206 151
Width: 600
Flags: W
HStem: 0 41<129.47 279 320 466> 522 41<129.47 279 320 466>
VStem: 279 41<40 522>
Fore
320 522 m 1
 320 41 l 1
 459 41 l 2
 478 41 487 34 487 21 c 0
 487 7 477 0 459 0 c 2
 140 0 l 2
 122 0 113 7 113 21 c 0
 113 34 122 41 140 41 c 2
 279 41 l 1
 279 522 l 1
 140 522 l 2
 122 522 113 529 113 543 c 0
 113 556 122 563 140 563 c 2
 459 563 l 2
 478 563 487 556 487 543 c 0
 487 529 478 522 459 522 c 2
 320 522 l 1
300 789 m 1
 432 681 l 2
 443 672 445 668 445 660 c 0
 445 649 436 640 425 640 c 0
 420 640 414 643 407 648 c 2
 300 736 l 1
 193 648 l 2
 186 643 180 640 175 640 c 0
 164 640 155 649 155 660 c 0
 155 668 158 673 168 680 c 1
 300 789 l 1
EndSplineSet
EndChar
StartChar: Idieresis
Encoding: 142 207 152
Width: 600
Flags: W
HStem: 0 41<137 279 320 466> 522 41<137 279 320 466> 661 100<179.27 194 401.27 418>
VStem: 139 100<703 721> 279 41<40 522> 361 100<703 721>
Fore
320 522 m 1
 320 41 l 1
 459 41 l 2
 478 41 487 34 487 21 c 0
 487 7 477 0 459 0 c 2
 140 0 l 2
 122 0 113 7 113 21 c 0
 113 34 122 41 140 41 c 2
 279 41 l 1
 279 522 l 1
 140 522 l 2
 122 522 113 529 113 543 c 0
 113 556 122 563 140 563 c 2
 459 563 l 2
 478 563 487 556 487 543 c 0
 487 529 478 522 459 522 c 2
 320 522 l 1
189 761 m 0
 217 761 239 738 239 710 c 0
 239 684 216 661 189 661 c 128
 162 661 139 684 139 711 c 128
 139 738 162 761 189 761 c 0
411 761 m 0
 439 761 461 738 461 710 c 0
 461 684 438 661 411 661 c 128
 384 661 361 684 361 711 c 128
 361 738 384 761 411 761 c 0
EndSplineSet
EndChar
StartChar: Eth
Encoding: 143 208 153
Width: 600
Flags: W
HStem: 0 41<63 104 145 309> 272 41<16.4704 104 145 309> 522 41<63 104 145 309>
VStem: 104 41<41 272 312 522> 479 41<239 321>
Fore
104 272 m 1
 27 272 l 2
 9 272 0 279 0 293 c 0
 0 306 9 313 27 313 c 2
 104 313 l 1
 104 522 l 1
 70 522 l 2
 52 522 43 529 43 543 c 0
 43 556 52 563 70 563 c 2
 290 563 l 2
 416 563 520 448 520 310 c 2
 520 254 l 2
 520 115 416 0 290 0 c 2
 70 0 l 2
 52 0 43 7 43 21 c 0
 43 34 52 41 70 41 c 2
 104 41 l 1
 104 272 l 1
145 522 m 1
 145 313 l 1
 307 313 l 2
 325 313 334 306 334 293 c 0
 334 279 325 272 307 272 c 2
 145 272 l 1
 145 41 l 1
 295 41 l 2
 389 41 479 140 479 245 c 2
 479 319 l 2
 479 371 454 431 414 472 c 0
 379 507 342 522 288 522 c 2
 145 522 l 1
EndSplineSet
EndChar
StartChar: Ntilde
Encoding: 144 209 154
Width: 600
Flags: W
HStem: 0 41<58.4704 103 144 221> 522 41<40 103 374.96 460 501 537> 666 41<356 364> 714 41<229 248>
VStem: 103 41<40 504> 460 41<59 522>
Fore
501 0 m 1
 449 0 l 1
 144 504 l 1
 144 41 l 1
 219 41 l 2
 237 41 246 34 246 21 c 0
 246 7 236 0 219 0 c 2
 69 0 l 2
 51 0 42 7 42 21 c 0
 42 34 51 41 69 41 c 2
 103 41 l 1
 103 522 l 1
 49 522 l 2
 31 522 22 529 22 543 c 0
 22 556 31 563 49 563 c 2
 155 563 l 1
 460 59 l 1
 460 522 l 1
 386 522 l 2
 367 522 358 529 358 543 c 0
 358 556 367 563 386 563 c 2
 535 563 l 2
 553 563 562 556 562 543 c 0
 562 529 553 522 535 522 c 2
 501 522 l 1
 501 0 l 1
433 753 m 0
 443 753 453 744 453 733 c 0
 453 725 449 719 431 702 c 0
 405 676 385 666 362 666 c 0
 340 666 321 673 281 697 c 0
 261 710 250 714 238 714 c 0
 218 714 209 708 180 677 c 0
 176 672 169 669 163 669 c 0
 152 669 143 677 143 688 c 0
 143 696 149 705 162 718 c 0
 191 745 212 755 237 755 c 0
 257 755 269 751 301 732 c 0
 339 711 347 707 360 707 c 0
 377 707 387 714 417 745 c 0
 423 751 427 753 433 753 c 0
EndSplineSet
EndChar
StartChar: Ograve
Encoding: 145 210 155
Width: 600
Flags: W
HStem: -16 41<290 313> 535 41<290 313>
VStem: 51 41<255 305> 508 41<255 289>
Fore
300 576 m 0
 441 576 549 446 549 276 c 0
 549 115 437 -16 300 -16 c 0
 161 -16 51 115 51 280 c 128
 51 445 161 576 300 576 c 0
300 535 m 0
 185 535 92 420 92 280 c 128
 92 140 186 25 300 25 c 0
 413 25 508 140 508 277 c 0
 508 421 416 535 300 535 c 0
224 780 m 2
 338 680 l 1
 345 672 l 2
 350 667 350 667 350 661 c 0
 350 649 341 640 329 640 c 0
 324 640 318 643 311 649 c 2
 197 749 l 2
 188 757 185 761 185 769 c 0
 185 780 194 789 205 789 c 0
 211 789 216 786 224 780 c 2
EndSplineSet
EndChar
StartChar: Oacute
Encoding: 146 211 156
Width: 600
Flags: W
HStem: -16 41<288 308> 535 41<288 308>
VStem: 51 41<255 305> 508 41<255 289>
Fore
300 576 m 0
 441 576 549 446 549 276 c 0
 549 115 437 -16 300 -16 c 0
 161 -16 51 115 51 280 c 128
 51 445 161 576 300 576 c 0
300 535 m 0
 185 535 92 420 92 280 c 128
 92 140 186 25 300 25 c 0
 413 25 508 140 508 277 c 0
 508 421 416 535 300 535 c 0
404 749 m 2
 290 649 l 2
 281 642 277 640 271 640 c 0
 260 640 251 649 251 661 c 0
 251 668 253 671 263 680 c 2
 377 780 l 2
 386 787 390 789 396 789 c 0
 407 789 416 780 416 768 c 0
 416 761 413 757 404 749 c 2
EndSplineSet
EndChar
StartChar: Ocircumflex
Encoding: 147 212 157
Width: 600
Flags: W
HStem: -16 41<290 308> 535 41<290 308>
VStem: 51 41<255 305> 508 41<255 289>
Fore
300 576 m 0
 441 576 549 446 549 276 c 0
 549 115 437 -16 300 -16 c 0
 161 -16 51 115 51 280 c 128
 51 445 161 576 300 576 c 0
300 535 m 0
 185 535 92 420 92 280 c 128
 92 140 186 25 300 25 c 0
 413 25 508 140 508 277 c 0
 508 421 416 535 300 535 c 0
300 789 m 1
 432 681 l 2
 443 672 445 668 445 660 c 0
 445 649 436 640 425 640 c 0
 420 640 414 643 407 648 c 2
 300 736 l 1
 193 648 l 2
 186 643 180 640 175 640 c 0
 164 640 155 649 155 660 c 0
 155 668 158 673 168 680 c 1
 300 789 l 1
EndSplineSet
EndChar
StartChar: Otilde
Encoding: 148 213 158
Width: 600
Flags: W
HStem: -16 41<287 312> 535 41<287 312> 666 41<366 372> 714 41<242 248>
VStem: 51 41<255 305> 508 41<255 289>
Fore
300 576 m 0
 441 576 549 446 549 276 c 0
 549 115 437 -16 300 -16 c 0
 161 -16 51 115 51 280 c 128
 51 445 161 576 300 576 c 0
300 535 m 0
 185 535 92 420 92 280 c 128
 92 140 186 25 300 25 c 0
 413 25 508 140 508 277 c 0
 508 421 416 535 300 535 c 0
441 753 m 0
 451 753 461 744 461 733 c 0
 461 725 457 719 439 702 c 0
 413 676 393 666 370 666 c 0
 348 666 329 673 289 697 c 0
 269 710 258 714 246 714 c 0
 226 714 217 708 188 677 c 0
 184 672 177 669 171 669 c 0
 160 669 151 677 151 688 c 0
 151 696 157 705 170 718 c 0
 199 745 220 755 245 755 c 0
 265 755 277 751 309 732 c 0
 347 711 355 707 368 707 c 0
 385 707 395 714 425 745 c 0
 431 751 435 753 441 753 c 0
EndSplineSet
EndChar
StartChar: Odieresis
Encoding: 149 214 159
Width: 600
Flags: W
HStem: -16 41<290 308> 535 41<290 308> 661 100<179.27 196 402 420>
VStem: 51 41<255 305> 139 100<703 721> 360 100<703 721> 508 41<255 289>
Fore
300 576 m 0
 441 576 549 446 549 276 c 0
 549 115 437 -16 300 -16 c 0
 161 -16 51 115 51 280 c 128
 51 445 161 576 300 576 c 0
300 535 m 0
 185 535 92 420 92 280 c 128
 92 140 186 25 300 25 c 0
 413 25 508 140 508 277 c 0
 508 421 416 535 300 535 c 0
189 761 m 0
 217 761 239 738 239 710 c 0
 239 684 216 661 189 661 c 128
 162 661 139 684 139 711 c 128
 139 738 162 761 189 761 c 0
410 761 m 0
 438 761 460 738 460 710 c 0
 460 684 437 661 410 661 c 128
 383 661 360 684 360 711 c 128
 360 738 383 761 410 761 c 0
EndSplineSet
EndChar
StartChar: multiply
Encoding: 150 215 160
Width: 600
Flags: W
Fore
300 311 m 1
 442 453 l 2
 451 462 455 464 461 464 c 0
 472 464 482 455 482 443 c 0
 482 437 479 432 471 424 c 2
 329 282 l 1
 471 139 l 1
 480 131 482 127 482 120 c 0
 482 109 473 100 461 100 c 0
 455 100 450 102 442 110 c 2
 300 253 l 1
 158 110 l 1
 150 103 145 100 139 100 c 0
 127 100 118 109 118 120 c 0
 118 127 121 132 128 139 c 2
 271 282 l 1
 128 424 l 1
 121 432 118 437 118 443 c 0
 118 455 127 464 139 464 c 0
 145 464 149 461 157 453 c 2
 300 311 l 1
EndSplineSet
EndChar
StartChar: Oslash
Encoding: 151 216 161
Width: 600
Flags: W
HStem: -16 41<280.844 313> 535 41<281.218 313>
VStem: 51 41<260 294> 508 41<260 294>
Fore
141 51 m 1
 76 -31 l 2
 69 -40 64 -43 58 -43 c 0
 48 -43 40 -35 40 -25 c 0
 40 -21 41 -18 48 -9 c 2
 117 78 l 1
 72 138 51 204 51 280 c 0
 51 446 161 576 300 576 c 0
 360 576 409 555 458 510 c 1
 524 593 l 2
 531 602 535 605 542 605 c 0
 552 605 560 597 560 587 c 0
 560 582 558 579 552 571 c 2
 482 483 l 1
 525 430 549 356 549 280 c 0
 549 115 439 -16 300 -16 c 0
 240 -16 186 7 141 51 c 1
144 112 m 1
 432 476 l 1
 392 516 349 535 300 535 c 0
 185 535 92 420 92 280 c 0
 92 218 109 164 144 112 c 1
456 449 m 1
 167 84 l 1
 206 45 251 25 300 25 c 0
 414 25 508 140 508 280 c 0
 508 343 490 400 456 449 c 1
EndSplineSet
EndChar
StartChar: Ugrave
Encoding: 152 217 162
Width: 600
Flags: W
HStem: -16 41<281.41 317> 522 41<56.4704 101 142 227 375 457 498 537>
VStem: 101 41<175 522> 458 41<175 522>
Fore
499 522 m 1
 499 185 l 2
 499 71 412 -16 300 -16 c 0
 187 -16 101 71 101 185 c 2
 101 522 l 1
 67 522 l 2
 49 522 40 529 40 543 c 128
 40 557 49 563 67 563 c 2
 216 563 l 2
 234 563 243 556 243 543 c 0
 243 529 234 522 216 522 c 2
 142 522 l 1
 142 185 l 2
 142 95 211 25 300 25 c 0
 388 25 458 95 458 185 c 2
 458 522 l 1
 384 522 l 2
 366 522 357 529 357 543 c 128
 357 557 365 563 384 563 c 2
 533 563 l 2
 552 563 560 557 560 543 c 128
 560 529 551 522 533 522 c 2
 499 522 l 1
227 780 m 2
 341 680 l 1
 348 672 l 2
 353 667 353 667 353 661 c 0
 353 649 344 640 332 640 c 0
 327 640 321 643 314 649 c 2
 200 749 l 2
 191 757 188 761 188 769 c 0
 188 780 197 789 208 789 c 0
 214 789 219 786 227 780 c 2
EndSplineSet
EndChar
StartChar: Uacute
Encoding: 153 218 163
Width: 600
Flags: W
HStem: -16 41<285 313> 522 41<56.4704 101 142 218 373 457 498 537>
VStem: 101 41<175 522> 458 41<175 522>
Fore
499 522 m 1
 499 185 l 2
 499 71 412 -16 300 -16 c 0
 187 -16 101 71 101 185 c 2
 101 522 l 1
 67 522 l 2
 49 522 40 529 40 543 c 128
 40 557 49 563 67 563 c 2
 216 563 l 2
 234 563 243 556 243 543 c 0
 243 529 234 522 216 522 c 2
 142 522 l 1
 142 185 l 2
 142 95 211 25 300 25 c 0
 388 25 458 95 458 185 c 2
 458 522 l 1
 384 522 l 2
 366 522 357 529 357 543 c 128
 357 557 365 563 384 563 c 2
 533 563 l 2
 552 563 560 557 560 543 c 128
 560 529 551 522 533 522 c 2
 499 522 l 1
401 749 m 2
 287 649 l 2
 278 642 274 640 268 640 c 0
 257 640 248 649 248 661 c 0
 248 668 250 671 260 680 c 2
 374 780 l 2
 383 787 387 789 393 789 c 0
 404 789 413 780 413 768 c 0
 413 761 410 757 401 749 c 2
EndSplineSet
EndChar
StartChar: Ucircumflex
Encoding: 154 219 164
Width: 600
Flags: W
HStem: -16 41<281.41 313> 522 41<56.4704 101 142 218 375 457 498 537>
VStem: 101 41<175 522> 458 41<175 522>
Fore
499 522 m 1
 499 185 l 2
 499 71 412 -16 300 -16 c 0
 187 -16 101 71 101 185 c 2
 101 522 l 1
 67 522 l 2
 49 522 40 529 40 543 c 128
 40 557 49 563 67 563 c 2
 216 563 l 2
 234 563 243 556 243 543 c 0
 243 529 234 522 216 522 c 2
 142 522 l 1
 142 185 l 2
 142 95 211 25 300 25 c 0
 388 25 458 95 458 185 c 2
 458 522 l 1
 384 522 l 2
 366 522 357 529 357 543 c 128
 357 557 365 563 384 563 c 2
 533 563 l 2
 552 563 560 557 560 543 c 128
 560 529 551 522 533 522 c 2
 499 522 l 1
300 789 m 1
 432 681 l 2
 443 672 445 668 445 660 c 0
 445 649 436 640 425 640 c 0
 420 640 414 643 407 648 c 2
 300 736 l 1
 193 648 l 2
 186 643 180 640 175 640 c 0
 164 640 155 649 155 660 c 0
 155 668 158 673 168 680 c 1
 300 789 l 1
EndSplineSet
EndChar
StartChar: Udieresis
Encoding: 155 220 165
Width: 600
Flags: W
HStem: -16 41<281.41 313> 522 41<56.4704 101 142 218 375 457 498 537> 661 100<183 191 407 413>
VStem: 101 41<175 522> 139 100<703 721> 360 100<703 721> 458 41<175 522>
Fore
499 522 m 1
 499 185 l 2
 499 71 412 -16 300 -16 c 0
 187 -16 101 71 101 185 c 2
 101 522 l 1
 67 522 l 2
 49 522 40 529 40 543 c 128
 40 557 49 563 67 563 c 2
 216 563 l 2
 234 563 243 556 243 543 c 0
 243 529 234 522 216 522 c 2
 142 522 l 1
 142 185 l 2
 142 95 211 25 300 25 c 0
 388 25 458 95 458 185 c 2
 458 522 l 1
 384 522 l 2
 366 522 357 529 357 543 c 128
 357 557 365 563 384 563 c 2
 533 563 l 2
 552 563 560 557 560 543 c 128
 560 529 551 522 533 522 c 2
 499 522 l 1
189 761 m 0
 217 761 239 738 239 710 c 0
 239 684 216 661 189 661 c 128
 162 661 139 684 139 711 c 128
 139 738 162 761 189 761 c 0
410 761 m 0
 438 761 460 738 460 710 c 0
 460 684 437 661 410 661 c 128
 383 661 360 684 360 711 c 128
 360 738 383 761 410 761 c 0
EndSplineSet
EndChar
StartChar: Yacute
Encoding: 156 221 166
Width: 600
Flags: W
HStem: 0 41<165.47 281 322 436> 522 41<67.4704 102 151 196 400 452 497 532>
VStem: 51 165<541 545> 281 41<40 254> 384 165<541 545>
Fore
322 254 m 1
 322 41 l 1
 427 41 l 2
 445 41 454 34 454 21 c 0
 454 7 445 0 427 0 c 2
 176 0 l 2
 158 0 149 7 149 21 c 0
 149 34 158 41 176 41 c 2
 281 41 l 1
 281 254 l 1
 102 522 l 1
 78 522 l 2
 60 522 51 529 51 543 c 0
 51 556 60 563 78 563 c 2
 189 563 l 2
 207 563 216 556 216 543 c 0
 216 529 207 522 189 522 c 2
 151 522 l 1
 303 295 l 1
 452 522 l 1
 412 522 l 2
 393 522 384 529 384 543 c 0
 384 556 393 563 412 563 c 2
 522 563 l 2
 539 563 549 555 549 543 c 0
 549 530 538 522 522 522 c 2
 498 522 l 1
 322 254 l 1
401 749 m 2
 287 649 l 2
 278 642 274 640 268 640 c 0
 257 640 248 649 248 661 c 0
 248 668 250 671 260 680 c 2
 374 780 l 2
 383 787 387 789 393 789 c 0
 404 789 413 780 413 768 c 0
 413 761 410 757 401 749 c 2
EndSplineSet
EndChar
StartChar: Thorn
Encoding: 157 222 167
Width: 600
Flags: W
HStem: 0 41<59.4704 124 165 314> 131 41<165 316> 422 41<165 331> 522 41<59.4704 124 165 314>
VStem: 124 41<40 131 172 422 462 522> 458 41<287 305>
Fore
165 131 m 1
 165 41 l 1
 303 41 l 2
 322 41 331 34 331 21 c 0
 331 7 321 0 303 0 c 2
 70 0 l 2
 52 0 43 7 43 21 c 0
 43 34 52 41 70 41 c 2
 124 41 l 1
 124 522 l 1
 70 522 l 2
 52 522 43 529 43 543 c 0
 43 556 52 563 70 563 c 2
 303 563 l 2
 322 563 331 556 331 543 c 0
 331 529 322 522 303 522 c 2
 165 522 l 1
 165 463 l 1
 310 463 l 2
 416 463 499 391 499 298 c 0
 499 205 410 131 296 131 c 2
 165 131 l 1
165 172 m 1
 299 172 l 2
 386 172 458 229 458 298 c 0
 458 366 393 422 314 422 c 2
 165 422 l 1
 165 172 l 1
EndSplineSet
EndChar
StartChar: germandbls
Encoding: 158 223 168
Width: 600
Flags: W
HStem: -16 41<353 373> 0 41<59.4704 124 165 188> 334 41<264 284> 563 41<250 280>
VStem: 43 164<15 27> 124 41<40 481> 371 41<447 465> 458 41<143 177>
Fore
124 41 m 1
 124 476 l 2
 124 547 188 604 266 604 c 0
 347 604 412 539 412 458 c 0
 412 417 394 386 354 359 c 1
 450 320 499 253 499 161 c 0
 499 60 441 -16 365 -16 c 0
 305 -16 259 35 259 101 c 0
 259 115 267 124 279 124 c 0
 292 124 299 116 300 100 c 0
 303 54 327 25 365 25 c 0
 417 25 458 85 458 162 c 0
 458 212 436 258 397 290 c 0
 365 316 317 334 279 334 c 2
 274 334 l 2
 256 334 247 341 247 355 c 0
 247 367 256 375 270 375 c 2
 275 375 l 2
 326 375 371 415 371 459 c 0
 371 516 324 563 266 563 c 0
 210 563 165 525 165 476 c 2
 165 41 l 1
 180 41 l 2
 198 41 207 34 207 21 c 0
 207 7 198 0 180 0 c 2
 70 0 l 2
 52 0 43 7 43 21 c 0
 43 34 52 41 70 41 c 2
 124 41 l 1
EndSplineSet
EndChar
StartChar: agrave
Encoding: 159 224 169
Width: 600
Flags: W
HStem: -16 41<211 249> 0 41<459 521> 217 41<263 313> 390 41<279 318>
VStem: 72 41<97.9244 114> 419 41<40 67 111 202 237 310> 419 122<15 27>
Fore
419 0 m 1
 419 67 l 1
 358 10 298 -16 228 -16 c 0
 135 -16 72 36 72 112 c 0
 72 199 158 258 283 258 c 0
 329 258 360 253 419 237 c 1
 419 308 l 2
 419 357 369 390 296 390 c 0
 260 390 232 384 154 360 c 0
 150 359 146 358 144 358 c 0
 134 358 125 367 125 378 c 0
 125 388 131 395 142 399 c 0
 197 418 262 431 299 431 c 0
 392 431 460 379 460 308 c 2
 460 41 l 1
 514 41 l 2
 532 41 541 34 541 21 c 0
 541 7 532 0 514 0 c 2
 419 0 l 1
419 112 m 1
 419 202 l 1
 383 211 335 217 291 217 c 0
 185 217 113 174 113 111 c 0
 113 59 158 25 227 25 c 0
 298 25 352 49 419 112 c 1
213 630 m 2
 327 530 l 1
 334 522 l 2
 339 517 339 517 339 511 c 0
 339 499 330 490 318 490 c 0
 313 490 307 493 300 499 c 2
 186 599 l 2
 177 607 174 611 174 619 c 0
 174 630 183 639 194 639 c 0
 200 639 205 636 213 630 c 2
EndSplineSet
EndChar
StartChar: aacute
Encoding: 160 225 170
Width: 600
Flags: W
HStem: -16 41<215 248> 0 41<459 521> 217 41<263 313> 390 41<279 313>
VStem: 72 41<97.9244 114> 419 41<40 67 111 202 237 310> 419 122<15 27>
Fore
419 0 m 1
 419 67 l 1
 358 10 298 -16 228 -16 c 0
 135 -16 72 36 72 112 c 0
 72 199 158 258 283 258 c 0
 329 258 360 253 419 237 c 1
 419 308 l 2
 419 357 369 390 296 390 c 0
 260 390 232 384 154 360 c 0
 150 359 146 358 144 358 c 0
 134 358 125 367 125 378 c 0
 125 388 131 395 142 399 c 0
 197 418 262 431 299 431 c 0
 392 431 460 379 460 308 c 2
 460 41 l 1
 514 41 l 2
 532 41 541 34 541 21 c 0
 541 7 532 0 514 0 c 2
 419 0 l 1
419 112 m 1
 419 202 l 1
 383 211 335 217 291 217 c 0
 185 217 113 174 113 111 c 0
 113 59 158 25 227 25 c 0
 298 25 352 49 419 112 c 1
387 599 m 2
 273 499 l 2
 264 492 260 490 254 490 c 0
 243 490 234 499 234 511 c 0
 234 518 236 521 246 530 c 2
 360 630 l 2
 369 637 373 639 379 639 c 0
 390 639 399 630 399 618 c 0
 399 611 396 607 387 599 c 2
EndSplineSet
EndChar
StartChar: acircumflex
Encoding: 161 226 171
Width: 600
Flags: W
HStem: -16 41<215 249> 0 41<459 521> 217 41<263 313> 390 41<279 313>
VStem: 72 41<97.9244 114> 419 41<40 67 111 202 237 310> 419 122<15 27>
Fore
419 0 m 1
 419 67 l 1
 358 10 298 -16 228 -16 c 0
 135 -16 72 36 72 112 c 0
 72 199 158 258 283 258 c 0
 329 258 360 253 419 237 c 1
 419 308 l 2
 419 357 369 390 296 390 c 0
 260 390 232 384 154 360 c 0
 150 359 146 358 144 358 c 0
 134 358 125 367 125 378 c 0
 125 388 131 395 142 399 c 0
 197 418 262 431 299 431 c 0
 392 431 460 379 460 308 c 2
 460 41 l 1
 514 41 l 2
 532 41 541 34 541 21 c 0
 541 7 532 0 514 0 c 2
 419 0 l 1
419 112 m 1
 419 202 l 1
 383 211 335 217 291 217 c 0
 185 217 113 174 113 111 c 0
 113 59 158 25 227 25 c 0
 298 25 352 49 419 112 c 1
290 639 m 1
 422 531 l 2
 433 522 435 518 435 510 c 0
 435 499 426 490 415 490 c 0
 410 490 404 493 397 498 c 2
 290 586 l 1
 183 498 l 2
 176 493 170 490 165 490 c 0
 154 490 145 499 145 510 c 0
 145 518 148 523 158 530 c 1
 290 639 l 1
EndSplineSet
EndChar
StartChar: atilde
Encoding: 162 227 172
Width: 600
Flags: W
HStem: -16 41<215 249> 0 41<459 521> 217 41<263 313> 390 41<279 313> 516 41<343 361> 564 41<225 233>
VStem: 72 41<97.9244 114> 419 41<40 67 111 202 237 310> 419 122<15 27>
Fore
419 0 m 1
 419 67 l 1
 358 10 298 -16 228 -16 c 0
 135 -16 72 36 72 112 c 0
 72 199 158 258 283 258 c 0
 329 258 360 253 419 237 c 1
 419 308 l 2
 419 357 369 390 296 390 c 0
 260 390 232 384 154 360 c 0
 150 359 146 358 144 358 c 0
 134 358 125 367 125 378 c 0
 125 388 131 395 142 399 c 0
 197 418 262 431 299 431 c 0
 392 431 460 379 460 308 c 2
 460 41 l 1
 514 41 l 2
 532 41 541 34 541 21 c 0
 541 7 532 0 514 0 c 2
 419 0 l 1
419 112 m 1
 419 202 l 1
 383 211 335 217 291 217 c 0
 185 217 113 174 113 111 c 0
 113 59 158 25 227 25 c 0
 298 25 352 49 419 112 c 1
425 603 m 0
 435 603 445 594 445 583 c 0
 445 575 441 569 423 552 c 0
 397 526 377 516 354 516 c 0
 332 516 313 523 273 547 c 0
 253 560 242 564 230 564 c 0
 210 564 201 558 172 527 c 0
 168 522 161 519 155 519 c 0
 144 519 135 527 135 538 c 0
 135 546 141 555 154 568 c 0
 183 595 204 605 229 605 c 0
 249 605 261 601 293 582 c 0
 331 561 339 557 352 557 c 0
 369 557 379 564 409 595 c 0
 415 601 419 603 425 603 c 0
EndSplineSet
EndChar
StartChar: adieresis
Encoding: 163 228 173
Width: 600
Flags: W
HStem: -16 41<215 249> 0 41<459 521> 217 41<263 313> 390 41<279 313> 511 100<169.27 185 391 409>
VStem: 72 41<97.9244 114> 129 100<558 564> 350 100<558 564> 419 41<40 67 111 202 237 310> 419 122<15 27>
Fore
419 0 m 1
 419 67 l 1
 358 10 298 -16 228 -16 c 0
 135 -16 72 36 72 112 c 0
 72 199 158 258 283 258 c 0
 329 258 360 253 419 237 c 1
 419 308 l 2
 419 357 369 390 296 390 c 0
 260 390 232 384 154 360 c 0
 150 359 146 358 144 358 c 0
 134 358 125 367 125 378 c 0
 125 388 131 395 142 399 c 0
 197 418 262 431 299 431 c 0
 392 431 460 379 460 308 c 2
 460 41 l 1
 514 41 l 2
 532 41 541 34 541 21 c 0
 541 7 532 0 514 0 c 2
 419 0 l 1
419 112 m 1
 419 202 l 1
 383 211 335 217 291 217 c 0
 185 217 113 174 113 111 c 0
 113 59 158 25 227 25 c 0
 298 25 352 49 419 112 c 1
179 611 m 0
 207 611 229 588 229 560 c 0
 229 534 206 511 179 511 c 128
 152 511 129 534 129 561 c 128
 129 588 152 611 179 611 c 0
400 611 m 0
 428 611 450 588 450 560 c 0
 450 534 427 511 400 511 c 128
 373 511 350 534 350 561 c 128
 350 588 373 611 400 611 c 0
EndSplineSet
EndChar
StartChar: aring
Encoding: 164 229 174
Width: 600
Flags: W
HStem: -16 41<215 249> 0 41<459 521> 217 41<263 313> 390 41<279 313> 480 33<279 302> 628 33<279 302>
VStem: 72 41<97.9244 114> 197 33<567 577> 350 33<559 577> 419 41<40 67 111 202 237 310> 419 122<15 27>
Fore
419 0 m 1
 419 67 l 1
 358 10 298 -16 228 -16 c 0
 135 -16 72 36 72 112 c 0
 72 199 158 258 283 258 c 0
 329 258 360 253 419 237 c 1
 419 308 l 2
 419 357 369 390 296 390 c 0
 260 390 232 384 154 360 c 0
 150 359 146 358 144 358 c 0
 134 358 125 367 125 378 c 0
 125 388 131 395 142 399 c 0
 197 418 262 431 299 431 c 0
 392 431 460 379 460 308 c 2
 460 41 l 1
 514 41 l 2
 532 41 541 34 541 21 c 0
 541 7 532 0 514 0 c 2
 419 0 l 1
419 112 m 1
 419 202 l 1
 383 211 335 217 291 217 c 0
 185 217 113 174 113 111 c 0
 113 59 158 25 227 25 c 0
 298 25 352 49 419 112 c 1
290 661 m 0
 342 661 383 621 383 569 c 0
 383 521 341 480 290 480 c 128
 239 480 197 521 197 571 c 0
 197 620 239 661 290 661 c 0
290 628 m 0
 257 628 230 602 230 571 c 0
 230 539 257 513 290 513 c 128
 323 513 350 539 350 570 c 0
 350 602 323 628 290 628 c 0
EndSplineSet
EndChar
StartChar: ae
Encoding: 165 230 175
Width: 600
Flags: W
HStem: -16 41<155 173 442 448> 199 41<320 535> 216 41<187 204> 390 41<187 204 415.188 432>
VStem: 12 45<119 134> 280 40<23 52>
Fore
430 431 m 0
 533 431 574 332 577 199 c 1
 319 199 l 1
 326 97 379 25 446 25 c 0
 475 25 497 38 545 82 c 0
 549 85 554 87 558 87 c 0
 569 87 578 77 578 67 c 128
 578 57 570 48 547 29 c 1
 506 -2 476 -16 444 -16 c 0
 398 -16 352 12 320 61 c 1
 320 27 l 2
 320 9 313 0 300 0 c 128
 287 0 280 9 280 27 c 2
 280 52 l 1
 241 5 204 -16 160 -16 c 0
 75 -16 12 47 12 132 c 0
 12 166 27 193 57 217 c 0
 88 240 146 257 195 257 c 0
 223 257 251 253 280 245 c 1
 280 305 l 2
 280 352 241 390 192 390 c 0
 165 390 133 381 108 365 c 0
 101 361 94 358 90 358 c 0
 81 358 71 369 71 378 c 0
 71 389 79 397 100 406 c 0
 138 423 169 431 199 431 c 0
 248 431 293 398 312 347 c 1
 336 399 382 431 430 431 c 0
280 110 m 1
 280 203 l 1
 253 211 224 216 201 216 c 0
 158 216 100 197 78 176 c 0
 64 162 57 145 57 121 c 0
 57 65 101 25 162 25 c 0
 199 25 233 50 280 110 c 1
320 240 m 1
 535 240 l 1
 529 288 523 313 512 335 c 0
 495 370 464 390 429 390 c 0
 369 390 333 340 320 240 c 1
EndSplineSet
EndChar
StartChar: ccedilla
Encoding: 166 231 176
Width: 600
Flags: W
HStem: -173 38<291 311> -81 106<291 315> 271 146<483 498> 390 41<291 325>
VStem: 84 41<194 212> 343 37<-113 -104>
Fore
315 -16 m 1
 315 -47 l 1
 356 -48 380 -70 380 -108 c 0
 380 -147 348 -173 301 -173 c 0
 281 -173 250 -165 231 -155 c 0
 217 -148 213 -143 213 -134 c 0
 213 -123 222 -114 233 -114 c 0
 237 -114 240 -115 248 -119 c 0
 271 -131 284 -135 299 -135 c 0
 325 -135 343 -123 343 -106 c 128
 343 -89 328 -81 298 -81 c 2
 277 -81 l 1
 277 -14 l 1
 228 -7 202 3 172 25 c 0
 116 66 84 131 84 204 c 0
 84 336 180 431 314 431 c 0
 376 431 429 412 470 376 c 1
 470 389 l 2
 470 408 477 417 491 417 c 0
 504 417 511 408 511 389 c 2
 511 298 l 2
 511 280 504 271 491 271 c 128
 478 271 471 278 470 295 c 0
 465 348 395 390 311 390 c 0
 201 390 125 315 125 205 c 0
 125 100 202 25 311 25 c 0
 384 25 446 49 498 97 c 0
 506 105 509 107 516 107 c 0
 526 107 535 98 535 88 c 0
 535 71 503 42 459 19 c 0
 416 -3 373 -13 315 -16 c 1
EndSplineSet
EndChar
StartChar: egrave
Encoding: 167 232 177
Width: 600
Flags: W
HStem: -16 41<286 320> 199 41<104 478> 390 41<270 308>
Fore
520 199 m 1
 104 199 l 1
 118 94 198 25 306 25 c 0
 368 25 441 47 481 79 c 0
 488 84 492 86 497 86 c 0
 507 86 516 77 516 66 c 0
 516 31 396 -16 305 -16 c 0
 170 -16 63 87 63 217 c 0
 63 338 163 431 291 431 c 0
 387 431 467 380 503 297 c 0
 517 264 520 245 520 199 c 1
104 240 m 1
 478 240 l 1
 462 331 388 390 291 390 c 128
 194 390 122 332 104 240 c 1
228 630 m 2
 342 530 l 1
 349 522 l 2
 354 517 354 517 354 511 c 0
 354 499 345 490 333 490 c 0
 328 490 322 493 315 499 c 2
 201 599 l 2
 192 607 189 611 189 619 c 0
 189 630 198 639 209 639 c 0
 215 639 220 636 228 630 c 2
EndSplineSet
EndChar
StartChar: eacute
Encoding: 168 233 178
Width: 600
Flags: W
HStem: -16 41<286 320> 199 41<104 478> 390 41<269 308>
Fore
520 199 m 1
 104 199 l 1
 118 94 198 25 306 25 c 0
 368 25 441 47 481 79 c 0
 488 84 492 86 497 86 c 0
 507 86 516 77 516 66 c 0
 516 31 396 -16 305 -16 c 0
 170 -16 63 87 63 217 c 0
 63 338 163 431 291 431 c 0
 387 431 467 380 503 297 c 0
 517 264 520 245 520 199 c 1
104 240 m 1
 478 240 l 1
 462 331 388 390 291 390 c 128
 194 390 122 332 104 240 c 1
402 599 m 2
 288 499 l 2
 279 492 275 490 269 490 c 0
 258 490 249 499 249 511 c 0
 249 518 251 521 261 530 c 2
 375 630 l 2
 384 637 388 639 394 639 c 0
 405 639 414 630 414 618 c 0
 414 611 411 607 402 599 c 2
EndSplineSet
EndChar
StartChar: ecircumflex
Encoding: 169 234 179
Width: 600
Flags: W
HStem: -16 41<286 320> 199 41<104 478> 390 41<270 308>
Fore
520 199 m 1
 104 199 l 1
 118 94 198 25 306 25 c 0
 368 25 441 47 481 79 c 0
 488 84 492 86 497 86 c 0
 507 86 516 77 516 66 c 0
 516 31 396 -16 305 -16 c 0
 170 -16 63 87 63 217 c 0
 63 338 163 431 291 431 c 0
 387 431 467 380 503 297 c 0
 517 264 520 245 520 199 c 1
104 240 m 1
 478 240 l 1
 462 331 388 390 291 390 c 128
 194 390 122 332 104 240 c 1
305 639 m 1
 437 531 l 2
 448 522 450 518 450 510 c 0
 450 499 441 490 430 490 c 0
 425 490 419 493 412 498 c 2
 305 586 l 1
 198 498 l 2
 191 493 185 490 180 490 c 0
 169 490 160 499 160 510 c 0
 160 518 163 523 173 530 c 1
 305 639 l 1
EndSplineSet
EndChar
StartChar: edieresis
Encoding: 170 235 180
Width: 600
Flags: W
HStem: -16 41<286 320> 199 41<104 478> 390 41<270 308> 511 100<190 196 405.27 418>
VStem: 144 100<558 564> 365 100<558 564>
Fore
520 199 m 1
 104 199 l 1
 118 94 198 25 306 25 c 0
 368 25 441 47 481 79 c 0
 488 84 492 86 497 86 c 0
 507 86 516 77 516 66 c 0
 516 31 396 -16 305 -16 c 0
 170 -16 63 87 63 217 c 0
 63 338 163 431 291 431 c 0
 387 431 467 380 503 297 c 0
 517 264 520 245 520 199 c 1
104 240 m 1
 478 240 l 1
 462 331 388 390 291 390 c 128
 194 390 122 332 104 240 c 1
194 611 m 0
 222 611 244 588 244 560 c 0
 244 534 221 511 194 511 c 128
 167 511 144 534 144 561 c 128
 144 588 167 611 194 611 c 0
415 611 m 0
 443 611 465 588 465 560 c 0
 465 534 442 511 415 511 c 128
 388 511 365 534 365 561 c 128
 365 588 388 611 415 611 c 0
EndSplineSet
EndChar
StartChar: igrave
Encoding: 171 236 181
Width: 600
Flags: W
HStem: 0 41<108.47 279 319 482> 376 41<155 279>
VStem: 279 41<40 376>
Fore
320 417 m 1
 320 41 l 1
 480 41 l 2
 499 41 508 34 508 21 c 0
 508 7 498 0 480 0 c 2
 119 0 l 2
 101 0 92 7 92 21 c 0
 92 34 101 41 119 41 c 2
 279 41 l 1
 279 376 l 1
 161 376 l 2
 143 376 134 383 134 397 c 0
 134 410 143 417 161 417 c 2
 320 417 l 1
217 630 m 2
 331 530 l 1
 338 522 l 2
 343 517 343 517 343 511 c 0
 343 499 334 490 322 490 c 0
 317 490 311 493 304 499 c 2
 190 599 l 2
 181 607 178 611 178 619 c 0
 178 630 187 639 198 639 c 0
 204 639 209 636 217 630 c 2
EndSplineSet
EndChar
StartChar: iacute
Encoding: 172 237 182
Width: 600
Flags: W
HStem: 0 41<108.47 279 319 482> 376 41<155 279>
VStem: 279 41<40 376>
Fore
320 417 m 1
 320 41 l 1
 480 41 l 2
 499 41 508 34 508 21 c 0
 508 7 498 0 480 0 c 2
 119 0 l 2
 101 0 92 7 92 21 c 0
 92 34 101 41 119 41 c 2
 279 41 l 1
 279 376 l 1
 161 376 l 2
 143 376 134 383 134 397 c 0
 134 410 143 417 161 417 c 2
 320 417 l 1
391 599 m 2
 277 499 l 2
 268 492 264 490 258 490 c 0
 247 490 238 499 238 511 c 0
 238 518 240 521 250 530 c 2
 364 630 l 2
 373 637 377 639 383 639 c 0
 394 639 403 630 403 618 c 0
 403 611 400 607 391 599 c 2
EndSplineSet
EndChar
StartChar: icircumflex
Encoding: 173 238 183
Width: 600
Flags: W
HStem: 0 41<108.47 279 319 482> 376 41<150 279>
VStem: 279 41<40 376>
Fore
320 417 m 1
 320 41 l 1
 480 41 l 2
 499 41 508 34 508 21 c 0
 508 7 498 0 480 0 c 2
 119 0 l 2
 101 0 92 7 92 21 c 0
 92 34 101 41 119 41 c 2
 279 41 l 1
 279 376 l 1
 161 376 l 2
 143 376 134 383 134 397 c 0
 134 410 143 417 161 417 c 2
 320 417 l 1
283 639 m 1
 415 531 l 2
 426 522 428 518 428 510 c 0
 428 499 419 490 408 490 c 0
 403 490 397 493 390 498 c 2
 283 586 l 1
 176 498 l 2
 169 493 163 490 158 490 c 0
 147 490 138 499 138 510 c 0
 138 518 141 523 151 530 c 1
 283 639 l 1
EndSplineSet
EndChar
StartChar: idieresis
Encoding: 174 239 184
Width: 600
Flags: W
HStem: 0 41<108.47 279 319 482> 376 41<155 279> 511 100<171 178 395 401>
VStem: 126 100<558 564> 279 41<40 376> 348 100<558 564>
Fore
320 417 m 1
 320 41 l 1
 480 41 l 2
 499 41 508 34 508 21 c 0
 508 7 498 0 480 0 c 2
 119 0 l 2
 101 0 92 7 92 21 c 0
 92 34 101 41 119 41 c 2
 279 41 l 1
 279 376 l 1
 161 376 l 2
 143 376 134 383 134 397 c 0
 134 410 143 417 161 417 c 2
 320 417 l 1
176 611 m 0
 204 611 226 588 226 560 c 0
 226 534 203 511 176 511 c 128
 149 511 126 534 126 561 c 128
 126 588 149 611 176 611 c 0
398 611 m 0
 426 611 448 588 448 560 c 0
 448 534 425 511 398 511 c 128
 371 511 348 534 348 561 c 128
 348 588 371 611 398 611 c 0
EndSplineSet
EndChar
StartChar: eth
Encoding: 175 240 185
Width: 600
Flags: W
HStem: -17 42<295 313> 390 40<295 313>
VStem: 72 42<190 223> 488 40<203 223>
Fore
440 577 m 2
 365 543 l 1
 465 457 528 331 528 221 c 0
 528 148 507 93 462 48 c 0
 419 6 362 -17 300 -17 c 0
 173 -17 72 82 72 207 c 0
 72 330 173 430 298 430 c 0
 353 430 390 416 444 377 c 1
 410 441 365 495 323 525 c 1
 232 483 l 2
 230 482 228 482 225 482 c 0
 215 482 205 493 205 505 c 0
 205 512 208 519 214 521 c 2
 277 549 l 1
 239 565 219 572 179 580 c 0
 165 583 159 588 159 598 c 0
 159 611 168 620 180 620 c 0
 207 620 269 600 328 572 c 1
 423 614 l 1
 430 615 l 2
 440 615 449 606 449 594 c 0
 449 586 445 579 440 577 c 2
301 390 m 0
 197 390 114 309 114 208 c 0
 114 106 197 25 301 25 c 0
 404 25 488 106 488 205 c 0
 488 310 406 390 301 390 c 0
EndSplineSet
EndChar
StartChar: ntilde
Encoding: 176 241 186
Width: 600
Flags: W
HStem: 0 41<69.9599 126 167 214 399 438 479 518> 376 41<81 126> 390 41<308 342> 516 41<350 358> 564 41<222 239>
VStem: 126 41<40 294 348 376> 439 41<40 298>
Fore
167 417 m 1
 167 348 l 1
 225 412 261 431 323 431 c 0
 412 431 480 372 480 295 c 2
 480 41 l 1
 514 41 l 2
 532 41 541 34 541 21 c 0
 541 7 532 0 514 0 c 2
 405 0 l 2
 387 0 378 7 378 21 c 0
 378 34 387 41 405 41 c 2
 439 41 l 1
 439 288 l 2
 439 318 426 343 401 364 c 0
 377 384 358 390 319 390 c 0
 281 390 252 380 224 357 c 0
 209 346 199 335 167 294 c 1
 167 41 l 1
 212 41 l 2
 230 41 239 34 239 21 c 0
 239 7 230 0 212 0 c 2
 81 0 l 2
 62 0 53 7 53 21 c 0
 53 34 62 41 81 41 c 2
 126 41 l 1
 126 376 l 1
 92 376 l 2
 74 376 65 383 65 397 c 0
 65 410 74 417 92 417 c 2
 167 417 l 1
425 603 m 0
 435 603 445 594 445 583 c 0
 445 575 441 569 423 552 c 0
 397 526 377 516 354 516 c 0
 332 516 313 523 273 547 c 0
 253 560 242 564 230 564 c 0
 210 564 201 558 172 527 c 0
 168 522 161 519 155 519 c 0
 144 519 135 527 135 538 c 0
 135 546 141 555 154 568 c 0
 183 595 204 605 229 605 c 0
 249 605 261 601 293 582 c 0
 331 561 339 557 352 557 c 0
 369 557 379 564 409 595 c 0
 415 601 419 603 425 603 c 0
EndSplineSet
EndChar
StartChar: ograve
Encoding: 177 242 187
Width: 600
Flags: W
HStem: -16 41<279.738 319> 390 41<279.738 319>
VStem: 72 41<191 225> 487 41<191 225>
Fore
300 431 m 0
 428 431 528 332 528 205 c 0
 528 83 426 -16 300 -16 c 0
 173 -16 72 83 72 208 c 0
 72 331 173 431 300 431 c 0
300 390 m 0
 196 390 113 309 113 208 c 0
 113 106 196 25 300 25 c 0
 403 25 487 106 487 205 c 0
 487 310 405 390 300 390 c 0
230 630 m 2
 344 530 l 1
 351 522 l 2
 356 517 356 517 356 511 c 0
 356 499 347 490 335 490 c 0
 330 490 324 493 317 499 c 2
 203 599 l 2
 194 607 191 611 191 619 c 0
 191 630 200 639 211 639 c 0
 217 639 222 636 230 630 c 2
EndSplineSet
EndChar
StartChar: oacute
Encoding: 178 243 188
Width: 600
Flags: W
HStem: -16 41<282 313> 390 41<282 313>
VStem: 72 41<191 225> 487 41<191 225>
Fore
300 431 m 0
 428 431 528 332 528 205 c 0
 528 83 426 -16 300 -16 c 0
 173 -16 72 83 72 208 c 0
 72 331 173 431 300 431 c 0
300 390 m 0
 196 390 113 309 113 208 c 0
 113 106 196 25 300 25 c 0
 403 25 487 106 487 205 c 0
 487 310 405 390 300 390 c 0
398 599 m 2
 284 499 l 2
 275 492 271 490 265 490 c 0
 254 490 245 499 245 511 c 0
 245 518 247 521 257 530 c 2
 371 630 l 2
 380 637 384 639 390 639 c 0
 401 639 410 630 410 618 c 0
 410 611 407 607 398 599 c 2
EndSplineSet
EndChar
StartChar: ocircumflex
Encoding: 179 244 189
Width: 600
Flags: W
HStem: -16 41<279.738 313> 390 41<279.738 313>
VStem: 72 41<191 225> 487 41<191 225>
Fore
300 431 m 0
 428 431 528 332 528 205 c 0
 528 83 426 -16 300 -16 c 0
 173 -16 72 83 72 208 c 0
 72 331 173 431 300 431 c 0
300 390 m 0
 196 390 113 309 113 208 c 0
 113 106 196 25 300 25 c 0
 403 25 487 106 487 205 c 0
 487 310 405 390 300 390 c 0
300 639 m 1
 432 531 l 2
 443 522 445 518 445 510 c 0
 445 499 436 490 425 490 c 0
 420 490 414 493 407 498 c 2
 300 586 l 1
 193 498 l 2
 186 493 180 490 175 490 c 0
 164 490 155 499 155 510 c 0
 155 518 158 523 168 530 c 1
 300 639 l 1
EndSplineSet
EndChar
StartChar: otilde
Encoding: 180 245 190
Width: 600
Flags: W
HStem: -16 41<287 313> 390 41<287 313> 516 41<359 377> 564 41<234.337 248>
VStem: 72 41<191 225> 487 41<191 225>
Fore
300 431 m 0
 428 431 528 332 528 205 c 0
 528 83 426 -16 300 -16 c 0
 173 -16 72 83 72 208 c 0
 72 331 173 431 300 431 c 0
300 390 m 0
 196 390 113 309 113 208 c 0
 113 106 196 25 300 25 c 0
 403 25 487 106 487 205 c 0
 487 310 405 390 300 390 c 0
441 603 m 0
 451 603 461 594 461 583 c 0
 461 575 457 569 439 552 c 0
 413 526 393 516 370 516 c 0
 348 516 329 523 289 547 c 0
 269 560 258 564 246 564 c 0
 226 564 217 558 188 527 c 0
 184 522 177 519 171 519 c 0
 160 519 151 527 151 538 c 0
 151 546 157 555 170 568 c 0
 199 595 220 605 245 605 c 0
 265 605 277 601 309 582 c 0
 347 561 355 557 368 557 c 0
 385 557 395 564 425 595 c 0
 431 601 435 603 441 603 c 0
EndSplineSet
EndChar
StartChar: odieresis
Encoding: 181 246 191
Width: 600
Flags: W
HStem: -16 41<279.738 313> 390 41<279.738 313> 511 100<183 191 407 413>
VStem: 72 41<191 225> 139 100<558 564> 360 100<558 564> 487 41<191 225>
Fore
300 431 m 0
 428 431 528 332 528 205 c 0
 528 83 426 -16 300 -16 c 0
 173 -16 72 83 72 208 c 0
 72 331 173 431 300 431 c 0
300 390 m 0
 196 390 113 309 113 208 c 0
 113 106 196 25 300 25 c 0
 403 25 487 106 487 205 c 0
 487 310 405 390 300 390 c 0
189 611 m 0
 217 611 239 588 239 560 c 0
 239 534 216 511 189 511 c 128
 162 511 139 534 139 561 c 128
 139 588 162 611 189 611 c 0
410 611 m 0
 438 611 460 588 460 560 c 0
 460 534 437 511 410 511 c 128
 383 511 360 534 360 561 c 128
 360 588 383 611 410 611 c 0
EndSplineSet
EndChar
StartChar: divide
Encoding: 182 247 192
Width: 600
Flags: W
HStem: 25 99<295 302> 262 40<88.43 505> 441 99<295 302>
VStem: 251 99<72 78 488 494>
Fore
501 262 m 2
 99 262 l 2
 81 262 72 269 72 282 c 128
 72 295 81 302 99 302 c 2
 501 302 l 2
 519 302 528 295 528 282 c 128
 528 269 519 262 501 262 c 2
300 124 m 0
 328 124 350 102 350 74 c 0
 350 47 327 25 300 25 c 128
 273 25 251 47 251 75 c 0
 251 101 273 124 300 124 c 0
300 540 m 0
 328 540 350 518 350 490 c 0
 350 463 327 441 300 441 c 128
 273 441 251 463 251 491 c 0
 251 517 273 540 300 540 c 0
EndSplineSet
EndChar
StartChar: oslash
Encoding: 183 248 193
Width: 600
Flags: W
HStem: -16 41<292 310> 390 41<292 310>
VStem: 72 41<196 214> 487 41<196 214>
Fore
154 35 m 1
 88 -33 l 2
 80 -41 76 -43 71 -43 c 0
 61 -43 53 -35 53 -25 c 0
 53 -20 55 -16 63 -8 c 2
 129 59 l 1
 92 102 72 153 72 208 c 0
 72 332 173 431 300 431 c 0
 354 431 402 415 444 382 c 1
 508 448 l 1
 517 456 520 458 526 458 c 0
 535 458 543 450 543 440 c 0
 543 435 541 431 533 423 c 2
 469 358 l 1
 508 315 528 264 528 207 c 0
 528 83 427 -16 300 -16 c 0
 245 -16 198 1 154 35 c 1
441 329 m 1
 183 65 l 1
 216 39 256 25 300 25 c 0
 404 25 487 106 487 207 c 0
 487 253 471 294 441 329 c 1
158 89 m 1
 415 352 l 1
 382 377 343 390 300 390 c 0
 196 390 113 309 113 208 c 0
 113 164 129 122 158 89 c 1
EndSplineSet
EndChar
StartChar: ugrave
Encoding: 184 249 194
Width: 600
Flags: W
HStem: -16 41<250 268> 0 41<479 524> 376 41<59.4704 124 362 439>
VStem: 124 41<111 376> 439 41<40 65 114 376> 439 102<15 27>
Fore
439 0 m 1
 439 66 l 1
 384 12 323 -16 257 -16 c 0
 177 -16 124 36 124 115 c 2
 124 376 l 1
 70 376 l 2
 52 376 43 383 43 397 c 0
 43 410 52 417 70 417 c 2
 165 417 l 1
 165 115 l 2
 165 65 205 25 256 25 c 0
 323 25 384 55 439 115 c 1
 439 376 l 1
 365 376 l 2
 346 376 337 383 337 397 c 0
 337 410 346 417 365 417 c 2
 480 417 l 1
 480 41 l 1
 514 41 l 2
 532 41 541 34 541 21 c 0
 541 7 532 0 514 0 c 2
 439 0 l 1
222 630 m 2
 336 530 l 1
 343 522 l 2
 348 517 348 517 348 511 c 0
 348 499 339 490 327 490 c 0
 322 490 316 493 309 499 c 2
 195 599 l 2
 186 607 183 611 183 619 c 0
 183 630 192 639 203 639 c 0
 209 639 214 636 222 630 c 2
EndSplineSet
EndChar
StartChar: uacute
Encoding: 185 250 195
Width: 600
Flags: W
HStem: -16 41<242 272> 0 41<479 524> 376 41<59.4704 124 354 439>
VStem: 124 41<111 376> 439 41<40 65 114 376> 439 102<15 27>
Fore
439 0 m 1
 439 66 l 1
 384 12 323 -16 257 -16 c 0
 177 -16 124 36 124 115 c 2
 124 376 l 1
 70 376 l 2
 52 376 43 383 43 397 c 0
 43 410 52 417 70 417 c 2
 165 417 l 1
 165 115 l 2
 165 65 205 25 256 25 c 0
 323 25 384 55 439 115 c 1
 439 376 l 1
 365 376 l 2
 346 376 337 383 337 397 c 0
 337 410 346 417 365 417 c 2
 480 417 l 1
 480 41 l 1
 514 41 l 2
 532 41 541 34 541 21 c 0
 541 7 532 0 514 0 c 2
 439 0 l 1
383 599 m 2
 269 499 l 2
 260 492 256 490 250 490 c 0
 239 490 230 499 230 511 c 0
 230 518 232 521 242 530 c 2
 356 630 l 2
 365 637 369 639 375 639 c 0
 386 639 395 630 395 618 c 0
 395 611 392 607 383 599 c 2
EndSplineSet
EndChar
StartChar: ucircumflex
Encoding: 186 251 196
Width: 600
Flags: W
HStem: -16 41<250 268> 0 41<479 524> 376 41<59.4704 124 362 439>
VStem: 124 41<111 376> 439 41<40 65 114 376> 439 102<15 27>
Fore
439 0 m 1
 439 66 l 1
 384 12 323 -16 257 -16 c 0
 177 -16 124 36 124 115 c 2
 124 376 l 1
 70 376 l 2
 52 376 43 383 43 397 c 0
 43 410 52 417 70 417 c 2
 165 417 l 1
 165 115 l 2
 165 65 205 25 256 25 c 0
 323 25 384 55 439 115 c 1
 439 376 l 1
 365 376 l 2
 346 376 337 383 337 397 c 0
 337 410 346 417 365 417 c 2
 480 417 l 1
 480 41 l 1
 514 41 l 2
 532 41 541 34 541 21 c 0
 541 7 532 0 514 0 c 2
 439 0 l 1
292 639 m 1
 424 531 l 2
 435 522 437 518 437 510 c 0
 437 499 428 490 417 490 c 0
 412 490 406 493 399 498 c 2
 292 586 l 1
 185 498 l 2
 178 493 172 490 167 490 c 0
 156 490 147 499 147 510 c 0
 147 518 150 523 160 530 c 1
 292 639 l 1
EndSplineSet
EndChar
StartChar: udieresis
Encoding: 187 252 197
Width: 600
Flags: W
HStem: -16 41<250 268> 0 41<479 524> 376 41<59.4704 124 353 439> 511 100<171.27 188 394 412>
VStem: 124 41<111 376> 131 100<558 564> 352 100<558 564> 439 41<40 65 114 376> 439 102<15 27>
Fore
439 0 m 1
 439 66 l 1
 384 12 323 -16 257 -16 c 0
 177 -16 124 36 124 115 c 2
 124 376 l 1
 70 376 l 2
 52 376 43 383 43 397 c 0
 43 410 52 417 70 417 c 2
 165 417 l 1
 165 115 l 2
 165 65 205 25 256 25 c 0
 323 25 384 55 439 115 c 1
 439 376 l 1
 365 376 l 2
 346 376 337 383 337 397 c 0
 337 410 346 417 365 417 c 2
 480 417 l 1
 480 41 l 1
 514 41 l 2
 532 41 541 34 541 21 c 0
 541 7 532 0 514 0 c 2
 439 0 l 1
181 611 m 0
 209 611 231 588 231 560 c 0
 231 534 208 511 181 511 c 128
 154 511 131 534 131 561 c 128
 131 588 154 611 181 611 c 0
402 611 m 0
 430 611 452 588 452 560 c 0
 452 534 429 511 402 511 c 128
 375 511 352 534 352 561 c 128
 352 588 375 611 402 611 c 0
EndSplineSet
EndChar
StartChar: yacute
Encoding: 188 253 198
Width: 600
Flags: W
HStem: -186 41<76 211 252 324> 376 41<67.4704 94 141 195 402 466 507 532>
VStem: 51 169<389 399> 385 164<389 399>
Fore
282 0 m 1
 94 376 l 1
 78 376 l 2
 60 376 51 383 51 397 c 0
 51 410 60 417 78 417 c 2
 193 417 l 2
 211 417 220 410 220 397 c 0
 220 383 211 376 193 376 c 2
 141 376 l 1
 305 45 l 1
 466 376 l 1
 412 376 l 2
 394 376 385 383 385 397 c 0
 385 410 394 417 412 417 c 2
 522 417 l 2
 540 417 549 410 549 397 c 0
 549 383 540 376 522 376 c 2
 508 376 l 1
 252 -145 l 1
 317 -145 l 2
 335 -145 344 -152 344 -165 c 0
 344 -179 335 -186 317 -186 c 2
 84 -186 l 2
 66 -186 57 -179 57 -165 c 0
 57 -152 66 -145 84 -145 c 2
 211 -145 l 1
 282 0 l 1
433 599 m 2
 319 499 l 2
 310 492 306 490 300 490 c 0
 289 490 280 499 280 511 c 0
 280 518 282 521 292 530 c 2
 406 630 l 2
 415 637 419 639 425 639 c 0
 436 639 445 630 445 618 c 0
 445 611 442 607 433 599 c 2
EndSplineSet
EndChar
StartChar: thorn
Encoding: 189 254 199
Width: 600
Flags: W
HStem: -186 41<38.4704 103 144 247> 10 41<309 326> 390 41<309 343> 549 41<38.4704 103>
VStem: 103 41<-146 106 213 231 335 549> 500 41<213 231>
Fore
144 590 m 1
 144 335 l 1
 197 404 247 431 323 431 c 0
 447 431 541 340 541 221 c 0
 541 102 446 10 323 10 c 0
 246 10 190 40 144 106 c 1
 144 -145 l 1
 242 -145 l 2
 260 -145 269 -152 269 -165 c 0
 269 -179 260 -186 242 -186 c 2
 49 -186 l 2
 31 -186 22 -179 22 -165 c 0
 22 -152 31 -145 49 -145 c 2
 103 -145 l 1
 103 549 l 1
 49 549 l 2
 31 549 22 556 22 570 c 0
 22 583 31 590 49 590 c 2
 144 590 l 1
322 390 m 0
 223 390 144 315 144 221 c 0
 144 126 223 51 322 51 c 0
 420 51 500 126 500 219 c 0
 500 316 423 390 322 390 c 0
EndSplineSet
EndChar
StartChar: ydieresis
Encoding: 190 255 200
Width: 600
Flags: W
HStem: -186 41<76 211 252 324> 376 41<67.4704 94 141 195 402 466 507 532> 511 100<179.27 196 402 420>
VStem: 51 169<389 399> 139 100<558 567> 360 100<558 567> 385 164<389 399>
Fore
282 0 m 1
 94 376 l 1
 78 376 l 2
 60 376 51 383 51 397 c 0
 51 410 60 417 78 417 c 2
 193 417 l 2
 211 417 220 410 220 397 c 0
 220 383 211 376 193 376 c 2
 141 376 l 1
 305 45 l 1
 466 376 l 1
 412 376 l 2
 394 376 385 383 385 397 c 0
 385 410 394 417 412 417 c 2
 522 417 l 2
 540 417 549 410 549 397 c 0
 549 383 540 376 522 376 c 2
 508 376 l 1
 252 -145 l 1
 317 -145 l 2
 335 -145 344 -152 344 -165 c 0
 344 -179 335 -186 317 -186 c 2
 84 -186 l 2
 66 -186 57 -179 57 -165 c 0
 57 -152 66 -145 84 -145 c 2
 211 -145 l 1
 282 0 l 1
189 611 m 0
 217 611 239 588 239 560 c 0
 239 534 216 511 189 511 c 128
 162 511 139 534 139 561 c 128
 139 588 162 611 189 611 c 0
410 611 m 0
 438 611 460 588 460 560 c 0
 460 534 437 511 410 511 c 128
 383 511 360 534 360 561 c 128
 360 588 383 611 410 611 c 0
EndSplineSet
EndChar
StartChar: uni0E01
Encoding: 191 3585 201
Width: 600
Flags: W
HStem: 0 21G<110 170 445 505> 385 60<191.102 393.121>
VStem: 110 60<0 246.428> 445 60<0 337>
Fore
307 445 m 0
 428 445 505 354 505 280 c 10
 505 0 l 25
 445 0 l 25
 445 280 l 18
 445 352 372 385 307 385 c 8
 238 385 176 366 140 330 c 1
 200 330 l 1
 200 280 l 1
 174 266 170 241 170 214 c 10
 170 0 l 25
 110 0 l 25
 110 214 l 18
 110 241 124 273 140 280 c 1
 80 280 l 1
 80 330 l 1
 126 411 216 445 307 445 c 0
EndSplineSet
Comment: "Thai Gogai" 
EndChar
StartChar: uni0E02
Encoding: 192 3586 202
Width: 600
Flags: W
HStem: 0 60<167 227 287 452> 278 42<191.087 261.219> 400 52<190.921 288.328>
VStem: 148 38<325.187 394.821> 227 60<60 206.735> 266 44<324.742 361.443> 332 62<282.625 357.316> 452 60<60 445>
Fore
226 400 m 0xf7
 204 400 186 382 186 360 c 0
 186 338 204 320 226 320 c 0
 248 320 266 338 266 360 c 0
 266 382 248 400 226 400 c 0xf7
148 359 m 24
 148 418 207 452 267 452 c 0
 315.049 452 394 415.936 394 324 c 16
 394 243 287 240 287 144 c 2
 287 60 l 25
 452 60 l 25
 452 445 l 25
 512 445 l 25
 512 0 l 17
 167 0 l 9
 167 60 l 25
 227 60 l 25
 227 164 l 18xfb
 227 230 262 238 290 264 c 9
 306 284 332 290 332 316 c 24
 332 336 322 344 308 362 c 1
 309 359 310 355 310 352 c 0
 310 323 273 278 226 278 c 0
 182 278 148 315 148 359 c 24
EndSplineSet
EndChar
StartChar: uni0E03
Encoding: 193 3587 203
Width: 600
Flags: W
HStem: 0 60<161 221 281 446> 204 49<114.349 184.451> 333 113<144.822 211.823>
VStem: 67 42<258.842 327.957> 189 45<256.99 328.937> 221 60<60 197.676> 336 52<284.789 347.626> 446 60<60 445>
Fore
150 333 m 0xfb
 128 333 109 315 109 293 c 0
 109 271 128 253 150 253 c 0
 172 253 189 271 189 293 c 0
 189 315 172 333 150 333 c 0xfb
150 204 m 0
 98 204 67 261 67 312 c 0
 67 350 84 384 114 402 c 0
 136 415 163 446 198 446 c 0
 244 446 274 376 275 376 c 1
 278 401 293 446 319 446 c 0
 338 446 355 423 360 417 c 0
 388 387 388 362 388 324 c 16
 388 230 281 225 281 144 c 2
 281 60 l 25
 446 60 l 25
 446 445 l 25
 506 445 l 25
 506 0 l 17
 161 0 l 9
 161 60 l 25
 221 60 l 25
 221 164 l 18xf7
 221 230 256 238 284 264 c 0
 303 283 336 287 336 310 c 0
 336 311 328 365 327 368 c 1
 291 310 l 1
 256 310 l 1
 244 326 230 367 208 378 c 1
 197 373 180 366 180 366 c 1
 218 352 234 324 234 272 c 8
 234 230 179 204 150 204 c 0
EndSplineSet
EndChar
StartChar: uni0E04
Encoding: 194 3588 204
Width: 600
Flags: W
HStem: 0 21G<55 127.614 444 504> 150 35<248.775 319.066> 265 35<249.304 319.83> 385 60<187.759 378.193>
VStem: 55 60<107 278 278 329.753> 324 50<189.688 260.865> 444 60<0 328.587>
Fore
285 265 m 0
 263 265 244 247 244 225 c 0
 244 203 263 185 285 185 c 0
 307 185 324 203 324 225 c 0
 324 247 307 265 285 265 c 0
286 445 m 16
 390 445 504 384 504 278 c 10
 504 0 l 25
 444 0 l 25
 444 278 l 18
 444 342 361 385 286 385 c 24
 208 385 115 344 115 278 c 10
 115 107 l 17
 189 221 l 2
 215 261 237 300 285 300 c 24
 330 300 374 272 374 227 c 24
 374 181 331 150 285 150 c 16
 256 150 235 163 226 176 c 9
 115 0 l 25
 55 0 l 25
 55 278 l 18
 55 376 175 445 286 445 c 16
EndSplineSet
EndChar
StartChar: uni0E05
Encoding: 195 3589 205
Width: 600
Flags: W
HStem: 0 21G<57 129.614 446 506> 150 35<252.62 323.352> 265 35<252.558 323.647> 426 20G<181.274 236 332.25 385.178>
VStem: 57 60<107 341.875> 328 48<189.904 260.648> 446 60<0 344.172>
Fore
288 265 m 0
 266 265 248 247 248 225 c 0
 248 203 266 185 288 185 c 0
 310 185 328 203 328 225 c 0
 328 247 310 265 288 265 c 0
288 300 m 16
 340 300 376 272 376 227 c 24
 376 181 334 150 288 150 c 16
 260 150 237 163 228 176 c 9
 117 0 l 25
 57 0 l 25
 57 300 l 18
 57 424 201 446 201 446 c 1
 285 398 l 1
 366 446 l 1
 366 446 506 432 506 300 c 10
 506 0 l 25
 446 0 l 25
 446 300 l 18
 446 358 366 372 366 372 c 1
 316 338 l 1
 261 338 l 1
 201 372 l 1
 201 372 117 358 117 300 c 10
 117 107 l 17
 189 221 l 2
 214 261 237 300 288 300 c 16
EndSplineSet
EndChar
StartChar: uni0E06
Encoding: 196 3590 206
Width: 600
Flags: W
HStem: -4 46<170.826 223.376> 132 52<149.464 200.862> 205 41<92.6385 163.173> 326 120<120.696 187.199>
VStem: 45 43<251.158 320.993> 104 44<53.1114 131.604> 168 44<250.544 321.971> 225 43<43.449 80.9822> 307 61<289.576 354.226> 436 60<60 445>
Fore
129 326 m 0
 107 326 88 308 88 286 c 0
 88 264 107 246 129 246 c 0
 151 246 168 264 168 286 c 0
 168 308 151 326 129 326 c 0
104 116 m 16
 104 145 135 184 171 184 c 0
 187 184 202 177 211 170 c 9
 215 186 215 195 222 210 c 24
 234 235 246 245 262 267 c 16
 278 289 307 298 307 321 c 0
 307 329 297 367 296 369 c 1
 264 307 l 1
 233 307 l 1
 233 307 207 368 186 379 c 1
 175 374 158 367 158 367 c 1
 196 353 212 325 212 273 c 8
 212 231 158 205 128 205 c 0
 75 205 45 262 45 310 c 0
 45 388 134 446 186 446 c 24
 217 446 250 398 250 398 c 1
 259 421 277 446 295 446 c 0
 314 446 332 424 338 417 c 0
 360 394 368 373 368 348 c 0
 368 279 321 244 294 212 c 0
 283 197 279 169 270 142 c 17
 436 60 l 9
 436 445 l 25
 496 445 l 25
 496 0 l 17
 434 0 l 1
 268 82 l 1
 268 82 269 39 252 22 c 16
 237 6 220 -4 201 -4 c 0
 178 -4 104 20 104 116 c 16
225 74 m 0
 225 104 194 132 174 132 c 0
 158 132 148 117 148 102 c 0
 148 54 183 42 197 42 c 0
 215 42 225 58 225 74 c 0
EndSplineSet
EndChar
StartChar: uni0E07
Encoding: 197 3591 207
Width: 600
Flags: W
HStem: 0 21G<397.205 514> 280 44<379.887 437.946> 404 41<378.973 449.851>
VStem: 340 34<329.311 398.714> 454 60<54 294 327.96 399.787>
Fore
415 404 m 0
 393 404 374 386 374 364 c 0
 374 342 393 324 415 324 c 0
 437 324 454 342 454 364 c 0
 454 386 437 404 415 404 c 0
424 445 m 16
 466 445 514 426 514 388 c 10
 514 0 l 25
 417 0 l 25
 127 293 l 25
 174 338 l 25
 454 54 l 25
 454 294 l 17
 440 281 424 274 402 280 c 8
 362 291 340 325 340 365 c 8
 340 410 379 445 424 445 c 16
EndSplineSet
EndChar
StartChar: uni0E08
Encoding: 198 3592 208
Width: 600
Flags: W
HStem: 0 21G<443.909 513> 168 42<259.751 330.808> 290 42<262.824 330.831> 385 60<234.119 407.238>
VStem: 229 26<215.182 284.818> 453 60<142 345.935>
Fore
296 290 m 0
 274 290 255 272 255 250 c 0
 255 228 274 210 296 210 c 0
 318 210 335 228 335 250 c 0
 335 272 318 290 296 290 c 0
316 445 m 0
 437 445 513 379 513 306 c 10
 513 0 l 25
 453 0 l 25
 363 198 l 17
 350 179 338 168 316 168 c 24
 270 168 229 203 229 250 c 24
 229 297 283 332 316 332 c 8
 339 332 353 324 370 309 c 24
 385 296 386 282 397 264 c 25
 453 142 l 25
 453 305 l 18
 453 356 378 385 316 385 c 24
 256 385 229 366 177 318 c 9
 134 360 l 17
 194 408 238 445 316 445 c 0
EndSplineSet
EndChar
StartChar: uni0E09
Encoding: 199 3593 209
Width: 600
Flags: W
HStem: 0 34<429.962 495.707> 105 54<451.264 498.652> 146 35<124.23 188.249> 261 46<123.931 194.573> 385 60<159.687 352.568>
VStem: 93 26<186.595 255.843> 201 62<68 152 184.96 252> 390 60<155 350.319> 500 33<51.1657 103.739>
Fore
471 105 m 1xdf80
 471 105 428 104 428 70 c 0
 428 48 439 34 461 34 c 0
 483 34 500 52 500 74 c 0
 500 93 487 105 471 105 c 1xdf80
160 261 m 0
 138 261 119 243 119 221 c 0
 119 199 138 181 160 181 c 0xbf80
 182 181 199 199 199 221 c 0
 199 243 182 261 160 261 c 0
93 220 m 24
 93 272 137 307 185 307 c 0
 219 307 244 288 263 252 c 1
 263 68 l 1
 390 131 l 9
 390 296 l 18
 390 368 316 385 252 385 c 24
 187 385 136 355 96 323 c 9
 56 373 l 17
 105 412 169 445 250 445 c 16
 368 445 450 386 450 296 c 10
 450 155 l 17
 457 157 466 159 475 159 c 0xdf80
 509 159 533 127 533 92 c 0
 533 65 523 0 444 0 c 24
 413 0 390 60 390 60 c 1
 259 0 l 9
 201 0 l 25
 201 152 l 17
 185 152 174 146 161 146 c 0
 144 146 93 170 93 220 c 24
EndSplineSet
EndChar
StartChar: uni0E0A
Encoding: 200 3594 210
Width: 600
Flags: W
HStem: 0 60<105 165 225 390> 278 41<129.133 199.019> 399 53<129.639 216.91>
VStem: 86 38<324.025 393.162> 165 60<60 199.782> 204 44<323.075 361.454> 270 62<283.133 358.967> 390 60<60 305.721 383.238 500>
Fore
165 399 m 0xfb
 143 399 124 381 124 359 c 0
 124 337 143 319 165 319 c 0xfb
 187 319 204 337 204 359 c 0xf7
 204 381 187 399 165 399 c 0xfb
86 359 m 24
 86 419 143 452 204 452 c 0xf7
 234 452 261 442 288 420 c 8
 320 394 332 365 332 324 c 24
 332 242 225 225 225 144 c 2
 225 60 l 9
 390 60 l 17
 390 274 l 2
 390 301 356 313 332 324 c 1
 382 379 383 440 390 500 c 9
 450 500 l 17
 450 424 430 358 402 328 c 1
 443 318 450 297 450 274 c 2
 450 0 l 1
 105 0 l 9
 105 60 l 25
 165 60 l 25
 165 164 l 18xfb
 165 230 200 238 228 264 c 9
 244 284 270 290 270 316 c 24
 270 336 260 344 246 362 c 1
 247 359 248 355 248 351 c 0xf7
 248 323 212 278 166 278 c 0
 122 278 86 315 86 359 c 24
EndSplineSet
EndChar
StartChar: uni0E0B
Encoding: 201 3595 211
Width: 600
Flags: W
HStem: 0 60<161 221 281 446> 204 38<116.316 186.326> 322 124<144.749 212.375>
VStem: 67 44<246.87 316.352> 191 43<246.4 317.782> 221 60<60 197.676> 327 61<282.312 367.87> 446 60<60 294.484 446.887 500>
Fore
152 322 m 0xfb
 130 322 111 304 111 282 c 0
 111 260 130 242 152 242 c 0
 174 242 191 260 191 282 c 0
 191 304 174 322 152 322 c 0xfb
150 204 m 0
 98 204 67 261 67 312 c 0
 67 350 84 384 114 402 c 0
 136 415 163 446 196 446 c 0
 245 446 272 370 273 370 c 1
 276 398 291 446 319 446 c 0
 338 446 355 423 360 417 c 0
 388 387 388 362 388 324 c 16
 388 230 281 225 281 144 c 2
 281 60 l 25
 446 60 l 17
 446 253 l 2
 446 282 417 303 388 324 c 1
 428 356 446 452 446 500 c 9
 506 500 l 17
 506 447 494 347 448 324 c 1
 480 307 506 283 506 253 c 2
 506 0 l 1
 161 0 l 9
 161 60 l 25
 221 60 l 25
 221 164 l 18xf7
 221 230 256 238 284 264 c 2
 299 283 327 289 327 311 c 1
 327 311 318 365 318 368 c 1
 286 307 l 1
 260 307 l 1
 260 307 229 367 208 378 c 1
 197 373 180 366 180 366 c 1
 218 352 234 324 234 272 c 8
 234 230 179 204 150 204 c 0
EndSplineSet
EndChar
StartChar: uni0E0C
Encoding: 202 3596 212
Width: 600
Flags: W
HStem: -1 37<267.888 326.528> 0 53<129.285 186.555> 98 40<276.673 299.37> 113 40<139.729 186.616> 385 60<142.243 289.378>
VStem: 73 60<54.3697 111.894 145 224 224 269> 188 31<54.7457 111.552> 238 28<38.0302 96.5642> 300 60<138 372.185> 328 31<37.9773 60> 443 60<60 444>
Fore
297 98 m 0xaf60
 280 98 266 84 266 67 c 0
 266 50 280 36 297 36 c 0
 314 36 328 50 328 67 c 0
 328 84 314 98 297 98 c 0xaf60
158 113 m 0x5f20
 141 113 128 100 128 83 c 0
 128 66 141 53 158 53 c 0
 175 53 188 66 188 83 c 0
 188 100 175 113 158 113 c 0x5f20
294 138 m 0xaf60
 300 138 l 1xafa0
 300 325 l 2
 300 379 264 385 213 385 c 8
 166 385 137 365 107 330 c 1
 163 330 l 1
 163 280 l 1
 142 266 133 250 133 224 c 2
 133 145 l 1
 133 145 152 153 168 153 c 0
 190 153 219 132 219 83 c 16
 219 44 191 0 147 0 c 0
 109 0 73 21 73 56 c 10
 73 224 l 18
 73 251 88 273 103 280 c 1
 43 280 l 1
 43 330 l 1
 83 411 136 445 213 445 c 0
 302 445 360 399 360 325 c 2
 360 124 l 1
 443 60 l 1
 443 444 l 1
 503 444 l 1
 503 0 l 1
 439 0 l 1x5fa0
 359 60 l 1
 359 50 l 2
 359 24 353 -1 313 -1 c 0
 290 -1 238 9 238 83 c 16
 238 105 242 114 258 126 c 0
 271 137 286 138 294 138 c 0xaf60
EndSplineSet
EndChar
StartChar: uni0E0D
Encoding: 203 3597 213
Width: 600
Flags: W
HStem: -166 42<320.421 386.279> -76 21<327.733 372.394> 0 60<129.108 186.768 360 443> 113 37<135.199 186.263> 385 60<136.499 273.354>
VStem: 73 60<54.4151 111.894 145 224 224 271.434> 188 31<55.0184 111.455> 294 26<-122.831 -77.1725> 300 60<60 358.354> 373 22<-109.965 -76.3138> 443 60<60 444>
Fore
158 113 m 0xfe60
 141 113 128 100 128 83 c 0
 128 66 141 53 158 53 c 0
 175 53 188 66 188 83 c 0
 188 100 175 113 158 113 c 0xfe60
373 -104 m 24
 373 -86 367 -76 350 -76 c 0
 335 -76 320 -85 320 -100 c 0xff60
 320 -115 336 -124 351 -124 c 0
 369 -124 373 -112 373 -104 c 24
359 -55 m 8
 388 -55 395 -78 395 -88 c 0
 395 -98 390 -108 387 -116 c 9
 445 -56 l 25
 484 -93 l 17
 455 -125 434 -166 387 -166 c 24
 343 -166 294 -148 294 -104 c 24
 294 -72 328 -55 359 -55 c 8
159 150 m 0
 221 150 219 108 219 83 c 16
 219 36 199 0 159 0 c 0
 120 0 73 22 73 56 c 10
 73 224 l 18
 73 251 88 273 103 280 c 1
 43 280 l 1
 43 330 l 1
 83 411 125 445 201 445 c 24
 279 445 360 385 360 325 c 2
 360 60 l 1
 443 60 l 1
 443 444 l 1
 503 444 l 1
 503 0 l 1
 300 0 l 1
 300 325 l 2xfee0
 300 359 246 385 201 385 c 24
 157 385 133 365 103 330 c 1
 163 330 l 1
 163 280 l 1
 142 266 133 268 133 224 c 2
 133 145 l 1
 133 145 142 150 159 150 c 0
EndSplineSet
EndChar
StartChar: uni0E0E
Encoding: 204 3598 214
Width: 600
Flags: W
HStem: -166 37<220.47 295.388> -58 37<220.521 293.577> 0 50<107.398 164.879> 110 49<107.424 159.102> 385 60<234.392 400.011>
VStem: 71 35<51.336 108.331> 163 60<51.2366 108.894 150 274.546> 176 41<-117.388 -61.2511> 443 60<-107 363.553>
Fore
136 110 m 0xfc80
 119 110 106 97 106 80 c 0
 106 63 119 50 136 50 c 0
 153 50 166 63 166 80 c 0
 166 97 153 110 136 110 c 0xfc80
217 -94 m 0xfd80
 217 -106 225 -129 256 -129 c 0
 289 -129 287 -112 309 -94 c 25
 298 -84 275 -58 251 -58 c 0
 232 -58 217 -77 217 -94 c 0xfd80
71 80 m 16
 71 141 110 159 135 159 c 0
 148 159 159 156 163 150 c 1
 163 224 l 2xfe80
 163 251 178 273 193 280 c 1
 133 280 l 1
 133 330 l 1
 173 411 247 445 324 445 c 0
 413 445 503 399 503 325 c 10
 503 -167 l 25
 443 -167 l 17
 353 -113 l 1
 335 -138 322 -166 265 -166 c 0
 221 -166 176 -137 176 -92 c 24xfd80
 176 -64 201 -21 273 -21 c 0
 300 -21 316 -28 327 -36 c 1
 371 40 l 1
 411 20 l 1
 371 -60 l 1
 443 -107 l 1
 443 325 l 2
 443 379 375 385 324 385 c 8
 269 385 223 365 193 330 c 1
 253 330 l 1
 253 280 l 1
 232 266 223 268 223 224 c 10
 223 60 l 18xfe80
 223 34 182 0 143 0 c 24
 101 0 71 38 71 80 c 16
EndSplineSet
EndChar
StartChar: uni0E0F
Encoding: 205 3599 215
Width: 600
Flags: W
HStem: -166 37<143.167 229.662> -56 35<142.6 221.642> 0 50<114.398 171.879> 110 49<114.424 166.102> 385 60<241.572 407.011>
VStem: 78 35<51.336 108.331> 98 41<-114.223 -59.7404> 170 60<51.2366 108.894 150 274.546> 450 60<-107 363.553>
Fore
143 110 m 0xfd80
 126 110 113 97 113 80 c 0
 113 63 126 50 143 50 c 0
 160 50 173 63 173 80 c 0
 173 97 160 110 143 110 c 0xfd80
139 -92 m 0xfb80
 139 -104 149 -129 185 -129 c 0
 225 -129 225 -110 239 -96 c 25
 229 -88 211 -56 175 -56 c 0
 157 -56 139 -73 139 -92 c 0xfb80
78 80 m 16xfd80
 78 141 117 159 142 159 c 0
 155 159 166 156 170 150 c 1
 170 224 l 2
 170 251 185 273 200 280 c 1
 141 280 l 1
 141 330 l 1
 181 411 254 445 331 445 c 0
 420 445 510 399 510 325 c 10
 510 -167 l 25
 450 -167 l 17
 372 -102 l 1
 335 -150 l 1
 275 -113 l 1
 257 -138 244 -166 187 -166 c 0
 143 -166 98 -137 98 -92 c 24xfb80
 98 -64 123 -21 195 -21 c 0
 222 -21 238 -28 249 -36 c 1
 293 40 l 1
 333 20 l 1
 293 -60 l 1
 335 -90 l 1
 372 -42 l 1
 450 -107 l 1
 450 325 l 2
 450 379 382 385 331 385 c 8
 276 385 230 365 200 330 c 1
 260 330 l 1
 260 280 l 1
 239 266 230 268 230 224 c 10
 230 60 l 18
 230 34 189 0 150 0 c 24
 108 0 78 38 78 80 c 16xfd80
EndSplineSet
EndChar
StartChar: uni0E10
Encoding: 206 3600 216
Width: 600
Flags: W
HStem: -193 87<449.416 488.596> -189 35<103.073 190.195> -78 34<99.9806 179.509> -44 28<429.432 487.992> 0 21G<436.047 510> 99 38<268.809 339.394> 217 46<268.986 339.621> 390 55<282.423 455.542>
VStem: 62 35<-137.544 -80.2868> 232 32<141.717 211.778> 396 32<-104.099 -45.5021> 450 60<94 269.957> 490 31<-104.29 -45.7522>
Fore
304 217 m 0x3fe0
 282 217 264 199 264 177 c 0
 264 155 282 137 304 137 c 0
 326 137 344 155 344 177 c 0
 344 199 326 217 304 217 c 0x3fe0
459 -44 m 0
 442 -44 428 -58 428 -75 c 0
 428 -92 442 -106 459 -106 c 0
 476 -106 490 -92 490 -75 c 0xbfe8
 490 -58 476 -44 459 -44 c 0
448 -136 m 17
 436 -124 396 -102 396 -73 c 0
 396 -41 433 -16 461 -16 c 8
 495 -16 521 -46 521 -80 c 16
 521 -95 519 -193 519 -193 c 1
 454 -193 l 1xbfe8
 450 -189 348 -128 336 -125 c 1
 299 -173 l 1
 239 -136 l 1
 221 -161 208 -189 151 -189 c 0x7fe8
 107 -189 62 -160 62 -115 c 24
 62 -87 87 -44 159 -44 c 0
 186 -44 202 -51 213 -59 c 1
 257 17 l 1
 297 -3 l 1
 257 -83 l 1
 299 -113 l 1
 336 -65 l 1
 448 -136 l 17
97 -113 m 0
 97 -127 109 -154 144 -154 c 0x7fe0
 186 -154 188 -132 200 -120 c 25
 193.311 -114.565 167.186 -78 130 -78 c 0
 113 -78 97 -93 97 -113 c 0
340 445 m 0
 422 445 508 411 508 411 c 1
 494 356 l 1
 494 356 401 390 340 390 c 24
 313 390 272 384 272 384 c 1
 272 384 356 378 404 355 c 0
 442 337 510 282 510 195 c 10
 510 0 l 25
 450 0 l 25
 360 129 l 17
 347 110 335 99 313 99 c 24
 268 99 232 136 232 181 c 24
 232 226 280 263 313 263 c 8
 335 263 347 254 364 240 c 24
 380 226 384 217 394 195 c 10
 450 94 l 25
 450 194 l 18x3ff0
 450 274 411 287 373 307 c 0
 341 324 322 330 272 330 c 0
 242 330 212 329 173 324 c 9
 173 374 l 17
 212 406 237 445 340 445 c 0
EndSplineSet
EndChar
StartChar: uni0E11
Encoding: 207 3601 217
Width: 600
Flags: W
HStem: 0 21G<165 265.855 439 500> 204 40<58.3494 128.451> 324 122<88.8225 154.323>
VStem: 11 42<248.913 319.115> 133 45<248.187 319.634> 165 60<68 202.622> 271 61<283.336 367.845> 439 61<0 337.784>
Fore
94 324 m 0xfb
 72 324 53 306 53 284 c 0
 53 262 72 244 94 244 c 0
 116 244 133 262 133 284 c 0
 133 306 116 324 94 324 c 0xfb
214 386 m 1
 217 395 233 445 262 445 c 0
 281 445 298 423 304 417 c 0
 332 387 332 361.878 332 324 c 16
 332 224 225 238 225 144 c 2
 225 68 l 17
 369 332 l 1
 369 332 390 375 426 429 c 0
 433 440 448 445 463 445 c 0
 482 445 501 436 501 419 c 0
 501 384 500 308 500 308 c 1
 500 0 l 9
 439 0 l 1
 439 339 l 1
 255 0 l 9
 165 0 l 1
 165 164 l 18xf7
 165 230 200 238 228 264 c 2
 243 283 271 289 271 311 c 1
 271 311 262 365 262 368 c 1
 231 308 l 1
 202 308 l 1
 202 308 174 366 152 378 c 1
 141 373 124 366 124 366 c 1
 162 352 178 324 178 272 c 8
 178 229.852 123 204 94 204 c 0
 42 204 11 261 11 312 c 0
 11 350 28 384 58 402 c 0
 80 415 107 446 142 446 c 0
 185 446 212 386 214 386 c 1
EndSplineSet
EndChar
StartChar: uni0E12
Encoding: 208 3602 218
Width: 600
Flags: W
HStem: 0 42<273.164 331.491> 114 37<279.369 325.014> 265 42<179.527 250.185> 426 20G<163.603 199.333 247.222 282.762 470 530>
VStem: 54 60<87 300 300 346.484> 136 39<189.422 260.6> 242 27<45.9676 112.612> 255 33<189.361 260.243> 332 60<144 348.27> 470 60<66 445>
Fore
215 265 m 0xfdc0
 193 265 175 247 175 225 c 0
 175 203 193 185 215 185 c 0
 237 185 255 203 255 225 c 0
 255 247 237 265 215 265 c 0xfdc0
269 81 m 0xfec0
 269 60 286 42 305 42 c 0
 331 42 331 71 342 87 c 1
 329 97 315 114 298 114 c 0
 281 114 269 98 269 81 c 0xfec0
242 74 m 8
 242 132 289 151 301 151 c 0
 316 151 332 144 332 144 c 1
 332 300 l 2
 332 358 265 372 265 372 c 1
 242 339 l 1xfec0
 210 339 l 1
 181 372 l 1
 181 372 114 358 114 300 c 10
 114 87 l 17
 182 154 l 1
 182 154 136 174 136 226 c 0
 136 278 172 307 216 307 c 24
 258 307 288 272 288 226 c 0xfdc0
 288 154 236 119 227 110 c 10
 114 0 l 25
 54 0 l 25
 54 300 l 18
 54 424 181 446 181 446 c 1
 225 398 l 1
 265 443 l 1
 265 443 392 432 392 300 c 2
 392 130 l 1
 470 66 l 1
 470 445 l 1
 530 445 l 1
 530 0 l 1
 470 0 l 1
 385 66 l 1
 367 40 345 0 304 0 c 24
 267 0 242 36 242 74 c 8
EndSplineSet
EndChar
StartChar: uni0E13
Encoding: 209 3603 219
Width: 600
Flags: W
HStem: 0 31<464.278 529.685> 0 53<111.108 168.768> 113 42<115.007 168.431 489.124 530.397> 385 60<119.625 256.088>
VStem: 55 60<54.4151 111.894 145 224 224 272.735> 170 31<54.8528 111.587> 282 60<60 360.109> 429 60<146 444> 534 28<45.3102 98.6908>
Fore
140 113 m 0x7f80
 123 113 110 100 110 83 c 0
 110 66 123 53 140 53 c 0
 157 53 170 66 170 83 c 0
 170 100 157 113 140 113 c 0x7f80
484 55 m 0
 484 34 497 31 504 31 c 0xbf80
 522 31 534 54 534 74 c 8
 534 89 527.52 106 512 106 c 16
 502 106 497 100 488 96 c 17
 488 83 484 68 484 55 c 0
141 155 m 0
 162 155 201 147 201 83 c 16
 201 40 181 0 141 0 c 0x7f80
 102 0 55 22 55 56 c 10
 55 224 l 18
 55 251 70 273 85 280 c 1
 25 280 l 1
 25 330 l 1
 65 411 106 445 183 445 c 0
 272 445 342 376 342 325 c 2
 342 60 l 1
 429 117 l 1
 429 444 l 1
 489 444 l 1
 489 146 l 1
 489 146 500 149 513 149 c 0
 554.05 149 562 103.455 562 85 c 0
 562 60 553 0 475 0 c 0xbf80
 436 0 427 58 427 58 c 1
 341 0 l 1
 282 0 l 17x7f80
 282 325 l 2
 282 359 228 385 183 385 c 24
 139 385 115 365 85 330 c 1
 143 330 l 1
 143 280 l 1
 122 266 115 268 115 224 c 2
 115 145 l 1
 115 145 122 155 141 155 c 0
EndSplineSet
EndChar
StartChar: uni0E14
Encoding: 210 3604 220
Width: 600
Flags: W
HStem: 0 21G<69 161.364 452 512> 266 46<258.288 328.393> 385 60<176.189 398.095>
VStem: 69 60<70 300 300 346.281> 198 55<191.092 261.491> 333 46<190.542 261.178> 452 60<0 341.397>
Fore
293 266 m 0
 271 266 253 248 253 226 c 0
 253 204 271 186 293 186 c 0
 315 186 333 204 333 226 c 0
 333 248 315 266 293 266 c 0
293 385 m 0
 185 385 129 348 129 300 c 10
 129 70 l 17
 243 143 l 1
 243 143 198 171 198 226 c 0
 198 278 243 312 293 312 c 24
 340 312 379 272 379 226 c 0
 379 143 307 110 307 110 c 9
 129 0 l 25
 69 0 l 25
 69 300 l 18
 69 399 179 445 293 445 c 0
 427 445 512 385 512 300 c 10
 512 0 l 25
 452 0 l 25
 452 300 l 18
 452 329 410 385 293 385 c 0
EndSplineSet
EndChar
StartChar: uni0E15
Encoding: 211 3605 221
Width: 600
Flags: W
HStem: 0 21G<71 163.545 454 514> 266 46<261.163 331.486> 426 20G<192.685 247 341.5 393.178>
VStem: 71 60<70 300 300 341.875> 200 56<190.743 261.491> 336 46<191.246 261.178> 454 60<0 344.172>
Fore
296 266 m 0
 274 266 256 248 256 226 c 0
 256 204 274 186 296 186 c 0
 318 186 336 204 336 226 c 0
 336 248 318 266 296 266 c 0
296 398 m 1
 374 446 l 1
 374 446 514 432 514 300 c 10
 514 0 l 25
 454 0 l 25
 454 300 l 18
 454 358 374 372 374 372 c 1
 323 338 l 1
 268 338 l 1
 212 372 l 1
 212 372 131 358 131 300 c 10
 131 70 l 17
 244 143 l 1
 244 143 200 174 200 226 c 0
 200 278 245.733 312 296 312 c 24
 343.433 312 382 272 382 226 c 0
 382 154 319 119 310 110 c 9
 131 0 l 25
 71 0 l 25
 71 300 l 18
 71 424 212 446 212 446 c 1
 296 398 l 1
EndSplineSet
EndChar
StartChar: uni0E16
Encoding: 212 3606 222
Width: 600
Flags: W
HStem: 0 43<192.8 263.058> 123 40<192.418 263.233> 387 60<214.266 423.278>
VStem: 130 61<48.7127 118.607 159 267.94> 268 40<48.1652 118.022> 460 60<0.237 357.012>
Fore
228 123 m 0
 206 123 188 105 188 83 c 0
 188 61 206 43 228 43 c 0
 250 43 268 61 268 83 c 0
 268 105 250 123 228 123 c 0
222 163 m 0
 287 163 308 134 308 84 c 16
 308 32 271 0 224 0 c 0
 181 0 130 24 130 58 c 10
 130 214 l 18
 130 241 145 273 160 280 c 1
 100 280 l 1
 100 330 l 1
 145 411 237 447 323 447 c 0
 426 447 520 378 520 327 c 2
 520 327 520 0 519 0 c 2
 460 0 l 17
 460 327 l 2
 460 361 384 387 323 387 c 24
 254 387 195 365 160 330 c 1
 229 330 l 1
 229 280 l 1
 202 266 191 258 191 214 c 2
 191 159 l 1
 191 159 203 163 222 163 c 0
EndSplineSet
EndChar
StartChar: uni0E17
Encoding: 213 3607 223
Width: 600
Flags: W
HStem: 0 21G<182 244.407 460 520> 278 42<107.642 178.255> 382 66<359.274 454.88> 400 49<107.526 178.632>
VStem: 70 33<325.353 395.119> 182 58<218 300 324.393 395.433> 460 60<0 375.681>
Fore
143 400 m 0xde
 121 400 103 382 103 360 c 0
 103 338 121 320 143 320 c 0
 165 320 183 338 183 360 c 0
 183 382 165 400 143 400 c 0xde
70 360 m 24
 70 414 117 449 162 449 c 0xde
 202 449 240 420 240 388 c 2
 240 218 l 25
 296 380 l 17
 316 418 365 448 398 448 c 0
 451 448 520 433 520 330 c 2
 520 0 l 25
 460 0 l 17
 460 330 l 2
 460 373 444 382 398 382 c 0xee
 366 382 352 352 345 334 c 2
 238 0 l 9
 182 0 l 25
 182 300 l 17
 164 293 153 278 137 278 c 0
 119 278 70 301 70 360 c 24
EndSplineSet
EndChar
StartChar: uni0E18
Encoding: 214 3608 224
Width: 600
Flags: HW
HStem: 0 60<165 225 285 450> 279 56<175.718 230.281 203 332.355> 387 58<212.13 457.996>
VStem: 225 60<60 220 60 220> 450 60<204 248.822>
Fore
340 445 m 0xe0
 226 445 162 420 115 335 c 9
 115 275 l 17xe0
 136 275 183 279 236 279 c 0
 275 279 317 277 356 270 c 0
 421 259 450 250 450 204 c 2
 450 60 l 25xd0
 285 60 l 17
 285 220 l 1
 225 220 l 1
 225 60 l 1
 165 60 l 1
 165 0 l 9
 510 0 l 1
 510 204 l 2
 510 288 458 318 382 332 c 0
 352 338 322 340 294 340 c 0
 249 340 208 335 175 335 c 1
 220 382 256 387 313 387 c 24
 384 387 494 356 494 356 c 1
 508 411 l 1
 508 411 422 445 340 445 c 0xe0
EndSplineSet
EndChar
StartChar: uni0E19
Encoding: 215 3609 225
Width: 600
Flags: W
HStem: 0 54<446.966 516.9> 134 65<452.427 517.525> 284 34<93.7033 152.28 141.885 162.676> 398 47<94.1791 164.178>
VStem: 55 34<323.008 393.569> 163 62<89 290 322.393 390> 383 60<60.3027 102.035 195 445> 522 33<58.5898 129.324>
Fore
482 134 m 0
 460 134 442 116 442 94 c 0
 442 72 460 54 482 54 c 0
 504 54 522 72 522 94 c 0
 522 116 504 134 482 134 c 0
129 398 m 0
 107 398 89 380 89 358 c 0
 89 336 107 318 129 318 c 0
 151 318 169 336 169 358 c 0
 169 380 151 398 129 398 c 0
55 358 m 24
 55 410 99 445 147 445 c 0
 181 445 206 426 225 390 c 1
 225 89 l 1
 383 182 l 9
 383 445 l 1
 443 445 l 9
 443 195 l 17
 450 197 460 199 470 199 c 0
 509 199 555 163 555 110 c 16
 555 52 525 0 471 0 c 24
 418 0 383 80 383 103 c 1
 221 0 l 9
 163 0 l 25
 163 290 l 17
 147 290 136 284 123 284 c 0
 106 284 55 308 55 358 c 24
EndSplineSet
EndChar
StartChar: uni0E1A
Encoding: 216 3610 226
Width: 600
Flags: W
HStem: 0 60<107 162 222 442> 284 35<92.8009 152.125> 399 46<92.8762 162.95>
VStem: 53 35<323.411 394.486> 162 60<60 291 323.393 391> 442 60<60 445>
Fore
128 399 m 0
 106 399 88 381 88 359 c 0
 88 337 106 319 128 319 c 0
 150 319 168 337 168 359 c 0
 168 381 150 399 128 399 c 0
53 351 m 0
 53 382 80 445 130 445 c 8
 172 445 200 433 222 391 c 1
 222 60 l 1
 442 60 l 9
 442 445 l 1
 502 445 l 9
 502 0 l 17
 107 0 l 1
 107 60 l 1
 162 60 l 9
 162 291 l 17
 147 290 135 284 123 284 c 0
 109 284 53 314 53 351 c 0
EndSplineSet
EndChar
StartChar: uni0E1B
Encoding: 217 3611 227
Width: 600
Flags: W
HStem: 0 60<110 165 225 445> 284 35<92.8036 154.591> 399 46<92.6892 163.631> 595 20G<445 505>
VStem: 56 32<323.411 394.486> 165 60<60 291 323.393 391> 445 60<60 615>
Fore
128 399 m 0
 106 399 88 381 88 359 c 0
 88 337 106 319 128 319 c 0
 150 319 168 337 168 359 c 0
 168 381 150 399 128 399 c 0
56 351 m 0
 56 382 83 445 133 445 c 8
 175 445 203 433 225 391 c 1
 225 60 l 1
 445 60 l 9
 445 615 l 1
 505 615 l 9
 505 0 l 17
 110 0 l 1
 110 60 l 1
 165 60 l 9
 165 291 l 17
 150 290 138 284 126 284 c 0
 112 284 56 314 56 351 c 0
EndSplineSet
EndChar
StartChar: uni0E1C
Encoding: 218 3612 228
Width: 600
Flags: W
HStem: 0 21G<117 224.038 400.468 512> 277 46<183.29 248.154> 403 43<177.5 248.288>
VStem: 117 60<60 282 327.393 398.407> 253 24<327.825 397.917> 452 60<60 445>
Fore
213 403 m 0
 191 403 173 385 173 363 c 0
 173 341 191 323 213 323 c 0
 235 323 253 341 253 363 c 0
 253 385 235 403 213 403 c 0
277 363 m 0
 277 297 226 277 207 277 c 0
 197 277 187 280 177 282 c 9
 177 60 l 17
 282 220 l 9
 342 220 l 25
 452 60 l 1
 452 445 l 25
 512 445 l 25
 512 0 l 17
 413 0 l 1
 314 158 l 1
 211 0 l 1
 117 0 l 9
 117 386 l 17
 129 426 159 446 199 446 c 16
 244 446 277 409 277 363 c 0
EndSplineSet
EndChar
StartChar: uni0E1D
Encoding: 219 3613 229
Width: 600
Flags: W
HStem: 0 21G<117 224.038 400.468 512> 277 46<186.431 251.071> 403 43<180.703 251.217>
VStem: 117 60<60 282 327.393 398.407> 256 21<327.825 397.917> 452 60<60 610>
Fore
216 403 m 0
 194 403 176 385 176 363 c 0
 176 341 194 323 216 323 c 0
 238 323 256 341 256 363 c 0
 256 385 238 403 216 403 c 0
277 363 m 0
 277 297 226 277 207 277 c 0
 197 277 187 280 177 282 c 9
 177 60 l 17
 282 220 l 9
 342 220 l 25
 452 60 l 1
 452 610 l 25
 512 610 l 25
 512 0 l 17
 413 0 l 1
 314 158 l 1
 211 0 l 1
 117 0 l 9
 117 386 l 17
 129 426 159 446 199 446 c 16
 244 446 277 409 277 363 c 0
EndSplineSet
EndChar
StartChar: uni0E1E
Encoding: 220 3614 230
Width: 600
Flags: W
HStem: 0 21G<115 215.242 405 510> 277 46<57.8907 109.682> 403 43<45.9493 116>
VStem: 16 25<328.032 397.917> 115 61<105 282 327.393 398.407> 450 60<105 445>
Fore
81 403 m 0
 59 403 41 385 41 363 c 0
 41 341 59 323 81 323 c 0
 103 323 121 341 121 363 c 0
 121 385 103 403 81 403 c 0
94 446 m 8
 134 446 164 426 176 386 c 9
 176 105 l 17
 280 445 l 9
 340 445 l 25
 450 105 l 1
 450 445 l 25
 510 445 l 25
 510 0 l 17
 411 0 l 1
 312 330 l 1
 209 0 l 1
 115 0 l 9
 115 282 l 17
 105 280 95 277 85 277 c 0
 82 277 16 285 16 363 c 0
 16 409 49 446 94 446 c 8
EndSplineSet
EndChar
StartChar: uni0E1F
Encoding: 221 3615 231
Width: 600
Flags: W
HStem: 0 21G<120 220.242 410 515> 277 46<63.3907 115.11> 403 43<51.4493 122.339>
VStem: 21 26<328.032 397.917> 120 61<105 282 327.393 398.407> 455 60<105 610>
Fore
87 403 m 0
 65 403 47 385 47 363 c 0
 47 341 65 323 87 323 c 0
 109 323 127 341 127 363 c 0
 127 385 109 403 87 403 c 0
99 446 m 8
 139 446 169 426 181 386 c 9
 181 105 l 17
 285 445 l 9
 345 445 l 25
 455 105 l 1
 455 610 l 25
 515 610 l 25
 515 0 l 17
 416 0 l 1
 317 330 l 1
 214 0 l 1
 120 0 l 9
 120 282 l 17
 110 280 100 277 90 277 c 0
 87 277 21 285 21 363 c 0
 21 409 54 446 99 446 c 8
EndSplineSet
EndChar
StartChar: uni0E20
Encoding: 222 3616 232
Width: 600
Flags: W
HStem: 0 38<58.8244 129.603> 118 41<58.4826 123.714> 385 60<214.502 416.325>
VStem: 22 32<42.8992 113.387> 132 62<43.518 113.607 150 270.531> 470 60<0 360.583>
Fore
94 118 m 0
 72 118 54 100 54 78 c 0
 54 56 72 38 94 38 c 0
 116 38 134 56 134 78 c 0
 134 100 116 118 94 118 c 0
22 78 m 16
 22 141 63 159 98 159 c 0
 113 159 126 156 132 150 c 1
 132 214 l 2
 132 241 148 273 164 280 c 1
 95 280 l 1
 95 330 l 1
 142 411 237 445 328 445 c 0
 432 445 530 399 530 325 c 10
 530 0 l 25
 470 0 l 25
 470 325 l 18
 470 379 385 385 321 385 c 8
 255 385 200 365 164 330 c 1
 232 330 l 1
 232 280 l 1
 205 266 194 258 194 214 c 10
 194 60 l 18
 194 34 150 0 108 0 c 24
 59 0 22 37 22 78 c 16
EndSplineSet
EndChar
StartChar: uni0E21
Encoding: 223 3617 233
Width: 600
Flags: W
HStem: -4 49<164.782 231.193> 133 51<164.583 211.875> 274 46<180.052 224.607> 400 46<153.551 224.506>
VStem: 116 38<61.5044 129.001 324.366 394.748> 225 55<170 274 324.393 394.212> 234 46<47.1993 82> 448 60<72 445>
Fore
189 400 m 0xf9
 167 400 149 382 149 360 c 0
 149 338 167 320 189 320 c 0
 211 320 229 338 229 360 c 0
 229 382 211 400 189 400 c 0xf9
116 116 m 16
 116 145 147 184 184 184 c 0
 201 184 216 177 225 170 c 9
 225 274 l 1
 215 274 l 2
 201 274 178 275 164 284 c 8
 135 303 116 325 116 360 c 16
 116 404 150 446 196 446 c 16
 244 446 270 422 280 386 c 1xfd
 280 150 l 17
 448 72 l 9
 448 445 l 25
 508 445 l 25
 508 0 l 17
 446 0 l 1
 280 82 l 1xfb
 280 82 281 39 264 22 c 16
 249 6 232 -4 213 -4 c 0
 178 -4 116 33 116 116 c 16
203 45 m 0
 224 45 234 64 234 83 c 0xfb
 234 87 233 92 232 96 c 1
 219 109 206 133 185 133 c 0
 172 133 154 125 154 88 c 16
 154 75 179 45 203 45 c 0
EndSplineSet
EndChar
StartChar: uni0E22
Encoding: 224 3618 234
Width: 600
Flags: W
HStem: 0 60<236 453> 155 50<250.677 296> 277 46<244.462 309.571> 403 43<239.203 309.01>
VStem: 176 60<60 155 221.248 282 327.393 398.407> 314 22<327.825 397.917> 453 60<60 445>
Fore
274 403 m 0
 252 403 234 385 234 363 c 0
 234 341 252 323 274 323 c 0
 296 323 314 341 314 363 c 0
 314 385 296 403 274 403 c 0
336 363 m 0
 336 297 285 277 266 277 c 0
 256 277 246 280 236 282 c 1
 236 257 l 18
 236 236 263 205 296 205 c 1
 296 155 l 1
 236 155 l 9
 236 60 l 1
 453 60 l 1
 453 445 l 25
 513 445 l 25
 513 0 l 17
 176 0 l 1
 176 155 l 18
 176 199 223 205 234 205 c 1
 211 211 176 221 176 257 c 10
 176 386 l 1
 188 426 218 446 258 446 c 16
 303 446 336 409 336 363 c 0
EndSplineSet
EndChar
StartChar: uni0E23
Encoding: 225 3619 235
Width: 600
Flags: W
HStem: 0 42<378.661 448.915> 122 47<379.154 443.373> 279 56<178.718 233.281 206 335.355> 387 58<215.13 460.996>
VStem: 341 33<46.4839 117.354> 454 59<47.5173 117.607 157 248.315>
Fore
414 122 m 0
 392 122 374 104 374 82 c 0
 374 60 392 42 414 42 c 0
 436 42 454 60 454 82 c 0
 454 104 436 122 414 122 c 0
513 82 m 1
 497 26 451 0 423 0 c 8
 378 0 341 37 341 82 c 16
 341 143 384 169 423 169 c 8
 436 169 441 162 453 157 c 25
 453 204 l 2
 453 250 424 259 359 270 c 0
 320 277 278 279 239 279 c 0
 186 279 139 275 118 275 c 9
 118 335 l 17
 165 420 229 445 343 445 c 0
 425 445 511 411 511 411 c 1
 497 356 l 1
 497 356 387 387 316 387 c 24
 259 387 223 382 178 335 c 1
 211 335 252 340 297 340 c 0
 325 340 355 338 385 332 c 0
 461 318 513 288 513 204 c 2
 513 82 l 1
EndSplineSet
EndChar
StartChar: uni0E24
Encoding: 226 3620 236
Width: 600
Flags: W
HStem: 0 44<194.322 264.458> 124 39<193.42 263.733> 386 61<210.955 423.398>
VStem: 130 61<48.7127 119.607 159 268.829> 269 39<48.6652 119.445> 460 60<-165 357.012>
Fore
229 124 m 0
 207 124 189 106 189 84 c 0
 189 62 207 44 229 44 c 0
 251 44 269 62 269 84 c 0
 269 106 251 124 229 124 c 0
460 327 m 2
 460 359 393 386 318 386 c 0
 262 386 201 371 160 330 c 1
 229 330 l 1
 229 280 l 1
 202 266 191 258 191 214 c 2
 191 159 l 1
 191 159 203 163 222 163 c 0
 287 163 308 130 308 84 c 16
 308 32 271 0 224 0 c 0
 181 0 130 24 130 58 c 10
 130 214 l 18
 130 241 145 273 160 280 c 1
 100 280 l 1
 100 330 l 1
 145 411 237 447 323 447 c 0
 426 447 520 378 520 327 c 2
 520 -165 l 1
 460 -165 l 17
 460 327 l 2
EndSplineSet
EndChar
StartChar: uni0E25
Encoding: 227 3621 237
Width: 600
Flags: W
HStem: 0 43<174.688 245.618> 123 39<174.396 245.616> 214 64<207.365 335.013> 387 60<203.124 402.628>
VStem: 110 60<47.9004 118.607> 250 18<47.7434 118.464> 442 58<163 353.6>
Fore
210 123 m 0
 188 123 170 105 170 83 c 0
 170 61 188 43 210 43 c 0
 232 43 250 61 250 83 c 0
 250 105 232 123 210 123 c 0
197 162 m 0
 232 162 268 147 268 83 c 16
 268 31 236 0 195 0 c 0
 138 0 110 59 110 90 c 2
 110 166 l 2
 110 195 123 278 282 278 c 0
 386 278 442 163 442 163 c 1
 442 318 l 2
 442 366 358 387 295 387 c 24
 226 387 166 350 129 322 c 9
 97 371 l 17
 101 383 218 447 295 447 c 0
 383 447 500 410 500 318 c 2
 500 0 l 1
 442 0 l 17
 442 0 384 214 282 214 c 0
 236 214 203 208 187 195 c 0
 167 179 170 157 170 157 c 1
 170 157 180 162 197 162 c 0
EndSplineSet
EndChar
StartChar: uni0E26
Encoding: 228 3622 238
Width: 600
Flags: W
HStem: 0 38<100.746 170.838> 118 41<100.509 164.752> 385 60<241.618 407.27>
VStem: 78 18<42.8992 113.387> 170 60<43.518 113.607 150 273.624> 450 60<-165 363.553>
Fore
136 118 m 0
 114 118 96 100 96 78 c 0
 96 56 114 38 136 38 c 0
 158 38 176 56 176 78 c 0
 176 100 158 118 136 118 c 0
78 78 m 16
 78 141 117 159 142 159 c 0
 155 159 166 156 170 150 c 1
 170 214 l 2
 170 241 185 273 200 280 c 1
 140 280 l 1
 140 330 l 1
 180 411 260 445 337 445 c 0
 426 445 510 399 510 325 c 10
 510 -165 l 25
 450 -165 l 25
 450 325 l 18
 450 379 382 385 331 385 c 8
 276 385 230 365 200 330 c 1
 260 330 l 1
 260 280 l 1
 239 266 230 258 230 214 c 10
 230 60 l 18
 230 34 189 0 150 0 c 24
 109 0 78 37 78 78 c 16
EndSplineSet
EndChar
StartChar: uni0E27
Encoding: 229 3623 239
Width: 600
Flags: W
HStem: 0 43<378.519 448.654> 123 47<378.969 443.764> 385 60<246.375 403.563>
VStem: 340 34<48.1611 118.124> 453 61<68.5741 118.607 162 340.098>
Fore
414 123 m 0
 392 123 374 105 374 83 c 0
 374 61 392 43 414 43 c 0
 436 43 454 61 454 83 c 0
 454 105 436 123 414 123 c 0
340 91 m 0
 340 138 386 170 413 170 c 0
 432 170 453 162 453 162 c 9
 453 285 l 18
 453 357 377 385 312 385 c 8
 263 385 240 360 203 325 c 9
 168 368 l 17
 168 368 224 445 312 445 c 0
 431 445 514 359 514 285 c 10
 514 83 l 17
 519 76 480 0 422 0 c 8
 371 0 340 48 340 91 c 0
EndSplineSet
EndChar
StartChar: uni0E28
Encoding: 230 3624 240
Width: 600
Flags: W
HStem: 0 21G<69 141.614 458 518> 150 35<262.775 333.066> 265 35<262.888 333.107> 385 60<201.547 364.561>
VStem: 69 60<107 278 278 329.753> 338 50<189.688 260.865> 388 57<456.362 499.532> 458 60<0 330.469>
Fore
299 265 m 0
 277 265 258 247 258 225 c 0
 258 203 277 185 299 185 c 0
 321 185 338 203 338 225 c 0
 338 247 321 265 299 265 c 0
300 445 m 16
 327 445 355 441 381 433 c 1
 386 446 388 458 388 472 c 0
 388 481 387 490 385 500 c 9
 445 500 l 17
 445 465 439 437 430 412 c 1
 481 384 518 339 518 278 c 10
 518 0 l 25
 458 0 l 25
 458 278 l 18
 458 342 374 385 300 385 c 24
 221 385 129 344 129 278 c 10
 129 107 l 17
 193 211 l 2
 218 251 245 300 299 300 c 16
 350 300 388 272 388 227 c 24
 388 181 345 150 299 150 c 16
 270 150 249 163 240 176 c 9
 129 0 l 25
 69 0 l 25
 69 278 l 18
 69 376 189 445 300 445 c 16
EndSplineSet
EndChar
StartChar: uni0E29
Encoding: 231 3625 241
Width: 600
Flags: W
HStem: 0 60<107 162 222 442> 154 55<292.133 381.304> 284 34<92.7033 151.28 140.885 161.676> 289 49<291.955 362.249> 398 46<92.7202 162.95>
VStem: 54 34<323.008 392.963> 162 60<60 290 322.393 390> 245 42<214.105 284.241> 367 46<231.698 271.083> 442 60<60 166 294 445>
Fore
327 289 m 0xdfc0
 305 289 287 271 287 249 c 0
 287 227 305 209 327 209 c 0
 349 209 367 227 367 249 c 0
 367 271 349 289 327 289 c 0xdfc0
128 398 m 0
 106 398 88 380 88 358 c 0
 88 336 106 318 128 318 c 0xefc0
 150 318 168 336 168 358 c 0
 168 380 150 398 128 398 c 0
122 284 m 0
 105 284 54 308 54 358 c 24
 54 403 90 444 130 444 c 8
 172 444 200 432 222 390 c 1
 222 60 l 1
 442 60 l 1
 442 166 l 1
 420 158 400 154 379 154 c 0
 315 154 245 182 245 248 c 24
 245 295 280 338 327 338 c 16xdfc0
 360 338 371 329 389 309 c 24
 410 285 413 267 413 231 c 1
 423 231 433 235 442 240 c 1
 442 445 l 1
 502 445 l 1
 502 294 l 1
 514 309 523 323 532 333 c 9
 577 285 l 17
 550 247 531 220 502 198 c 1
 502 0 l 1
 107 0 l 1
 107 60 l 1
 162 60 l 9
 162 290 l 17
 146 290 135 284 122 284 c 0
EndSplineSet
EndChar
StartChar: uni0E2A
Encoding: 232 3626 242
Width: 600
Flags: W
HStem: 0 43<174.688 245.618> 123 39<174.396 245.616> 214 64<207.365 335.013> 387 60<203.124 364.711>
VStem: 110 60<47.9004 118.607> 250 18<47.7434 118.464> 391 59<467.146 494.477 494.477 500> 442 58<163 355.273>
Fore
210 123 m 0xfc
 188 123 170 105 170 83 c 0
 170 61 188 43 210 43 c 0
 232 43 250 61 250 83 c 0
 250 105 232 123 210 123 c 0xfc
197 162 m 0
 232 162 268 147 268 83 c 16
 268 31 236 0 195 0 c 0
 138 0 110 59 110 90 c 2
 110 166 l 2
 110 195 123 278 282 278 c 0
 386 278 442 163 442 163 c 1
 442 318 l 2xfd
 442 366 358 387 295 387 c 24
 226 387 166 350 129 322 c 9
 97 371 l 17
 101 383 218 447 295 447 c 0
 321 447 349 444 376 437 c 1
 384 453 391 470 391 489 c 0
 391 492 390 496 390 500 c 9
 450 500 l 17xfe
 450 470 441 442 431 417 c 1
 471 396 500 364 500 318 c 2
 500 0 l 1
 442 0 l 17xfd
 442 0 384 214 282 214 c 0
 236 214 203 208 187 195 c 0
 167 179 170 157 170 157 c 1
 170 157 180 162 197 162 c 0
EndSplineSet
EndChar
StartChar: uni0E2B
Encoding: 233 3627 243
Width: 600
Flags: W
HStem: 0 21G<167 237.412 445 505> 277 43<93.448 154.925> 400 48<93.9196 164.648 377.986 448.014>
VStem: 55 34<324.891 395.567> 167 58<116 300 324.393 394.277> 325 48<330.635 395.014> 445 60<0 229.441> 453 48<324.721 395.014>
Fore
413 400 m 0xfd
 391 400 373 382 373 360 c 0
 373 338 391 320 413 320 c 0
 435 320 453 338 453 360 c 0
 453 382 435 400 413 400 c 0xfd
129 400 m 0
 107 400 89 382 89 360 c 0
 89 338 107 320 129 320 c 0
 151 320 169 338 169 360 c 0
 169 382 151 400 129 400 c 0
129 277 m 0
 105 277 55 299 55 360 c 24
 55 407 91 448 138 448 c 16
 178 448 225 422 225 388 c 2
 225 116 l 17
 358 290 l 1
 333 302 325 339 325 360 c 0
 325 409 364 448 413 448 c 0
 462 448 501 409 501 360 c 0xfd
 501 331 492 299 464 292 c 1
 490 277 505 246 505 204 c 2
 505 0 l 9
 445 0 l 17
 445 204 l 2xfe
 445 228 436 251 419 272 c 1
 223 0 l 9
 167 0 l 25
 167 300 l 17
 158 285 144 277 129 277 c 0
EndSplineSet
EndChar
StartChar: uni0E2C
Encoding: 234 3628 244
Width: 600
Flags: W
HStem: 0 21G<115 215.242 405 510> 277 46<57.2531 109.682> 403 43<45.9493 116> 446 51<383.147 445.154> 448 73<509 567.377> 577 51<374.373 445.612>
VStem: 16 25<327.489 397.917> 115 61<105 282 327.393 398.407> 341 29<502.375 572.355> 450 60<105 446 521.404 561.083>
Fore
410 577 m 0xe7c0
 388 577 370 560 370 538 c 0
 370 516 388 497 410 497 c 0xe7c0
 432 497 450 516 450 538 c 0
 450 560 432 577 410 577 c 0xe7c0
81 403 m 0
 59 403 41 385 41 363 c 0
 41 341 59 323 81 323 c 0
 103 323 121 341 121 363 c 0
 121 385 103 403 81 403 c 0
673 575 m 17
 635 523 597 467 510 448 c 1
 510 0 l 1
 411 0 l 1
 312 330 l 1
 209 0 l 1
 115 0 l 9
 115 282 l 17
 105 280 95 277 85 277 c 0
 76 277 16 289 16 363 c 0
 16 409 49 446 94 446 c 8
 134 446 164 426 176 386 c 9
 176 105 l 17
 280 445 l 9
 340 445 l 25
 450 105 l 1
 450 446 l 1
 423 446 341 467 341 538 c 24
 341 585 376 628 423 628 c 16
 456 628 467 619 485 599 c 24
 506 575 509 557 509 521 c 1xefc0
 566 527 603 594 628 623 c 9
 673 575 l 17
EndSplineSet
EndChar
StartChar: uni0E2D
Encoding: 235 3629 245
Width: 600
Flags: W
HStem: 0 56<227 447> 111 48<229.368 282.72> 239 39<229.443 300.4> 387 60<236.919 416.976>
VStem: 167 60<56 122 163.393 233.807> 305 28<164.407 234.63> 447 60<56 359.577>
Fore
265 239 m 0
 243 239 225 221 225 199 c 0
 225 177 243 159 265 159 c 0
 287 159 305 177 305 199 c 0
 305 221 287 239 265 239 c 0
333 200 m 24
 333 129 258 111 251 111 c 0
 241 111 233 116 227 122 c 9
 227 56 l 17
 447 56 l 1
 447 327 l 2
 447 361 386 387 337 387 c 24
 278 387 226 369 196 334 c 9
 160 378 l 17
 159 381 239 447 337 447 c 0
 426 447 507 378 507 327 c 2
 507 0 l 1
 167 0 l 9
 167 199 l 17
 176 240 205 278 249 278 c 16
 290 278 333 245 333 200 c 24
EndSplineSet
EndChar
StartChar: uni0E2E
Encoding: 236 3630 246
Width: 600
Flags: W
HStem: 0 56<230 450> 111 48<232.368 285.72> 239 39<232.443 303.4> 387 60<239.919 420.868>
VStem: 170 60<56 122 163.393 233.807> 308 28<164.407 234.63> 450 60<56 345.876 455.125 500>
Fore
268 239 m 0
 246 239 228 221 228 199 c 0
 228 177 246 159 268 159 c 0
 290 159 308 177 308 199 c 0
 308 221 290 239 268 239 c 0
336 200 m 24
 336 129 261 111 254 111 c 0
 244 111 236 116 230 122 c 9
 230 56 l 17
 450 56 l 1
 450 327 l 2
 450 361 389 387 340 387 c 24
 281 387 229 369 199 334 c 9
 163 378 l 17
 162 381 242 447 340 447 c 0
 375 447 409 436 437 420 c 1
 445 442 450 465 450 500 c 9
 510 500 l 17
 510 454 499 417 484 383 c 1
 500 364 510 345 510 327 c 2
 510 0 l 1
 170 0 l 9
 170 199 l 17
 179 240 208 278 252 278 c 16
 293 278 336 245 336 200 c 24
EndSplineSet
EndChar
StartChar: uni0E2F
Encoding: 237 3631 247
Width: 600
Flags: W
HStem: 0 21G<334 423> 269 71<100.175 189.304> 420 31<100.048 170.358>
VStem: 55 40<345.207 415.514> 175 48<344.393 384.513> 390 60<67 354>
Fore
135 420 m 0
 113 420 95 402 95 380 c 0
 95 358 113 340 135 340 c 0
 157 340 175 358 175 380 c 0
 175 402 157 420 135 420 c 0
179 269 m 0
 107 269 55 306 55 361 c 24
 55 408 90 451 137 451 c 16
 170 451 181 443 199 423 c 24
 220 399 223 380 223 344 c 1
 332 357 381 440 390 445 c 9
 450 445 l 17
 450 67 l 1
 446 67 446 14 400 0 c 1
 334 0 l 1
 374 28 388 50 390 67 c 2
 390 354 l 1
 349 311 323 301 267 285 c 0
 233 276 208 269 179 269 c 0
EndSplineSet
EndChar
StartChar: uni0E30
Encoding: 238 3632 248
Width: 600
Flags: W
HStem: 41 75<181.133 298.126 302 344.644> 196 29<180.955 251.249> 262 75<181.133 298.126 302 344.644> 417 29<180.955 251.249>
VStem: 134 42<121.73 191.366 342.73 412.366> 256 46<120.393 158.083 341.393 379.083>
Fore
216 196 m 0
 194 196 176 178 176 156 c 0
 176 134 194 116 216 116 c 0
 238 116 256 134 256 156 c 0
 256 178 238 196 216 196 c 0
268 41 m 0
 204 41 134 69 134 135 c 24
 134 182 169 225 216 225 c 16
 249 225 260 216 278 196 c 24
 299 172 302 154 302 118 c 1
 359 124 396 191 421 220 c 9
 466 172 l 17
 427 118 405 85 346 59 c 16
 317 47 293 41 268 41 c 0
216 417 m 0
 194 417 176 399 176 377 c 0
 176 355 194 337 216 337 c 0
 238 337 256 355 256 377 c 0
 256 399 238 417 216 417 c 0
268 262 m 0
 204 262 134 290 134 356 c 24
 134 403 169 446 216 446 c 16
 249 446 260 437 278 417 c 24
 299 393 302 375 302 339 c 1
 359 345 396 412 421 441 c 9
 466 393 l 17
 427 339 405 306 346 280 c 16
 317 268 293 262 268 262 c 0
EndSplineSet
EndChar
StartChar: uni0E32
Encoding: 240 3634 249
Width: 600
Flags: W
HStem: 385 60<203.767 355.995>
VStem: 406 60<285 341.219>
Fore
264 445 m 0
 194 445 172 418 134 386 c 9
 172 342 l 17
 172 342 225 385 264 385 c 16
 330 385 406 357 406 285 c 10
 406 0 l 25
 466 0 l 25
 466 285 l 18
 466 359 383 445 264 445 c 0
EndSplineSet
EndChar
StartChar: uni0E33
Encoding: 241 3635 250
Width: 600
Flags: W
HStem: 385 60<194.579 346.467> 444 43<106.573 177.504> 567 45<106.573 177.504>
VStem: 59 43<491.573 562.504> 182 45<491.573 562.504> 396 60<285 341.219>
Fore
142 567 m 0x7c
 120 567 102 549 102 527 c 0
 102 505 120 487 142 487 c 0
 164 487 182 505 182 527 c 0
 182 549 164 567 142 567 c 0x7c
143 612 m 0
 189 612 227 574 227 528 c 0
 227 482 189 444 143 444 c 0
 97 444 59 482 59 528 c 0
 59 574 97 612 143 612 c 0
163 342 m 17
 163 342 215 385 255 385 c 16
 320 385 396 357 396 285 c 10
 396 0 l 25
 456 0 l 25
 456 285 l 18
 456 359 374 445 255 445 c 0xbc
 185 445 163 418 125 386 c 9
 163 342 l 17
EndSplineSet
EndChar
StartChar: uni0E36
Encoding: 244 3638 251
Width: 600
Flags: W
HStem: 500 54<165 331> 500 44<379.481 450.344> 612 54<191.373 305.408> 634 32<379.765 456.523>
VStem: 463 28<550.532 626.956>
Fore
418 634 m 0x58
 393 634 373 614 373 589 c 0
 373 564 393 544 418 544 c 0
 443 544 463 564 463 589 c 0
 463 614 443 634 418 634 c 0x58
243 612 m 0xa8
 207 612 183 590 165 554 c 9
 331 554 l 17
 314 594 283 612 243 612 c 0xa8
239 666 m 16
 285 666 351 616 351 616 c 1
 351 616 381 666 411 666 c 16
 457 666 491 629 491 584 c 16
 491 548 474 538 451 518 c 24
 437 506 424 507 407 500 c 25
 104 500 l 17x58
 104 606 156 666 239 666 c 16
EndSplineSet
EndChar
StartChar: uni0E38
Encoding: 246 3640 252
Width: 600
Flags: W
HStem: -139 21<381.14 422.699 414.693 430.705> -62 22<380.869 435.193>
VStem: 358 22<-117.249 -63.1169> 431 58<-194 -136 -117.259 -83>
Fore
408 -62 m 0
 393 -62 380 -75 380 -90 c 0
 380 -105 393 -118 408 -118 c 0
 423 -118 436 -105 436 -90 c 0
 436 -75 423 -62 408 -62 c 0
358 -95 m 0
 358 -73 377 -40 418 -40 c 16
 454 -40 473 -52 489 -83 c 9
 489 -194 l 25
 431 -194 l 25
 431 -136 l 17
 420 -136 411 -139 402 -139 c 0
 383 -139 358 -118 358 -95 c 0
EndSplineSet
EndChar
StartChar: uni0E39
Encoding: 247 3641 253
Width: 600
Flags: W
HStem: -200 56<374 432> -141 24<281.366 318.25> -66 24<275.278 325.538>
VStem: 257 18<-116.506 -66.1907> 320 54<-144 -136 -116.717 -76> 432 52<-144 -42>
Fore
300 -66 m 0
 286 -66 275 -77 275 -92 c 0
 275 -106 286 -117 300 -117 c 0
 315 -117 326 -106 326 -92 c 0
 326 -77 315 -66 300 -66 c 0
302 -141 m 0
 295 -141 257 -134 257 -86 c 8
 257 -60 280 -42 306 -42 c 16
 338 -42 358 -54 374 -76 c 9
 374 -144 l 25
 432 -144 l 25
 432 -42 l 25
 484 -42 l 25
 484 -200 l 25
 320 -200 l 25
 320 -136 l 17
 314 -139 308 -141 302 -141 c 0
EndSplineSet
EndChar
StartChar: uni0E3A
Encoding: 248 3642 254
Width: 600
Flags: W
HStem: -200 120<329.745 422.255>
VStem: 316 120<-186.255 -93.7454>
Fore
376 -80 m 0
 409 -80 436 -107 436 -140 c 0
 436 -173 409 -200 376 -200 c 0
 343 -200 316 -173 316 -140 c 0
 316 -107 343 -80 376 -80 c 0
EndSplineSet
EndChar
StartChar: uni0E3F
Encoding: 253 3647 259
Width: 600
Flags: W
HStem: 0 41<43.0066 124 165 272 314 446.893> 272 41<165 272 314 404.795> 522 41<43.0066 124 165 272 314 406.937>
VStem: 124 41<41 272 313 522> 272 42<-62 0 41 272 313 522 563 636> 458 41<359.281 475.059> 500 41<90.283 213.204>
Fore
272 272 m 1
 165 272 l 1
 165 41 l 1
 272 41 l 1
 272 272 l 1
272 522 m 1
 165 522 l 1
 165 313 l 1
 272 313 l 1
 272 522 l 1
272 0 m 1
 70 0 l 2
 52 0 43 7 43 21 c 0
 43 34 52 41 70 41 c 2
 124 41 l 1
 124 522 l 1
 70 522 l 2
 52 522 43 529 43 543 c 0
 43 556 52 563 70 563 c 2
 272 563 l 1
 272 636 l 1
 314 636 l 1
 314 563 l 1
 328 563 l 2
 425 563 499 499 499 417 c 0
 499 366 473 330 414 298 c 1
 498 268 541 220 541 153 c 0
 541 69 467 0 376 0 c 2
 314 0 l 1
 314 -62 l 1
 272 -62 l 1
 272 0 l 1
314 41 m 1
 373 41 l 2
 444 41 500 91 500 153 c 0
 500 189 478 224 441 246 c 0
 409 265 375 272 314 272 c 1
 314 41 l 1
314 522 m 1
 314 313 l 1
 398 313 458 355 458 417 c 0
 458 475 402 522 329 522 c 2
 314 522 l 1
EndSplineSet
EndChar
StartChar: uni0E40
Encoding: 254 3648 260
Width: 600
Flags: W
HStem: 0 44<347.752 418.137> 124 46<354.907 418.3> 425 20G<287 347>
VStem: 287 60<60 119.607 160 445> 423 28<49.211 118.748>
Fore
383 124 m 0
 361 124 343 106 343 84 c 0
 343 62 361 44 383 44 c 0
 405 44 423 62 423 84 c 0
 423 106 405 124 383 124 c 0
287 445 m 25
 347 445 l 25
 347 160 l 25
 359 164 365 170 377 170 c 16
 417 170 451 128 451 84 c 24
 451 39 416 0 371 0 c 24
 331 0 303 18 287 60 c 9
 287 445 l 25
EndSplineSet
EndChar
StartChar: uni0E41
Encoding: 255 3649 261
Width: 600
Flags: W
HStem: 0 44<170.752 241.137 395.752 466.137> 124 46<177.907 241.3 402.907 466.3> 425 20G<110 170 335 395>
VStem: 110 60<60 119.607 160 445> 246 28<49.211 118.748> 335 60<60 119.607 160 445> 471 28<49.211 118.748>
Fore
431 124 m 0
 409 124 391 106 391 84 c 0
 391 62 409 44 431 44 c 0
 453 44 471 62 471 84 c 0
 471 106 453 124 431 124 c 0
335 445 m 25
 395 445 l 25
 395 160 l 25
 407 164 413 170 425 170 c 16
 465 170 499 128 499 84 c 24
 499 39 464 0 419 0 c 24
 379 0 351 18 335 60 c 9
 335 445 l 25
206 124 m 0
 184 124 166 106 166 84 c 0
 166 62 184 44 206 44 c 0
 228 44 246 62 246 84 c 0
 246 106 228 124 206 124 c 0
110 445 m 25
 170 445 l 25
 170 160 l 25
 182 164 188 170 200 170 c 16
 240 170 274 128 274 84 c 24
 274 39 239 0 194 0 c 24
 154 0 126 18 110 60 c 9
 110 445 l 25
EndSplineSet
EndChar
StartChar: uni0E42
Encoding: 256 3650 262
Width: 600
Flags: W
HStem: 0 39<338.306 408.307> 119 45<343.333 408.403> 499 60<115.786 160.171 160.171 206 224 256.776> 611 58<152.13 397.996>
VStem: 277 60<44.7756 114.607 153 478.097> 413 31<43.8054 113.893>
Fore
373 119 m 0
 351 119 333 101 333 79 c 0
 333 57 351 39 373 39 c 0
 395 39 413 57 413 79 c 0
 413 101 395 119 373 119 c 0
277 83 m 9
 277 428 l 2
 277 474 271 479 206 492 c 0
 124 508 92 499 55 499 c 9
 55 559 l 17
 102 644 166 669 280 669 c 0
 362 669 448 635 448 635 c 1
 434 580 l 1
 434 580 324 611 253 611 c 24
 196 611 160 606 115 559 c 1
 168 559 182 560 224 552 c 16
 300 538 337 512 337 428 c 2
 337 153 l 1
 337 153 350 164 360 164 c 16
 413 164 444 125 444 78 c 8
 444 35 409 0 366 0 c 16
 316 0 277 48 277 83 c 9
EndSplineSet
EndChar
StartChar: uni0E43
Encoding: 257 3651 263
Width: 600
Flags: W
HStem: 0 43<339.61 410.528> 123 45<345.748 410.307> 390 48<117.876 188.532> 518 41<123.501 188.366> 610 60<138.347 247.947>
VStem: 45 68<443.402 556.008 554 598.409> 193 31<442.671 512.889> 280 60<48.9375 118.607 160 595.897> 415 31<47.6054 118.587>
Fore
153 518 m 0
 131 518 113 500 113 478 c 0
 113 456 131 438 153 438 c 0
 175 438 193 456 193 478 c 0
 193 500 175 518 153 518 c 0
375 123 m 0
 353 123 335 105 335 83 c 0
 335 61 353 43 375 43 c 0
 397 43 415 61 415 83 c 0
 415 105 397 123 375 123 c 0
140 390 m 16
 69 390 45 484 45 522 c 0
 45 552 55 579 72 612 c 8
 96 657 137 670 190 670 c 0
 255 670 340 625 340 563 c 10
 340 160 l 17
 347 167 357 168 368 168 c 16
 411 168 446 127 446 83 c 8
 446 39 412 0 368 0 c 0
 314 0 280 33 280 83 c 10
 280 563 l 18
 280 601 226 610 190 610 c 8
 153 610 114 606 114 554 c 1
 128 556 140 559 152 559 c 0
 179 559 224 533 224 474 c 16
 224 427 186 390 140 390 c 16
EndSplineSet
EndChar
StartChar: uni0E44
Encoding: 258 3652 264
Width: 600
Flags: W
HStem: 0 43<392.472 463.077> 123 45<392.483 463.595>
VStem: 328 58<48.9375 118.607 160 604> 468 24<47.6054 118.587>
Fore
428 123 m 0
 406 123 388 105 388 83 c 0
 388 61 406 43 428 43 c 0
 450 43 468 61 468 83 c 0
 468 105 450 123 428 123 c 0
288 665 m 25
 386 665 l 9
 386 160 l 17
 393 167 403 168 414 168 c 16
 457 168 492 127 492 83 c 8
 492 39 458 0 414 0 c 0
 360 0 328 33 328 83 c 10
 328 604 l 17
 190 492 l 25
 190 492 46 610 46 612 c 0
 46 614 88 660 88 660 c 25
 190 574 l 25
 288 665 l 25
EndSplineSet
EndChar
StartChar: uni0E45
Encoding: 259 3653 265
Width: 600
Flags: W
HStem: 385 60<203.767 355.995>
VStem: 406 60<285 341.219>
Fore
264 445 m 0
 194 445 172 418 134 386 c 9
 172 342 l 17
 172 342 225 385 264 385 c 16
 330 385 406 357 406 285 c 10
 406 -165 l 25
 466 -165 l 25
 466 285 l 18
 466 359 383 445 264 445 c 0
EndSplineSet
EndChar
StartChar: uni0E46
Encoding: 260 3654 266
Width: 600
Flags: W
HStem: 144 42<201.461 271.877> 266 34<201.602 272.092> 424 20G<192 239.412 347.412 395.5>
VStem: 131 66<193.053 261.607> 277 38<191.073 261.028> 407 62<26.5204 346>
Fore
237 266 m 0
 215 266 197 248 197 226 c 0
 197 204 215 186 237 186 c 0
 259 186 277 204 277 226 c 0
 277 248 259 266 237 266 c 0
215 444 m 9
 298 376 l 1
 368 444 l 1
 423 444 457 422 469 376 c 9
 469 54 l 18
 469 22 443 -99 407 -110 c 9
 347 -110 l 17
 382 -90 407 30 407 54 c 10
 407 346 l 17
 385 360 372 366 372 366 c 1
 324 322 l 25
 270 322 l 25
 219 370 l 17
 198 370 180 324 190 282 c 1
 190 282 219 300 239 300 c 16
 284 300 315 250 315 228 c 0
 315 182 283 144 239 144 c 16
 157 144 131 222 131 282 c 2
 131 385 l 1
 126 393 169 444 215 444 c 9
EndSplineSet
EndChar
StartChar: uni0E47
Encoding: 261 3655 267
Width: 600
Flags: W
HStem: 500 22<395.766 408> 563 19<390.72 424.05> 640 41<225.772 389.799>
VStem: 148 309<585 695 585 585> 148 58<555.894 621.109> 373 13<554 562.897> 429 18<522.183 562.814>
Fore
408 563 m 0xe6
 396 563 386 555 386 543 c 0
 386 531 396 522 408 522 c 0
 419 522 429 531 429 543 c 0
 429 555 419 563 408 563 c 0xe6
447 542 m 0
 447 511 408 500 408 500 c 1
 349 500 l 9
 293 542 l 25
 237 500 l 17
 188 523 148 528 148 585 c 8
 148 658 243 681 309 681 c 8
 363 681 440 729 440 729 c 9
 457 695 l 17xf0
 457 695 377 640 315 640 c 0
 266 640 206 629 206 583 c 0xe8
 206 561 237 552 237 552 c 9
 291 585 l 1
 349 554 l 9
 373 554 l 17
 373 571 390 582 407 582 c 24
 432 582 447 562 447 542 c 0
EndSplineSet
EndChar
StartChar: uni0E4E
Encoding: 268 3662 268
Width: 600
VWidth: 991
Flags: W
HStem: 639 64<359.969 404.228> 727 49<487.884 538>
VStem: 301 273<613 727 613 613>
Fore
301 613 m 0
 301 665 338 703 376 703 c 0
 391 703 406 697 419 682 c 9
 434 708 435 729 458 748 c 24
 484 769 538 776 538 776 c 9
 574 727 l 17
 574 727 524 716 502 694 c 24
 480 672 468 623 468 623 c 9
 492 581 l 17
 441 554 l 9
 414 616 l 17
 412 625 395 639 380 639 c 0
 354 639 360 600 359 600 c 1
 396 529 l 9
 347 507 l 25
 303 595 l 17
 302 600 301 606 301 613 c 0
EndSplineSet
EndChar
StartChar: uni0E4F
Encoding: 269 3663 269
Width: 600
Flags: W
HStem: 0 54<229.751 373.971> 110 54<277.108 331.817> 222 56<276.967 333.006> 334 56<229.751 373.971>
VStem: 104 58<122.029 266.11> 220 56<164.817 221.24> 334 54<166.547 219.597> 442 54<122.029 266.11>
Fore
302 222 m 0
 286 222 276 210 276 194 c 0
 276 178 286 164 302 164 c 0
 318 164 334 178 334 194 c 0
 334 210 318 222 302 222 c 0
302 278 m 0
 348 278 388 240 388 194 c 0
 388 148 348 110 302 110 c 0
 256 110 220 148 220 194 c 0
 220 240 256 278 302 278 c 0
302 334 m 0
 225 334 162 271 162 194 c 0
 162 117 225 54 302 54 c 0
 379 54 442 117 442 194 c 0
 442 271 379 334 302 334 c 0
302 390 m 0
 410 390 496 302 496 194 c 0
 496 86 410 0 302 0 c 0
 194 0 104 86 104 194 c 0
 104 302 194 390 302 390 c 0
EndSplineSet
EndChar
StartChar: uni0E50
Encoding: 270 3664 270
Width: 600
Flags: W
HStem: 0 54<229.164 372.971> 332 56<227.753 376.596>
VStem: 105 58<118.615 266.902> 441 54<122.236 265.491>
Fore
301 332 m 0
 224 332 163 271 163 194 c 0
 163 117 224 54 301 54 c 0
 378 54 441 117 441 194 c 0
 441 271 378 332 301 332 c 0
301 388 m 0
 409 388 495 301 495 194 c 0
 495 87 409 0 301 0 c 0
 193 0 105 87 105 194 c 0
 105 301 193 388 301 388 c 0
EndSplineSet
EndChar
StartChar: uni0E51
Encoding: 271 3665 271
Width: 600
Flags: W
HStem: -4 69<212.297 282.403> 171 44<212.646 296.664> 330 60<230.786 367.103>
VStem: 97 68<172.345 264.131> 309 31<77.1909 158.619> 440 64<90.8682 254.297>
Fore
252 171 m 0
 281 171 309 147 309 118 c 0
 309 89 281 65 252 65 c 0
 223 65 203 89 203 118 c 0
 203 147 223 171 252 171 c 0
165 202 m 0
 165 246 213 330 300 330 c 24
 356 330 440 285 440 158 c 0
 440 107 408 84 388 37 c 25
 438 0 l 1
 438 0 504 76 504 188 c 0
 504 292 441 390 299 390 c 0
 117 390 97 237 97 198 c 0
 97 87 166 -4 245 -4 c 0
 264 -4 340 4 340 120 c 16
 340 157 306 215 246 215 c 0
 211 215 171 171 172 164 c 1
 172 164 165 185 165 202 c 0
EndSplineSet
EndChar
StartChar: uni0E52
Encoding: 272 3666 272
Width: 600
Flags: W
HStem: 0 60<159 434> 112 44<269.823 339.704> 236 35<276.847 340.648>
VStem: 99 60<60 374.099> 211 53<161.333 231.819 252 326.616> 345 34<161.085 231.283> 434 60<60 300>
Fore
305 236 m 0
 283 236 265 219 265 197 c 0
 265 175 283 156 305 156 c 0
 327 156 345 175 345 197 c 0
 345 219 327 236 305 236 c 0
494 300 m 10
 494 0 l 25
 99 0 l 25
 99 327 l 18
 99 366 68 383 44 401 c 9
 83 440 l 17
 127 420 159 374 159 327 c 10
 159 60 l 25
 434 60 l 25
 434 300 l 17
 431 312 425 320 407 327 c 9
 375 278 l 25
 322 278 l 25
 286 327 l 17
 273 319 264 299 264 252 c 1
 270 263 287 271 304 271 c 16
 336 271 379 238 379 197 c 24
 379 149 338 112 290 112 c 24
 245 112 211 161 211 197 c 10
 211 318 l 2
 211 331 247 389 288 389 c 24
 321 389 346 327 346 327 c 25
 346 327 370 388 403 388 c 24
 452 388 496 315 494 300 c 10
EndSplineSet
EndChar
StartChar: uni0E53
Encoding: 273 3667 273
Width: 600
Flags: W
HStem: 0 51<166.366 236.829> 131 41<166.495 236.99> 330 60<169.67 238.831 368.887 432.222>
VStem: 102 60<56.5312 126.607 156 322.519> 242 34<55.9621 126.387> 438 60<0 274 274 329.933>
Fore
202 131 m 0
 180 131 162 113 162 91 c 0
 162 69 180 51 202 51 c 0
 224 51 242 69 242 91 c 0
 242 113 224 131 202 131 c 0
162 156 m 1
 162 156 184 172 200 172 c 16
 246 172 276 135 276 92 c 24
 276 42 238 0 188 0 c 16
 140 0 102 42 102 92 c 10
 102 274 l 18
 102 334 146 390 208 390 c 24
 256 390 298 306 298 306 c 1
 298 306 332 390 378 390 c 24
 442 390 498 334 498 274 c 10
 498 0 l 25
 438 0 l 25
 438 274 l 18
 438 322 422 333 402 333 c 0
 395 333 388 332 380 330 c 8
 344 323 344 244 344 244 c 25
 262 244 l 25
 262 244 248 330 208 330 c 24
 180 330 162 313 162 274 c 2
 162 156 l 1
EndSplineSet
EndChar
StartChar: uni0E54
Encoding: 274 3668 274
Width: 600
Flags: W
HStem: 0 60<194.009 238 238 362 436 486> 233 45<324.551 395.416>
VStem: 92 60<100.336 285.943> 264 56<158.093 228.61> 400 32<157.954 228.61>
Fore
360 233 m 0
 338 233 320 216 320 194 c 0
 320 172 338 153 360 153 c 0
 382 153 400 172 400 194 c 0
 400 216 382 233 360 233 c 0
348 278 m 24
 394 278 432 240 432 194 c 16
 432 166 406 134 384 123 c 1
 406 102 420 81 436 60 c 1
 486 60 l 9
 486 0 l 25
 238 0 l 18
 122 0 92 104 92 194 c 8
 92 253 98 297 142 338 c 24
 196 390 242 391 328 391 c 8
 394 391 444 451 478 476 c 9
 508 428 l 17
 464 392 418 346 346 337 c 16
 288 330 230 343 190 303 c 8
 158 272 152 263 152 194 c 0
 152 70 210 60 305 60 c 2
 362 60 l 1
 314 117 264 125 264 194 c 8
 264 240 302 278 348 278 c 24
EndSplineSet
EndChar
StartChar: uni0E55
Encoding: 275 3669 275
Width: 600
Flags: W
HStem: 0 60<194.009 238 238 362 436 486> 233 45<324.551 395.416> 473 31<248.279 319.973>
VStem: 92 60<100.336 285.72> 206 38<404.647 468.593> 264 56<158.093 228.61> 324 44<409.898 468.171> 400 32<157.954 228.61>
Fore
284 473 m 0
 262 473 244 456 244 434 c 0
 244 412 262 393 284 393 c 0
 306 393 324 412 324 434 c 0
 324 456 306 473 284 473 c 0
360 233 m 0
 338 233 320 216 320 194 c 0
 320 172 338 153 360 153 c 0
 382 153 400 172 400 194 c 0
 400 216 382 233 360 233 c 0
92 194 m 8
 92 265 99 346 234 385 c 1
 216 389 206 415 206 429 c 0
 206 475 242 504 288 504 c 0
 334 504 368 478 368 432 c 0
 368 425 354 404 352 397 c 1
 398 414 450 456 478 476 c 9
 508 428 l 17
 464 392 418 346 346 337 c 16
 288 330 230 343 190 303 c 8
 158 272 152 263 152 194 c 0
 152 70 210 60 305 60 c 2
 362 60 l 1
 314 117 264 125 264 194 c 8
 264 240 302 278 348 278 c 24
 394 278 432 240 432 194 c 16
 432 166 406 134 384 123 c 1
 406 102 420 81 436 60 c 1
 486 60 l 9
 486 0 l 25
 238 0 l 18
 122 0 92 104 92 194 c 8
EndSplineSet
EndChar
